<svg width="375" height="447" viewBox="0 0 375 447" fill="none" xmlns="http://www.w3.org/2000/svg">
<g filter="url(#filter0_d_7_2735)">
<rect x="10" y="8" width="355" height="427" rx="20" fill="#1E1E1E"/>
</g>
<path d="M44.7926 40.4545V55H42.598V40.4545H44.7926ZM49.9418 48.5227V55H47.8182V44.0909H49.8565V45.8665H49.9915C50.2424 45.2888 50.6354 44.8248 51.1705 44.4744C51.7102 44.1241 52.3897 43.9489 53.2088 43.9489C53.9522 43.9489 54.6032 44.1051 55.1619 44.4176C55.7206 44.7254 56.1539 45.1847 56.4616 45.7955C56.7694 46.4062 56.9233 47.1615 56.9233 48.0611V55H54.7997V48.3168C54.7997 47.526 54.5938 46.9081 54.1818 46.4631C53.7699 46.0133 53.2041 45.7884 52.4844 45.7884C51.992 45.7884 51.554 45.8949 51.1705 46.108C50.7917 46.321 50.491 46.6335 50.2685 47.0455C50.0507 47.4527 49.9418 47.9451 49.9418 48.5227ZM64.3665 55.2202C63.3106 55.2202 62.4015 54.9811 61.6392 54.5028C60.8816 54.0199 60.2992 53.3546 59.892 52.5071C59.4848 51.6596 59.2812 50.6889 59.2812 49.5952C59.2812 48.4872 59.4896 47.5095 59.9062 46.6619C60.3229 45.8097 60.91 45.1444 61.6676 44.6662C62.4252 44.188 63.3177 43.9489 64.3452 43.9489C65.1738 43.9489 65.9124 44.1027 66.5611 44.4105C67.2098 44.7135 67.733 45.1397 68.1307 45.6889C68.5331 46.2382 68.7723 46.8797 68.848 47.6136H66.7812C66.6676 47.1023 66.4072 46.6619 66 46.2926C65.5975 45.9233 65.0578 45.7386 64.3807 45.7386C63.7888 45.7386 63.2704 45.8949 62.8253 46.2074C62.3849 46.5152 62.0417 46.9555 61.7955 47.5284C61.5492 48.0966 61.4261 48.7689 61.4261 49.5455C61.4261 50.3409 61.5469 51.0275 61.7884 51.6051C62.0298 52.1828 62.3707 52.6302 62.8111 52.9474C63.2562 53.2647 63.7794 53.4233 64.3807 53.4233C64.7831 53.4233 65.1477 53.3499 65.4744 53.2031C65.8059 53.0516 66.0829 52.8362 66.3054 52.5568C66.5327 52.2775 66.6913 51.9413 66.7812 51.5483H68.848C68.7723 52.2538 68.5426 52.8835 68.1591 53.4375C67.7756 53.9915 67.2618 54.4271 66.6179 54.7443C65.9787 55.0616 65.2282 55.2202 64.3665 55.2202ZM71.119 55V44.0909H73.1715V45.8239H73.2852C73.484 45.2367 73.8344 44.7751 74.3363 44.4389C74.8429 44.098 75.4158 43.9276 76.055 43.9276C76.1876 43.9276 76.3439 43.9323 76.5238 43.9418C76.7085 43.9512 76.8529 43.9631 76.957 43.9773V46.0085C76.8718 45.9848 76.7203 45.9588 76.5025 45.9304C76.2847 45.8973 76.0669 45.8807 75.8491 45.8807C75.3472 45.8807 74.8997 45.9872 74.5067 46.2003C74.1185 46.4086 73.8107 46.6998 73.5835 47.0739C73.3562 47.4432 73.2425 47.8646 73.2425 48.3381V55H71.119ZM83.1058 55.2202C82.031 55.2202 81.1054 54.9905 80.3288 54.5312C79.5571 54.0672 78.9605 53.4162 78.5391 52.5781C78.1224 51.7353 77.9141 50.7481 77.9141 49.6165C77.9141 48.4991 78.1224 47.5142 78.5391 46.6619C78.9605 45.8097 79.5476 45.1444 80.3004 44.6662C81.058 44.188 81.9434 43.9489 82.9567 43.9489C83.5722 43.9489 84.1688 44.0507 84.7464 44.2543C85.3241 44.4579 85.8426 44.7775 86.3018 45.2131C86.7611 45.6487 87.1233 46.2145 87.3885 46.9105C87.6536 47.6018 87.7862 48.4422 87.7862 49.4318V50.1847H79.1143V48.5938H85.7053C85.7053 48.035 85.5916 47.5402 85.3643 47.1094C85.1371 46.6738 84.8175 46.3305 84.4055 46.0795C83.9983 45.8286 83.5201 45.7031 82.9709 45.7031C82.3743 45.7031 81.8535 45.8499 81.4084 46.1435C80.968 46.4323 80.6271 46.8111 80.3857 47.2798C80.1489 47.7438 80.0305 48.2481 80.0305 48.7926V50.0355C80.0305 50.7647 80.1584 51.3849 80.4141 51.8963C80.6745 52.4077 81.0367 52.7983 81.5007 53.0682C81.9647 53.3333 82.5069 53.4659 83.1271 53.4659C83.5296 53.4659 83.8965 53.4091 84.228 53.2955C84.5594 53.1771 84.8459 53.0019 85.0874 52.7699C85.3288 52.5379 85.5135 52.2514 85.6413 51.9105L87.6513 52.2727C87.4903 52.8646 87.2015 53.383 86.7848 53.8281C86.3729 54.2685 85.8544 54.6117 85.2294 54.858C84.6091 55.0994 83.9013 55.2202 83.1058 55.2202ZM93.3171 55.2415C92.6258 55.2415 92.0008 55.1136 91.4421 54.858C90.8834 54.5975 90.4407 54.2211 90.114 53.7287C89.792 53.2363 89.631 52.6326 89.631 51.9176C89.631 51.3021 89.7494 50.7955 89.9862 50.3977C90.2229 50 90.5425 49.6851 90.945 49.4531C91.3474 49.2211 91.7972 49.0459 92.2944 48.9276C92.7915 48.8092 93.2982 48.7192 93.8143 48.6577C94.4677 48.5819 94.998 48.5204 95.4052 48.473C95.8124 48.4209 96.1083 48.3381 96.293 48.2244C96.4776 48.1108 96.57 47.9261 96.57 47.6705V47.6207C96.57 47.0005 96.3948 46.5199 96.0444 46.179C95.6987 45.8381 95.1826 45.6676 94.4961 45.6676C93.7811 45.6676 93.2177 45.8262 92.8058 46.1435C92.3986 46.456 92.1168 46.804 91.9606 47.1875L89.9648 46.733C90.2016 46.0701 90.5472 45.535 91.0018 45.1278C91.4611 44.7159 91.989 44.4176 92.5856 44.233C93.1822 44.0436 93.8095 43.9489 94.4677 43.9489C94.9033 43.9489 95.3649 44.0009 95.8526 44.1051C96.3451 44.2045 96.8043 44.3892 97.2305 44.6591C97.6613 44.929 98.0141 45.3149 98.2887 45.8168C98.5633 46.3139 98.7006 46.9602 98.7006 47.7557V55H96.6268V53.5085H96.5415C96.4042 53.7831 96.1983 54.053 95.9237 54.3182C95.649 54.5833 95.2963 54.8035 94.8654 54.9787C94.4345 55.1539 93.9184 55.2415 93.3171 55.2415ZM93.7788 53.5369C94.3659 53.5369 94.8678 53.4209 95.2844 53.1889C95.7058 52.9569 96.0255 52.6539 96.2433 52.2798C96.4658 51.901 96.5771 51.4962 96.5771 51.0653V49.6591C96.5013 49.7348 96.3545 49.8059 96.1367 49.8722C95.9237 49.9337 95.6798 49.9882 95.4052 50.0355C95.1306 50.0781 94.863 50.1184 94.6026 50.1562C94.3422 50.1894 94.1244 50.2178 93.9492 50.2415C93.5373 50.2936 93.1609 50.3812 92.82 50.5043C92.4838 50.6274 92.2139 50.8049 92.0103 51.0369C91.8114 51.2642 91.712 51.5672 91.712 51.946C91.712 52.4716 91.9061 52.8693 92.2944 53.1392C92.6826 53.4044 93.1774 53.5369 93.7788 53.5369ZM109.704 46.7543L107.779 47.0952C107.699 46.849 107.571 46.6146 107.396 46.392C107.225 46.1695 106.993 45.9872 106.7 45.8452C106.406 45.7031 106.039 45.6321 105.599 45.6321C104.997 45.6321 104.496 45.767 104.093 46.0369C103.691 46.3021 103.489 46.6454 103.489 47.0668C103.489 47.4313 103.624 47.7249 103.894 47.9474C104.164 48.17 104.6 48.3523 105.201 48.4943L106.934 48.892C107.938 49.1241 108.686 49.4815 109.178 49.9645C109.671 50.4474 109.917 51.0748 109.917 51.8466C109.917 52.5 109.728 53.0824 109.349 53.5938C108.975 54.1004 108.451 54.4981 107.779 54.7869C107.112 55.0758 106.337 55.2202 105.457 55.2202C104.235 55.2202 103.238 54.9598 102.467 54.4389C101.695 53.9134 101.221 53.1676 101.046 52.2017L103.099 51.8892C103.227 52.4242 103.489 52.8291 103.887 53.1037C104.285 53.3736 104.803 53.5085 105.442 53.5085C106.138 53.5085 106.695 53.3641 107.112 53.0753C107.528 52.7817 107.737 52.4242 107.737 52.0028C107.737 51.6619 107.609 51.3755 107.353 51.1435C107.102 50.9115 106.716 50.7363 106.195 50.6179L104.349 50.2131C103.331 49.9811 102.578 49.6117 102.09 49.1051C101.607 48.5985 101.366 47.9569 101.366 47.1804C101.366 46.5365 101.546 45.973 101.906 45.4901C102.265 45.0071 102.763 44.6307 103.397 44.3608C104.031 44.0862 104.758 43.9489 105.577 43.9489C106.756 43.9489 107.684 44.2045 108.362 44.7159C109.039 45.2225 109.486 45.902 109.704 46.7543ZM112.252 55V44.0909H114.375V55H112.252ZM113.324 42.4077C112.955 42.4077 112.638 42.2846 112.373 42.0384C112.112 41.7874 111.982 41.4891 111.982 41.1435C111.982 40.7931 112.112 40.4948 112.373 40.2486C112.638 39.9976 112.955 39.8722 113.324 39.8722C113.694 39.8722 114.008 39.9976 114.269 40.2486C114.534 40.4948 114.667 40.7931 114.667 41.1435C114.667 41.4891 114.534 41.7874 114.269 42.0384C114.008 42.2846 113.694 42.4077 113.324 42.4077ZM119.356 48.5227V55H117.232V44.0909H119.271V45.8665H119.406C119.656 45.2888 120.049 44.8248 120.585 44.4744C121.124 44.1241 121.804 43.9489 122.623 43.9489C123.366 43.9489 124.017 44.1051 124.576 44.4176C125.135 44.7254 125.568 45.1847 125.876 45.7955C126.183 46.4062 126.337 47.1615 126.337 48.0611V55H124.214V48.3168C124.214 47.526 124.008 46.9081 123.596 46.4631C123.184 46.0133 122.618 45.7884 121.898 45.7884C121.406 45.7884 120.968 45.8949 120.585 46.108C120.206 46.321 119.905 46.6335 119.683 47.0455C119.465 47.4527 119.356 47.9451 119.356 48.5227ZM133.759 59.3182C132.893 59.3182 132.147 59.2045 131.522 58.9773C130.902 58.75 130.395 58.4493 130.002 58.0753C129.609 57.7012 129.316 57.2917 129.121 56.8466L130.947 56.0938C131.075 56.3021 131.245 56.5223 131.458 56.7543C131.676 56.991 131.969 57.1922 132.339 57.358C132.713 57.5237 133.193 57.6065 133.781 57.6065C134.585 57.6065 135.251 57.41 135.776 57.017C136.302 56.6288 136.565 56.0085 136.565 55.1562V53.0114H136.43C136.302 53.2434 136.117 53.5014 135.876 53.7855C135.639 54.0696 135.312 54.3158 134.896 54.5241C134.479 54.7325 133.937 54.8366 133.269 54.8366C132.407 54.8366 131.631 54.6354 130.94 54.233C130.253 53.8258 129.709 53.2268 129.306 52.4361C128.908 51.6406 128.71 50.6629 128.71 49.5028C128.71 48.3428 128.906 47.3485 129.299 46.5199C129.697 45.6913 130.241 45.0568 130.933 44.6165C131.624 44.1714 132.407 43.9489 133.283 43.9489C133.96 43.9489 134.507 44.0625 134.924 44.2898C135.341 44.5123 135.665 44.7727 135.897 45.071C136.134 45.3693 136.316 45.6321 136.444 45.8594H136.6V44.0909H138.681V55.2415C138.681 56.179 138.463 56.9484 138.028 57.5497C137.592 58.151 137.003 58.5961 136.259 58.8849C135.521 59.1738 134.687 59.3182 133.759 59.3182ZM133.738 53.0753C134.349 53.0753 134.865 52.9332 135.286 52.6491C135.712 52.3603 136.034 51.9484 136.252 51.4134C136.475 50.8736 136.586 50.2273 136.586 49.4744C136.586 48.7405 136.477 48.0942 136.259 47.5355C136.041 46.9768 135.722 46.5412 135.3 46.2287C134.879 45.9115 134.358 45.7528 133.738 45.7528C133.099 45.7528 132.566 45.9186 132.14 46.25C131.714 46.5767 131.392 47.0218 131.174 47.5852C130.961 48.1487 130.854 48.7784 130.854 49.4744C130.854 50.1894 130.963 50.8168 131.181 51.3565C131.399 51.8963 131.721 52.3177 132.147 52.6207C132.578 52.9238 133.108 53.0753 133.738 53.0753ZM145.87 40.4545H148.363L152.163 47.0668H152.319L156.119 40.4545H158.612L153.335 49.2898V55H151.147V49.2898L145.87 40.4545ZM163.312 55.2202C162.289 55.2202 161.397 54.9858 160.634 54.517C159.872 54.0483 159.28 53.3925 158.859 52.5497C158.437 51.7069 158.227 50.7221 158.227 49.5952C158.227 48.4635 158.437 47.474 158.859 46.6264C159.28 45.7789 159.872 45.1207 160.634 44.652C161.397 44.1832 162.289 43.9489 163.312 43.9489C164.335 43.9489 165.227 44.1832 165.989 44.652C166.752 45.1207 167.344 45.7789 167.765 46.6264C168.186 47.474 168.397 48.4635 168.397 49.5952C168.397 50.7221 168.186 51.7069 167.765 52.5497C167.344 53.3925 166.752 54.0483 165.989 54.517C165.227 54.9858 164.335 55.2202 163.312 55.2202ZM163.319 53.4375C163.982 53.4375 164.531 53.2623 164.967 52.9119C165.402 52.5616 165.724 52.0952 165.933 51.5128C166.146 50.9304 166.252 50.2888 166.252 49.5881C166.252 48.892 166.146 48.2528 165.933 47.6705C165.724 47.0833 165.402 46.6122 164.967 46.2571C164.531 45.902 163.982 45.7244 163.319 45.7244C162.651 45.7244 162.097 45.902 161.657 46.2571C161.221 46.6122 160.897 47.0833 160.684 47.6705C160.476 48.2528 160.371 48.892 160.371 49.5881C160.371 50.2888 160.476 50.9304 160.684 51.5128C160.897 52.0952 161.221 52.5616 161.657 52.9119C162.097 53.2623 162.651 53.4375 163.319 53.4375ZM177.678 50.4759V44.0909H179.809V55H177.721V53.1108H177.607C177.356 53.6932 176.953 54.1785 176.4 54.5668C175.85 54.9503 175.166 55.142 174.347 55.142C173.646 55.142 173.026 54.9882 172.486 54.6804C171.951 54.3679 171.53 53.9062 171.222 53.2955C170.919 52.6847 170.767 51.9295 170.767 51.0298V44.0909H172.891V50.7741C172.891 51.5175 173.097 52.1094 173.509 52.5497C173.921 52.9901 174.456 53.2102 175.114 53.2102C175.512 53.2102 175.907 53.1108 176.3 52.9119C176.698 52.7131 177.027 52.4124 177.287 52.0099C177.552 51.6075 177.683 51.0961 177.678 50.4759ZM182.662 55V44.0909H184.714V45.8239H184.828C185.027 45.2367 185.377 44.7751 185.879 44.4389C186.386 44.098 186.959 43.9276 187.598 43.9276C187.731 43.9276 187.887 43.9323 188.067 43.9418C188.251 43.9512 188.396 43.9631 188.5 43.9773V46.0085C188.415 45.9848 188.263 45.9588 188.045 45.9304C187.828 45.8973 187.61 45.8807 187.392 45.8807C186.89 45.8807 186.443 45.9872 186.05 46.2003C185.661 46.4086 185.354 46.6998 185.126 47.0739C184.899 47.4432 184.786 47.8646 184.786 48.3381V55H182.662ZM195.801 55V40.4545H200.986C202.113 40.4545 203.048 40.6487 203.791 41.0369C204.539 41.4252 205.098 41.9626 205.467 42.6491C205.837 43.331 206.021 44.1193 206.021 45.0142C206.021 45.9044 205.834 46.688 205.46 47.3651C205.091 48.0374 204.532 48.5606 203.784 48.9347C203.041 49.3087 202.106 49.4957 200.979 49.4957H197.051V47.6065H200.78C201.49 47.6065 202.068 47.5047 202.513 47.3011C202.963 47.0975 203.292 46.8016 203.5 46.4134C203.708 46.0251 203.812 45.5587 203.812 45.0142C203.812 44.465 203.706 43.9891 203.493 43.5866C203.285 43.1842 202.955 42.8764 202.506 42.6634C202.061 42.4455 201.476 42.3366 200.751 42.3366H197.996V55H195.801ZM202.982 48.4375L206.575 55H204.075L200.553 48.4375H202.982ZM213.086 55.2202C212.011 55.2202 211.086 54.9905 210.309 54.5312C209.538 54.0672 208.941 53.4162 208.52 52.5781C208.103 51.7353 207.895 50.7481 207.895 49.6165C207.895 48.4991 208.103 47.5142 208.52 46.6619C208.941 45.8097 209.528 45.1444 210.281 44.6662C211.038 44.188 211.924 43.9489 212.937 43.9489C213.553 43.9489 214.149 44.0507 214.727 44.2543C215.305 44.4579 215.823 44.7775 216.282 45.2131C216.742 45.6487 217.104 46.2145 217.369 46.9105C217.634 47.6018 217.767 48.4422 217.767 49.4318V50.1847H209.095V48.5938H215.686C215.686 48.035 215.572 47.5402 215.345 47.1094C215.118 46.6738 214.798 46.3305 214.386 46.0795C213.979 45.8286 213.501 45.7031 212.951 45.7031C212.355 45.7031 211.834 45.8499 211.389 46.1435C210.949 46.4323 210.608 46.8111 210.366 47.2798C210.129 47.7438 210.011 48.2481 210.011 48.7926V50.0355C210.011 50.7647 210.139 51.3849 210.395 51.8963C210.655 52.4077 211.017 52.7983 211.481 53.0682C211.945 53.3333 212.487 53.4659 213.108 53.4659C213.51 53.4659 213.877 53.4091 214.208 53.2955C214.54 53.1771 214.826 53.0019 215.068 52.7699C215.309 52.5379 215.494 52.2514 215.622 51.9105L217.632 52.2727C217.471 52.8646 217.182 53.383 216.765 53.8281C216.353 54.2685 215.835 54.6117 215.21 54.858C214.59 55.0994 213.882 55.2202 213.086 55.2202ZM229.143 44.0909L225.187 55H222.914L218.951 44.0909H221.231L223.994 52.4858H224.107L226.863 44.0909H229.143ZM235.469 55.2202C234.394 55.2202 233.469 54.9905 232.692 54.5312C231.92 54.0672 231.324 53.4162 230.902 52.5781C230.486 51.7353 230.277 50.7481 230.277 49.6165C230.277 48.4991 230.486 47.5142 230.902 46.6619C231.324 45.8097 231.911 45.1444 232.664 44.6662C233.421 44.188 234.307 43.9489 235.32 43.9489C235.935 43.9489 236.532 44.0507 237.11 44.2543C237.687 44.4579 238.206 44.7775 238.665 45.2131C239.124 45.6487 239.487 46.2145 239.752 46.9105C240.017 47.6018 240.15 48.4422 240.15 49.4318V50.1847H231.478V48.5938H238.069C238.069 48.035 237.955 47.5402 237.728 47.1094C237.5 46.6738 237.181 46.3305 236.769 46.0795C236.362 45.8286 235.883 45.7031 235.334 45.7031C234.738 45.7031 234.217 45.8499 233.772 46.1435C233.331 46.4323 232.99 46.8111 232.749 47.2798C232.512 47.7438 232.394 48.2481 232.394 48.7926V50.0355C232.394 50.7647 232.522 51.3849 232.777 51.8963C233.038 52.4077 233.4 52.7983 233.864 53.0682C234.328 53.3333 234.87 53.4659 235.49 53.4659C235.893 53.4659 236.26 53.4091 236.591 53.2955C236.923 53.1771 237.209 53.0019 237.451 52.7699C237.692 52.5379 237.877 52.2514 238.005 51.9105L240.015 52.2727C239.854 52.8646 239.565 53.383 239.148 53.8281C238.736 54.2685 238.218 54.6117 237.593 54.858C236.972 55.0994 236.265 55.2202 235.469 55.2202ZM244.629 48.5227V55H242.506V44.0909H244.544V45.8665H244.679C244.93 45.2888 245.323 44.8248 245.858 44.4744C246.398 44.1241 247.077 43.9489 247.896 43.9489C248.64 43.9489 249.291 44.1051 249.849 44.4176C250.408 44.7254 250.841 45.1847 251.149 45.7955C251.457 46.4062 251.611 47.1615 251.611 48.0611V55H249.487V48.3168C249.487 47.526 249.281 46.9081 248.869 46.4631C248.457 46.0133 247.892 45.7884 247.172 45.7884C246.679 45.7884 246.241 45.8949 245.858 46.108C245.479 46.321 245.179 46.6335 244.956 47.0455C244.738 47.4527 244.629 47.9451 244.629 48.5227ZM261.369 50.4759V44.0909H263.5V55H261.412V53.1108H261.298C261.047 53.6932 260.645 54.1785 260.091 54.5668C259.542 54.9503 258.857 55.142 258.038 55.142C257.338 55.142 256.717 54.9882 256.178 54.6804C255.643 54.3679 255.221 53.9062 254.913 53.2955C254.61 52.6847 254.459 51.9295 254.459 51.0298V44.0909H256.582V50.7741C256.582 51.5175 256.788 52.1094 257.2 52.5497C257.612 52.9901 258.147 53.2102 258.805 53.2102C259.203 53.2102 259.598 53.1108 259.991 52.9119C260.389 52.7131 260.718 52.4124 260.979 52.0099C261.244 51.6075 261.374 51.0961 261.369 50.4759ZM271.055 55.2202C269.98 55.2202 269.055 54.9905 268.278 54.5312C267.506 54.0672 266.91 53.4162 266.488 52.5781C266.072 51.7353 265.863 50.7481 265.863 49.6165C265.863 48.4991 266.072 47.5142 266.488 46.6619C266.91 45.8097 267.497 45.1444 268.25 44.6662C269.007 44.188 269.893 43.9489 270.906 43.9489C271.521 43.9489 272.118 44.0507 272.696 44.2543C273.273 44.4579 273.792 44.7775 274.251 45.2131C274.71 45.6487 275.073 46.2145 275.338 46.9105C275.603 47.6018 275.735 48.4422 275.735 49.4318V50.1847H267.064V48.5938H273.654C273.654 48.035 273.541 47.5402 273.314 47.1094C273.086 46.6738 272.767 46.3305 272.355 46.0795C271.948 45.8286 271.469 45.7031 270.92 45.7031C270.324 45.7031 269.803 45.8499 269.358 46.1435C268.917 46.4323 268.576 46.8111 268.335 47.2798C268.098 47.7438 267.98 48.2481 267.98 48.7926V50.0355C267.98 50.7647 268.108 51.3849 268.363 51.8963C268.624 52.4077 268.986 52.7983 269.45 53.0682C269.914 53.3333 270.456 53.4659 271.076 53.4659C271.479 53.4659 271.846 53.4091 272.177 53.2955C272.509 53.1771 272.795 53.0019 273.037 52.7699C273.278 52.5379 273.463 52.2514 273.591 51.9105L275.6 52.2727C275.44 52.8646 275.151 53.383 274.734 53.8281C274.322 54.2685 273.804 54.6117 273.179 54.858C272.558 55.0994 271.85 55.2202 271.055 55.2202Z" fill="#F0F0F0"/>
<path d="M43.642 117L41.2557 108.273H42.3295L44.1534 115.381H44.2386L46.0966 108.273H47.2898L49.1477 115.381H49.233L51.0568 108.273H52.1307L49.7443 117H48.6534L46.7273 110.045H46.6591L44.733 117H43.642ZM53.3111 117V110.455H54.3168V117H53.3111ZM53.8224 109.364C53.6264 109.364 53.4574 109.297 53.3153 109.163C53.1761 109.03 53.1065 108.869 53.1065 108.682C53.1065 108.494 53.1761 108.334 53.3153 108.2C53.4574 108.067 53.6264 108 53.8224 108C54.0185 108 54.1861 108.067 54.3253 108.2C54.4673 108.334 54.5384 108.494 54.5384 108.682C54.5384 108.869 54.4673 109.03 54.3253 109.163C54.1861 109.297 54.0185 109.364 53.8224 109.364ZM59.0053 110.455V111.307H55.6133V110.455H59.0053ZM56.6019 108.886H57.6076V115.125C57.6076 115.409 57.6488 115.622 57.7312 115.764C57.8164 115.903 57.9244 115.997 58.055 116.045C58.1886 116.091 58.3292 116.114 58.4769 116.114C58.5877 116.114 58.6786 116.108 58.7496 116.097C58.8207 116.082 58.8775 116.071 58.9201 116.062L59.1246 116.966C59.0565 116.991 58.9613 117.017 58.8391 117.043C58.717 117.071 58.5621 117.085 58.3746 117.085C58.0906 117.085 57.8121 117.024 57.5394 116.902C57.2695 116.78 57.0451 116.594 56.8661 116.344C56.69 116.094 56.6019 115.778 56.6019 115.398V108.886ZM61.6644 113.062V117H60.6587V108.273H61.6644V111.477H61.7496C61.9031 111.139 62.1332 110.871 62.44 110.672C62.7496 110.47 63.1616 110.369 63.6758 110.369C64.1218 110.369 64.5124 110.459 64.8477 110.638C65.1829 110.814 65.4428 111.085 65.6275 111.452C65.815 111.815 65.9087 112.278 65.9087 112.841V117H64.9031V112.909C64.9031 112.389 64.7681 111.987 64.4982 111.703C64.2312 111.416 63.8604 111.273 63.386 111.273C63.0565 111.273 62.761 111.342 62.4996 111.482C62.2411 111.621 62.0366 111.824 61.886 112.091C61.7383 112.358 61.6644 112.682 61.6644 113.062ZM70.4077 117.136C69.8168 117.136 69.2983 116.996 68.8523 116.714C68.4091 116.433 68.0625 116.04 67.8125 115.534C67.5653 115.028 67.4418 114.437 67.4418 113.761C67.4418 113.08 67.5653 112.484 67.8125 111.976C68.0625 111.467 68.4091 111.072 68.8523 110.791C69.2983 110.51 69.8168 110.369 70.4077 110.369C70.9986 110.369 71.5156 110.51 71.9588 110.791C72.4048 111.072 72.7514 111.467 72.9986 111.976C73.2486 112.484 73.3736 113.08 73.3736 113.761C73.3736 114.437 73.2486 115.028 72.9986 115.534C72.7514 116.04 72.4048 116.433 71.9588 116.714C71.5156 116.996 70.9986 117.136 70.4077 117.136ZM70.4077 116.233C70.8565 116.233 71.2259 116.118 71.5156 115.888C71.8054 115.658 72.0199 115.355 72.1591 114.98C72.2983 114.605 72.3679 114.199 72.3679 113.761C72.3679 113.324 72.2983 112.916 72.1591 112.538C72.0199 112.161 71.8054 111.855 71.5156 111.622C71.2259 111.389 70.8565 111.273 70.4077 111.273C69.9588 111.273 69.5895 111.389 69.2997 111.622C69.0099 111.855 68.7955 112.161 68.6562 112.538C68.517 112.916 68.4474 113.324 68.4474 113.761C68.4474 114.199 68.517 114.605 68.6562 114.98C68.7955 115.355 69.0099 115.658 69.2997 115.888C69.5895 116.118 69.9588 116.233 70.4077 116.233ZM79.0337 114.324V110.455H80.0394V117H79.0337V115.892H78.9656C78.8121 116.224 78.5735 116.507 78.2496 116.74C77.9258 116.97 77.5167 117.085 77.0224 117.085C76.6133 117.085 76.2496 116.996 75.9315 116.817C75.6133 116.635 75.3633 116.362 75.1815 115.999C74.9996 115.632 74.9087 115.17 74.9087 114.614V110.455H75.9144V114.545C75.9144 115.023 76.0479 115.403 76.315 115.688C76.5849 115.972 76.9286 116.114 77.3462 116.114C77.5962 116.114 77.8505 116.05 78.109 115.922C78.3704 115.794 78.5891 115.598 78.7653 115.334C78.9442 115.07 79.0337 114.733 79.0337 114.324ZM84.728 110.455V111.307H81.3359V110.455H84.728ZM82.3246 108.886H83.3303V115.125C83.3303 115.409 83.3714 115.622 83.4538 115.764C83.5391 115.903 83.647 115.997 83.7777 116.045C83.9112 116.091 84.0518 116.114 84.1996 116.114C84.3104 116.114 84.4013 116.108 84.4723 116.097C84.5433 116.082 84.6001 116.071 84.6428 116.062L84.8473 116.966C84.7791 116.991 84.6839 117.017 84.5618 117.043C84.4396 117.071 84.2848 117.085 84.0973 117.085C83.8132 117.085 83.5348 117.024 83.2621 116.902C82.9922 116.78 82.7678 116.594 82.5888 116.344C82.4126 116.094 82.3246 115.778 82.3246 115.398V108.886ZM94.5249 110.455C94.4737 110.023 94.2663 109.688 93.9027 109.449C93.5391 109.21 93.093 109.091 92.5646 109.091C92.1783 109.091 91.8402 109.153 91.5504 109.278C91.2635 109.403 91.0391 109.575 90.8771 109.794C90.718 110.013 90.6385 110.261 90.6385 110.54C90.6385 110.773 90.6939 110.973 90.8047 111.141C90.9183 111.305 91.0632 111.443 91.2393 111.554C91.4155 111.662 91.6001 111.751 91.7933 111.822C91.9865 111.891 92.1641 111.946 92.326 111.989L93.2124 112.227C93.4396 112.287 93.6925 112.369 93.9709 112.474C94.2521 112.58 94.5206 112.723 94.7763 112.905C95.0348 113.084 95.2479 113.314 95.4155 113.595C95.5831 113.876 95.6669 114.222 95.6669 114.631C95.6669 115.102 95.5433 115.528 95.2962 115.909C95.0518 116.29 94.6939 116.592 94.2223 116.817C93.7536 117.041 93.1839 117.153 92.5135 117.153C91.8885 117.153 91.3473 117.053 90.8899 116.851C90.4354 116.649 90.0774 116.368 89.8161 116.007C89.5575 115.646 89.4112 115.227 89.3771 114.75H90.468C90.4964 115.08 90.6072 115.352 90.8004 115.568C90.9964 115.781 91.2436 115.94 91.5419 116.045C91.843 116.148 92.1669 116.199 92.5135 116.199C92.9169 116.199 93.2791 116.134 93.6001 116.003C93.9212 115.869 94.1754 115.685 94.3629 115.449C94.5504 115.21 94.6442 114.932 94.6442 114.614C94.6442 114.324 94.5632 114.088 94.4013 113.906C94.2393 113.724 94.0263 113.577 93.7621 113.463C93.4979 113.349 93.2124 113.25 92.9055 113.165L91.8317 112.858C91.1499 112.662 90.6101 112.382 90.2124 112.018C89.8146 111.655 89.6158 111.179 89.6158 110.591C89.6158 110.102 89.7479 109.676 90.0121 109.312C90.2791 108.946 90.6371 108.662 91.0859 108.46C91.5376 108.256 92.0419 108.153 92.5987 108.153C93.1612 108.153 93.6612 108.254 94.0987 108.456C94.5362 108.655 94.8828 108.928 95.1385 109.274C95.397 109.621 95.5334 110.014 95.5476 110.455H94.5249ZM100.115 110.455V111.307H96.7227V110.455H100.115ZM97.7113 108.886H98.717V115.125C98.717 115.409 98.7582 115.622 98.8406 115.764C98.9258 115.903 99.0337 115.997 99.1644 116.045C99.2979 116.091 99.4386 116.114 99.5863 116.114C99.6971 116.114 99.788 116.108 99.859 116.097C99.93 116.082 99.9869 116.071 100.029 116.062L100.234 116.966C100.166 116.991 100.071 117.017 99.9485 117.043C99.8263 117.071 99.6715 117.085 99.484 117.085C99.1999 117.085 98.9215 117.024 98.6488 116.902C98.3789 116.78 98.1545 116.594 97.9755 116.344C97.7994 116.094 97.7113 115.778 97.7113 115.398V108.886ZM101.627 117V110.455H102.599V111.443H102.667C102.787 111.119 103.002 110.857 103.315 110.655C103.627 110.453 103.98 110.352 104.372 110.352C104.446 110.352 104.538 110.354 104.649 110.357C104.76 110.359 104.843 110.364 104.9 110.369V111.392C104.866 111.384 104.788 111.371 104.666 111.354C104.547 111.334 104.42 111.324 104.287 111.324C103.968 111.324 103.684 111.391 103.434 111.524C103.187 111.655 102.991 111.837 102.846 112.07C102.704 112.3 102.633 112.562 102.633 112.858V117H101.627ZM108.637 117.136C108.007 117.136 107.463 116.997 107.005 116.719C106.551 116.438 106.2 116.045 105.953 115.543C105.708 115.037 105.586 114.449 105.586 113.778C105.586 113.108 105.708 112.517 105.953 112.006C106.2 111.491 106.544 111.091 106.984 110.804C107.427 110.514 107.944 110.369 108.535 110.369C108.876 110.369 109.213 110.426 109.545 110.54C109.877 110.653 110.18 110.838 110.453 111.094C110.725 111.347 110.943 111.682 111.105 112.099C111.267 112.517 111.348 113.031 111.348 113.642V114.068H106.302V113.199H110.325C110.325 112.83 110.251 112.5 110.103 112.21C109.958 111.92 109.751 111.692 109.481 111.524C109.214 111.357 108.899 111.273 108.535 111.273C108.135 111.273 107.788 111.372 107.495 111.571C107.206 111.767 106.983 112.023 106.826 112.338C106.67 112.653 106.592 112.991 106.592 113.352V113.932C106.592 114.426 106.677 114.845 106.848 115.189C107.021 115.53 107.261 115.79 107.568 115.969C107.875 116.145 108.231 116.233 108.637 116.233C108.902 116.233 109.14 116.196 109.353 116.122C109.569 116.045 109.755 115.932 109.912 115.781C110.068 115.628 110.189 115.437 110.274 115.21L111.245 115.483C111.143 115.812 110.971 116.102 110.73 116.352C110.488 116.599 110.19 116.793 109.835 116.932C109.48 117.068 109.081 117.136 108.637 117.136ZM117.514 111.92L116.61 112.176C116.554 112.026 116.47 111.879 116.359 111.737C116.251 111.592 116.103 111.473 115.916 111.379C115.728 111.286 115.488 111.239 115.196 111.239C114.795 111.239 114.461 111.331 114.194 111.516C113.93 111.697 113.798 111.929 113.798 112.21C113.798 112.46 113.889 112.658 114.071 112.803C114.252 112.947 114.537 113.068 114.923 113.165L115.895 113.403C116.48 113.545 116.916 113.763 117.203 114.055C117.49 114.345 117.633 114.719 117.633 115.176C117.633 115.551 117.525 115.886 117.309 116.182C117.096 116.477 116.798 116.71 116.414 116.881C116.031 117.051 115.585 117.136 115.076 117.136C114.409 117.136 113.856 116.991 113.419 116.702C112.981 116.412 112.704 115.989 112.588 115.432L113.542 115.193C113.633 115.545 113.805 115.81 114.058 115.986C114.314 116.162 114.647 116.25 115.059 116.25C115.528 116.25 115.9 116.151 116.176 115.952C116.454 115.75 116.593 115.509 116.593 115.227C116.593 115 116.514 114.81 116.355 114.656C116.196 114.5 115.951 114.384 115.622 114.307L114.531 114.051C113.931 113.909 113.491 113.689 113.21 113.391C112.931 113.089 112.792 112.713 112.792 112.261C112.792 111.892 112.896 111.565 113.103 111.281C113.314 110.997 113.599 110.774 113.96 110.612C114.324 110.45 114.735 110.369 115.196 110.369C115.843 110.369 116.352 110.511 116.721 110.795C117.093 111.08 117.358 111.455 117.514 111.92ZM123.783 111.92L122.88 112.176C122.823 112.026 122.739 111.879 122.629 111.737C122.521 111.592 122.373 111.473 122.185 111.379C121.998 111.286 121.758 111.239 121.465 111.239C121.065 111.239 120.731 111.331 120.464 111.516C120.2 111.697 120.067 111.929 120.067 112.21C120.067 112.46 120.158 112.658 120.34 112.803C120.522 112.947 120.806 113.068 121.192 113.165L122.164 113.403C122.749 113.545 123.185 113.763 123.472 114.055C123.759 114.345 123.903 114.719 123.903 115.176C123.903 115.551 123.795 115.886 123.579 116.182C123.366 116.477 123.067 116.71 122.684 116.881C122.3 117.051 121.854 117.136 121.346 117.136C120.678 117.136 120.126 116.991 119.688 116.702C119.251 116.412 118.974 115.989 118.857 115.432L119.812 115.193C119.903 115.545 120.075 115.81 120.327 115.986C120.583 116.162 120.917 116.25 121.329 116.25C121.798 116.25 122.17 116.151 122.445 115.952C122.724 115.75 122.863 115.509 122.863 115.227C122.863 115 122.783 114.81 122.624 114.656C122.465 114.5 122.221 114.384 121.891 114.307L120.8 114.051C120.201 113.909 119.761 113.689 119.479 113.391C119.201 113.089 119.062 112.713 119.062 112.261C119.062 111.892 119.165 111.565 119.373 111.281C119.583 110.997 119.869 110.774 120.229 110.612C120.593 110.45 121.005 110.369 121.465 110.369C122.113 110.369 122.621 110.511 122.991 110.795C123.363 111.08 123.627 111.455 123.783 111.92Z" fill="#4F4F4F"/>
<path d="M50.9205 95.3182C49.4962 95.3182 48.2159 95.0455 47.0795 94.5C45.9508 93.947 45.0492 93.1894 44.375 92.2273C43.7008 91.2652 43.3409 90.1667 43.2955 88.9318H46.7045C46.7879 89.9318 47.2311 90.7538 48.0341 91.3977C48.8371 92.0417 49.7992 92.3636 50.9205 92.3636C51.8144 92.3636 52.6061 92.1591 53.2955 91.75C53.9924 91.3333 54.5379 90.7614 54.9318 90.0341C55.3333 89.3068 55.5341 88.4773 55.5341 87.5455C55.5341 86.5985 55.3295 85.7538 54.9205 85.0114C54.5114 84.2689 53.947 83.6856 53.2273 83.2614C52.5152 82.8371 51.697 82.6212 50.7727 82.6136C50.0682 82.6136 49.3598 82.7348 48.6477 82.9773C47.9356 83.2197 47.3598 83.5379 46.9205 83.9318L43.7045 83.4545L45.0114 71.7273H57.8068V74.7386H47.9318L47.1932 81.25H47.3295C47.7841 80.8106 48.3864 80.4432 49.1364 80.1477C49.8939 79.8523 50.7045 79.7045 51.5682 79.7045C52.9848 79.7045 54.2462 80.0417 55.3523 80.7159C56.4659 81.3902 57.3409 82.3106 57.9773 83.4773C58.6212 84.6364 58.9394 85.9697 58.9318 87.4773C58.9394 88.9848 58.5985 90.3295 57.9091 91.5114C57.2273 92.6932 56.2803 93.625 55.0682 94.3068C53.8636 94.9811 52.4811 95.3182 50.9205 95.3182ZM64.5227 95.2159C63.9015 95.2159 63.3674 94.9962 62.9205 94.5568C62.4735 94.1098 62.25 93.572 62.25 92.9432C62.25 92.322 62.4735 91.7917 62.9205 91.3523C63.3674 90.9053 63.9015 90.6818 64.5227 90.6818C65.1439 90.6818 65.678 90.9053 66.125 91.3523C66.572 91.7917 66.7955 92.322 66.7955 92.9432C66.7955 93.3598 66.6894 93.7424 66.4773 94.0909C66.2727 94.4318 66 94.7045 65.6591 94.9091C65.3182 95.1136 64.9394 95.2159 64.5227 95.2159ZM78.7585 71.4091C79.7964 71.4167 80.8191 71.6061 81.8267 71.9773C82.8343 72.3485 83.7434 72.9545 84.554 73.7955C85.3722 74.6364 86.0237 75.7727 86.5085 77.2045C87.0009 78.6288 87.2509 80.4015 87.2585 82.5227C87.2585 84.5606 87.054 86.375 86.6449 87.9659C86.2358 89.5492 85.6487 90.8864 84.8835 91.9773C84.1259 93.0682 83.2055 93.8977 82.1222 94.4659C81.0388 95.0341 79.8191 95.3182 78.4631 95.3182C77.0767 95.3182 75.8456 95.0455 74.7699 94.5C73.6941 93.9545 72.8191 93.2008 72.1449 92.2386C71.4706 91.2689 71.0502 90.1553 70.8835 88.8977H74.3494C74.5767 89.8977 75.0388 90.7083 75.7358 91.3295C76.4403 91.9432 77.3494 92.25 78.4631 92.25C80.1676 92.25 81.4972 91.5076 82.4517 90.0227C83.4063 88.5303 83.8873 86.447 83.8949 83.7727H83.7131C83.3191 84.4242 82.8267 84.9848 82.2358 85.4545C81.6525 85.9242 80.9972 86.2879 80.2699 86.5455C79.5426 86.803 78.7661 86.9318 77.9403 86.9318C76.5994 86.9318 75.3797 86.6023 74.2812 85.9432C73.1828 85.2841 72.3078 84.3788 71.6562 83.2273C71.0047 82.0758 70.679 80.7614 70.679 79.2841C70.679 77.8144 71.0123 76.4811 71.679 75.2841C72.3532 74.0871 73.2926 73.1402 74.4972 72.4432C75.7093 71.7386 77.1297 71.3939 78.7585 71.4091ZM78.7699 74.3636C77.8835 74.3636 77.0843 74.5833 76.3722 75.0227C75.6676 75.4545 75.1108 76.0417 74.7017 76.7841C74.2926 77.5189 74.0881 78.3371 74.0881 79.2386C74.0881 80.1402 74.285 80.9583 74.679 81.6932C75.0805 82.4205 75.6259 83 76.3153 83.4318C77.0123 83.8561 77.8078 84.0682 78.7017 84.0682C79.3684 84.0682 79.9896 83.9394 80.5653 83.6818C81.1411 83.4242 81.6449 83.0682 82.0767 82.6136C82.5085 82.1515 82.8456 81.6288 83.0881 81.0455C83.3305 80.4621 83.4517 79.8485 83.4517 79.2045C83.4517 78.3485 83.2472 77.553 82.8381 76.8182C82.4366 76.0833 81.8835 75.4924 81.179 75.0455C80.4744 74.5909 79.6714 74.3636 78.7699 74.3636ZM99.2273 95.3182C97.5985 95.3182 96.1591 95.0379 94.9091 94.4773C93.6667 93.9167 92.6932 93.1439 91.9886 92.1591C91.2841 91.1742 90.9356 90.053 90.9432 88.7955C90.9356 87.8106 91.1364 86.9053 91.5455 86.0795C91.9621 85.2462 92.5265 84.553 93.2386 84C93.9508 83.4394 94.7462 83.0833 95.625 82.9318V82.7955C94.4659 82.5152 93.5379 81.8939 92.8409 80.9318C92.1439 79.9697 91.7992 78.8636 91.8068 77.6136C91.7992 76.4242 92.1136 75.3636 92.75 74.4318C93.3939 73.4924 94.2765 72.7538 95.3977 72.2159C96.5189 71.678 97.7955 71.4091 99.2273 71.4091C100.644 71.4091 101.909 71.6818 103.023 72.2273C104.144 72.7652 105.027 73.5038 105.67 74.4432C106.314 75.375 106.64 76.4318 106.648 77.6136C106.64 78.8636 106.284 79.9697 105.58 80.9318C104.875 81.8939 103.958 82.5152 102.83 82.7955V82.9318C103.701 83.0833 104.485 83.4394 105.182 84C105.886 84.553 106.447 85.2462 106.864 86.0795C107.288 86.9053 107.504 87.8106 107.511 88.7955C107.504 90.053 107.148 91.1742 106.443 92.1591C105.739 93.1439 104.761 93.9167 103.511 94.4773C102.269 95.0379 100.841 95.3182 99.2273 95.3182ZM99.2273 92.4432C100.189 92.4432 101.023 92.2841 101.727 91.9659C102.432 91.6402 102.977 91.1894 103.364 90.6136C103.75 90.0303 103.947 89.3485 103.955 88.5682C103.947 87.7576 103.735 87.0417 103.318 86.4205C102.909 85.7992 102.352 85.3106 101.648 84.9545C100.943 84.5985 100.136 84.4205 99.2273 84.4205C98.3106 84.4205 97.4962 84.5985 96.7841 84.9545C96.072 85.3106 95.5114 85.7992 95.1023 86.4205C94.6932 87.0417 94.4924 87.7576 94.5 88.5682C94.4924 89.3485 94.678 90.0303 95.0568 90.6136C95.4432 91.1894 95.9924 91.6402 96.7045 91.9659C97.4167 92.2841 98.2576 92.4432 99.2273 92.4432ZM99.2273 81.6136C100 81.6136 100.686 81.4583 101.284 81.1477C101.883 80.8371 102.352 80.4053 102.693 79.8523C103.042 79.2992 103.22 78.6515 103.227 77.9091C103.22 77.1818 103.045 76.5455 102.705 76C102.371 75.4545 101.905 75.0341 101.307 74.7386C100.708 74.4356 100.015 74.2841 99.2273 74.2841C98.4242 74.2841 97.7197 74.4356 97.1136 74.7386C96.5152 75.0341 96.0492 75.4545 95.7159 76C95.3826 76.5455 95.2197 77.1818 95.2273 77.9091C95.2197 78.6515 95.3864 79.2992 95.7273 79.8523C96.0682 80.4053 96.5379 80.8371 97.1364 81.1477C97.7424 81.4583 98.4394 81.6136 99.2273 81.6136ZM112.366 95L122.526 74.9091V74.7386H110.776V71.7273H126.162V74.8409L116.037 95H112.366ZM130.58 91.8182L130.409 93.0568C130.295 93.9659 130.102 94.9129 129.83 95.8977C129.564 96.8902 129.288 97.8106 129 98.6591C128.72 99.5076 128.489 100.182 128.307 100.682H125.898C125.996 100.212 126.133 99.5758 126.307 98.7727C126.481 97.9773 126.652 97.0871 126.818 96.1023C126.985 95.1174 127.11 94.1136 127.193 93.0909L127.307 91.8182H130.58ZM142.591 95.3182C141.03 95.3182 139.636 95.0492 138.409 94.5114C137.189 93.9735 136.223 93.2273 135.511 92.2727C134.807 91.3106 134.428 90.197 134.375 88.9318H137.943C137.989 89.6212 138.22 90.2197 138.636 90.7273C139.061 91.2273 139.614 91.6136 140.295 91.8864C140.977 92.1591 141.735 92.2955 142.568 92.2955C143.485 92.2955 144.295 92.1364 145 91.8182C145.712 91.5 146.269 91.0568 146.67 90.4886C147.072 89.9129 147.273 89.25 147.273 88.5C147.273 87.7197 147.072 87.0341 146.67 86.4432C146.277 85.8447 145.697 85.375 144.932 85.0341C144.174 84.6932 143.258 84.5227 142.182 84.5227H140.216V81.6591H142.182C143.045 81.6591 143.803 81.5038 144.455 81.1932C145.114 80.8826 145.629 80.4508 146 79.8977C146.371 79.3371 146.557 78.6818 146.557 77.9318C146.557 77.2121 146.394 76.5871 146.068 76.0568C145.75 75.5189 145.295 75.0985 144.705 74.7955C144.121 74.4924 143.432 74.3409 142.636 74.3409C141.879 74.3409 141.17 74.4811 140.511 74.7614C139.86 75.0341 139.33 75.428 138.92 75.9432C138.511 76.4508 138.292 77.0606 138.261 77.7727H134.864C134.902 76.5152 135.273 75.4091 135.977 74.4545C136.689 73.5 137.629 72.7538 138.795 72.2159C139.962 71.678 141.258 71.4091 142.682 71.4091C144.174 71.4091 145.462 71.7008 146.545 72.2841C147.636 72.8598 148.477 73.6288 149.068 74.5909C149.667 75.553 149.962 76.6061 149.955 77.75C149.962 79.053 149.598 80.1591 148.864 81.0682C148.136 81.9773 147.167 82.5871 145.955 82.8977V83.0795C147.5 83.3144 148.697 83.928 149.545 84.9205C150.402 85.9129 150.826 87.1439 150.818 88.6136C150.826 89.8939 150.47 91.0417 149.75 92.0568C149.038 93.072 148.064 93.8712 146.83 94.4545C145.595 95.0303 144.182 95.3182 142.591 95.3182ZM154.625 90.4545V87.6136L164.682 71.7273H166.92V75.9091H165.5L158.307 87.2955V87.4773H172.091V90.4545H154.625ZM165.659 95V89.5909L165.682 88.2955V71.7273H169.011V95H165.659Z" fill="#F0F0F0"/>
<rect x="60.5011" y="180.5" width="269" height="166" stroke="#BDBDBD" stroke-dasharray="1 1"/>
<path d="M60.0011 201H330.001" stroke="#BDBDBD" stroke-dasharray="2 2"/>
<path d="M60.0011 222H330.001" stroke="#BDBDBD" stroke-dasharray="2 2"/>
<path d="M60.0011 243H330.001" stroke="#BDBDBD" stroke-dasharray="2 2"/>
<path d="M60.0011 264H330.001" stroke="#BDBDBD" stroke-dasharray="2 2"/>
<path d="M60.0011 285H330.001" stroke="#BDBDBD" stroke-dasharray="2 2"/>
<path d="M60.0011 306H330.001" stroke="#BDBDBD" stroke-dasharray="2 2"/>
<path d="M60.0011 326H330.001" stroke="#BDBDBD" stroke-dasharray="2 2"/>
<path d="M103.001 180L103.001 347.212" stroke="#BDBDBD" stroke-dasharray="2 2"/>
<path d="M80.0011 180L80.0011 347.212" stroke="#BDBDBD" stroke-dasharray="2 2"/>
<path d="M126.001 180L126.001 347.212" stroke="#BDBDBD" stroke-dasharray="2 2"/>
<path d="M149.001 180L149.001 347.212" stroke="#BDBDBD" stroke-dasharray="2 2"/>
<path d="M172.001 180L172.001 347.212" stroke="#BDBDBD" stroke-dasharray="2 2"/>
<path d="M195.001 180L195.001 347.212" stroke="#BDBDBD" stroke-dasharray="2 2"/>
<path d="M218.001 180L218.001 347.212" stroke="#BDBDBD" stroke-dasharray="2 2"/>
<path d="M241.001 180L241.001 347.212" stroke="#BDBDBD" stroke-dasharray="2 2"/>
<path d="M264.001 180L264.001 347.212" stroke="#BDBDBD" stroke-dasharray="2 2"/>
<path d="M287.001 180L287.001 347.212" stroke="#BDBDBD" stroke-dasharray="2 2"/>
<path d="M310.001 180L310.001 347.212" stroke="#BDBDBD" stroke-dasharray="2 2"/>
<path d="M63.2984 353.455H64.091V358.134C64.091 358.551 64.0143 358.906 63.8609 359.198C63.7075 359.49 63.4912 359.711 63.2121 359.863C62.933 360.014 62.6038 360.09 62.2246 360.09C61.8666 360.09 61.5481 360.025 61.2689 359.895C60.9898 359.762 60.7704 359.575 60.6106 359.332C60.4508 359.089 60.3709 358.8 60.3709 358.466H61.1507C61.1507 358.651 61.1965 358.813 61.2881 358.952C61.3819 359.088 61.5097 359.195 61.6716 359.271C61.8336 359.348 62.0179 359.386 62.2246 359.386C62.4525 359.386 62.6464 359.338 62.8062 359.243C62.966 359.147 63.0875 359.006 63.1706 358.821C63.2558 358.633 63.2984 358.404 63.2984 358.134V353.455ZM67.0218 360.115C66.7107 360.115 66.4284 360.056 66.1748 359.939C65.9213 359.82 65.7199 359.648 65.5708 359.425C65.4216 359.199 65.3471 358.926 65.3471 358.607C65.3471 358.325 65.4025 358.097 65.5133 357.923C65.6241 357.746 65.7721 357.607 65.9575 357.507C66.1429 357.407 66.3474 357.332 66.5711 357.283C66.797 357.232 67.0239 357.192 67.2519 357.162C67.5502 357.124 67.792 357.095 67.9774 357.076C68.1649 357.054 68.3013 357.019 68.3865 356.97C68.4738 356.921 68.5175 356.836 68.5175 356.715V356.689C68.5175 356.374 68.4312 356.129 68.2586 355.954C68.0882 355.779 67.8293 355.692 67.482 355.692C67.1219 355.692 66.8396 355.771 66.6351 355.928C66.4305 356.086 66.2867 356.254 66.2036 356.433L65.4877 356.178C65.6155 355.879 65.786 355.647 65.9991 355.481C66.2143 355.313 66.4486 355.195 66.7022 355.129C66.9579 355.061 67.2093 355.027 67.4564 355.027C67.6141 355.027 67.7952 355.046 67.9998 355.085C68.2064 355.121 68.4057 355.196 68.5974 355.311C68.7913 355.427 68.9522 355.6 69.08 355.832C69.2079 356.065 69.2718 356.376 69.2718 356.766V360H68.5175V359.335H68.4792C68.428 359.442 68.3428 359.556 68.2235 359.677C68.1042 359.799 67.9454 359.902 67.7473 359.987C67.5491 360.072 67.3073 360.115 67.0218 360.115ZM67.1368 359.438C67.4351 359.438 67.6866 359.379 67.8911 359.262C68.0978 359.145 68.2533 358.993 68.3577 358.808C68.4643 358.623 68.5175 358.428 68.5175 358.223V357.533C68.4856 357.571 68.4153 357.606 68.3066 357.638C68.2001 357.668 68.0765 357.695 67.9358 357.718C67.7974 357.739 67.6621 357.759 67.53 357.776C67.4 357.791 67.2945 357.803 67.2135 357.814C67.0175 357.84 66.8343 357.881 66.6638 357.939C66.4955 357.994 66.3591 358.078 66.2547 358.191C66.1525 358.302 66.1013 358.453 66.1013 358.645C66.1013 358.907 66.1983 359.105 66.3922 359.239C66.5882 359.371 66.8364 359.438 67.1368 359.438ZM71.4027 357.047V360H70.6485V355.091H71.3772V355.858H71.4411C71.5561 355.609 71.7309 355.408 71.9652 355.257C72.1996 355.104 72.5022 355.027 72.8729 355.027C73.2053 355.027 73.4961 355.095 73.7454 355.232C73.9947 355.366 74.1886 355.57 74.3271 355.845C74.4656 356.118 74.5348 356.463 74.5348 356.881V360H73.7806V356.932C73.7806 356.546 73.6804 356.246 73.4801 356.031C73.2799 355.813 73.005 355.705 72.6556 355.705C72.4148 355.705 72.1996 355.757 72.01 355.861C71.8225 355.966 71.6744 356.118 71.5657 356.318C71.4571 356.518 71.4027 356.761 71.4027 357.047Z" fill="#4F4F4F"/>
<path d="M80.7927 360V353.455H84.7175V354.158H81.5853V356.369H84.4234V357.072H81.5853V360H80.7927ZM87.6706 360.102C87.1976 360.102 86.7895 359.998 86.4465 359.789C86.1056 359.578 85.8425 359.284 85.6571 358.907C85.4738 358.528 85.3822 358.087 85.3822 357.584C85.3822 357.081 85.4738 356.638 85.6571 356.254C85.8425 355.869 86.1003 355.568 86.4305 355.353C86.7629 355.136 87.1507 355.027 87.5939 355.027C87.8496 355.027 88.102 355.07 88.3513 355.155C88.6006 355.24 88.8275 355.379 89.0321 355.57C89.2366 355.76 89.3996 356.011 89.5211 356.325C89.6425 356.638 89.7032 357.023 89.7032 357.482V357.801H85.9192V357.149H88.9362C88.9362 356.872 88.8808 356.625 88.77 356.408C88.6613 356.19 88.5058 356.019 88.3034 355.893C88.1031 355.767 87.8666 355.705 87.5939 355.705C87.2934 355.705 87.0335 355.779 86.814 355.928C86.5967 356.075 86.4295 356.267 86.3123 356.504C86.1951 356.74 86.1365 356.994 86.1365 357.264V357.699C86.1365 358.07 86.2004 358.384 86.3282 358.642C86.4582 358.897 86.6383 359.092 86.8684 359.227C87.0985 359.359 87.3659 359.425 87.6706 359.425C87.8687 359.425 88.0477 359.397 88.2075 359.342C88.3694 359.284 88.509 359.199 88.6262 359.086C88.7434 358.971 88.8339 358.828 88.8978 358.658L89.6265 358.862C89.5498 359.109 89.4209 359.327 89.2398 359.514C89.0587 359.7 88.835 359.844 88.5687 359.949C88.3023 360.051 88.003 360.102 87.6706 360.102ZM90.9529 360V353.455H91.7072V355.871H91.7711C91.8265 355.786 91.9032 355.677 92.0012 355.545C92.1013 355.411 92.2441 355.291 92.4295 355.187C92.617 355.08 92.8705 355.027 93.1901 355.027C93.6035 355.027 93.9678 355.13 94.2831 355.337C94.5985 355.544 94.8446 355.837 95.0214 356.216C95.1983 356.595 95.2867 357.043 95.2867 357.558C95.2867 358.078 95.1983 358.529 95.0214 358.91C94.8446 359.289 94.5996 359.583 94.2863 359.792C93.9731 359.999 93.612 360.102 93.2029 360.102C92.8876 360.102 92.6351 360.05 92.4454 359.946C92.2558 359.839 92.1099 359.719 92.0076 359.585C91.9053 359.448 91.8265 359.335 91.7711 359.246H91.6816V360H90.9529ZM91.6944 357.545C91.6944 357.916 91.7487 358.243 91.8574 358.527C91.966 358.808 92.1248 359.028 92.3336 359.188C92.5424 359.346 92.7981 359.425 93.1006 359.425C93.416 359.425 93.6791 359.342 93.89 359.175C94.1031 359.007 94.2629 358.781 94.3694 358.498C94.4781 358.212 94.5324 357.895 94.5324 357.545C94.5324 357.2 94.4792 356.889 94.3726 356.612C94.2682 356.333 94.1095 356.113 93.8964 355.951C93.6855 355.787 93.4202 355.705 93.1006 355.705C92.7938 355.705 92.536 355.782 92.3272 355.938C92.1184 356.091 91.9607 356.306 91.8542 356.583C91.7476 356.858 91.6944 357.179 91.6944 357.545Z" fill="#4F4F4F"/>
<path d="M103.793 353.455H104.739L106.963 358.888H107.04L109.264 353.455H110.21V360H109.469V355.027H109.405L107.359 360H106.644L104.598 355.027H104.534V360H103.793V353.455ZM113.142 360.115C112.831 360.115 112.549 360.056 112.295 359.939C112.041 359.82 111.84 359.648 111.691 359.425C111.542 359.199 111.467 358.926 111.467 358.607C111.467 358.325 111.523 358.097 111.633 357.923C111.744 357.746 111.892 357.607 112.078 357.507C112.263 357.407 112.468 357.332 112.691 357.283C112.917 357.232 113.144 357.192 113.372 357.162C113.67 357.124 113.912 357.095 114.098 357.076C114.285 357.054 114.421 357.019 114.507 356.97C114.594 356.921 114.638 356.836 114.638 356.715V356.689C114.638 356.374 114.551 356.129 114.379 355.954C114.208 355.779 113.949 355.692 113.602 355.692C113.242 355.692 112.96 355.771 112.755 355.928C112.551 356.086 112.407 356.254 112.324 356.433L111.608 356.178C111.736 355.879 111.906 355.647 112.119 355.481C112.334 355.313 112.569 355.195 112.822 355.129C113.078 355.061 113.329 355.027 113.577 355.027C113.734 355.027 113.915 355.046 114.12 355.085C114.327 355.121 114.526 355.196 114.718 355.311C114.911 355.427 115.072 355.6 115.2 355.832C115.328 356.065 115.392 356.376 115.392 356.766V360H114.638V359.335H114.599C114.548 359.442 114.463 359.556 114.344 359.677C114.224 359.799 114.066 359.902 113.867 359.987C113.669 360.072 113.427 360.115 113.142 360.115ZM113.257 359.438C113.555 359.438 113.807 359.379 114.011 359.262C114.218 359.145 114.373 358.993 114.478 358.808C114.584 358.623 114.638 358.428 114.638 358.223V357.533C114.606 357.571 114.535 357.606 114.427 357.638C114.32 357.668 114.197 357.695 114.056 357.718C113.917 357.739 113.782 357.759 113.65 357.776C113.52 357.791 113.415 357.803 113.334 357.814C113.138 357.84 112.954 357.881 112.784 357.939C112.616 357.994 112.479 358.078 112.375 358.191C112.273 358.302 112.221 358.453 112.221 358.645C112.221 358.907 112.318 359.105 112.512 359.239C112.708 359.371 112.957 359.438 113.257 359.438ZM116.769 360V355.091H117.497V355.832H117.548C117.638 355.59 117.8 355.392 118.034 355.241C118.269 355.09 118.533 355.014 118.827 355.014C118.882 355.014 118.951 355.015 119.035 355.017C119.118 355.02 119.181 355.023 119.223 355.027V355.794C119.198 355.788 119.139 355.778 119.047 355.765C118.958 355.75 118.863 355.743 118.763 355.743C118.524 355.743 118.311 355.793 118.124 355.893C117.938 355.991 117.791 356.128 117.683 356.302C117.576 356.475 117.523 356.672 117.523 356.893V360H116.769Z" fill="#4F4F4F"/>
<path d="M127.061 360H126.23L128.634 353.455H129.452L131.855 360H131.024L129.068 354.49H129.017L127.061 360ZM127.368 357.443H130.717V358.146H127.368V357.443ZM132.772 361.841V355.091H133.501V355.871H133.591C133.646 355.786 133.723 355.677 133.821 355.545C133.921 355.411 134.064 355.291 134.249 355.187C134.437 355.08 134.69 355.027 135.01 355.027C135.423 355.027 135.787 355.13 136.103 355.337C136.418 355.544 136.664 355.837 136.841 356.216C137.018 356.595 137.106 357.043 137.106 357.558C137.106 358.078 137.018 358.529 136.841 358.91C136.664 359.289 136.419 359.583 136.106 359.792C135.793 359.999 135.432 360.102 135.022 360.102C134.707 360.102 134.455 360.05 134.265 359.946C134.075 359.839 133.929 359.719 133.827 359.585C133.725 359.448 133.646 359.335 133.591 359.246H133.527V361.841H132.772ZM133.514 357.545C133.514 357.916 133.568 358.243 133.677 358.527C133.786 358.808 133.944 359.028 134.153 359.188C134.362 359.346 134.618 359.425 134.92 359.425C135.236 359.425 135.499 359.342 135.71 359.175C135.923 359.007 136.083 358.781 136.189 358.498C136.298 358.212 136.352 357.895 136.352 357.545C136.352 357.2 136.299 356.889 136.192 356.612C136.088 356.333 135.929 356.113 135.716 355.951C135.505 355.787 135.24 355.705 134.92 355.705C134.613 355.705 134.356 355.782 134.147 355.938C133.938 356.091 133.78 356.306 133.674 356.583C133.567 356.858 133.514 357.179 133.514 357.545ZM138.257 360V355.091H138.986V355.832H139.037C139.126 355.59 139.288 355.392 139.522 355.241C139.757 355.09 140.021 355.014 140.315 355.014C140.371 355.014 140.44 355.015 140.523 355.017C140.606 355.02 140.669 355.023 140.711 355.027V355.794C140.686 355.788 140.627 355.778 140.536 355.765C140.446 355.75 140.351 355.743 140.251 355.743C140.013 355.743 139.799 355.793 139.612 355.893C139.427 355.991 139.28 356.128 139.171 356.302C139.064 356.475 139.011 356.672 139.011 356.893V360H138.257Z" fill="#4F4F4F"/>
<path d="M149.793 353.455H150.739L152.963 358.888H153.04L155.264 353.455H156.21V360H155.469V355.027H155.405L153.359 360H152.644L150.598 355.027H150.534V360H149.793V353.455ZM159.142 360.115C158.831 360.115 158.549 360.056 158.295 359.939C158.041 359.82 157.84 359.648 157.691 359.425C157.542 359.199 157.467 358.926 157.467 358.607C157.467 358.325 157.523 358.097 157.633 357.923C157.744 357.746 157.892 357.607 158.078 357.507C158.263 357.407 158.468 357.332 158.691 357.283C158.917 357.232 159.144 357.192 159.372 357.162C159.67 357.124 159.912 357.095 160.098 357.076C160.285 357.054 160.421 357.019 160.507 356.97C160.594 356.921 160.638 356.836 160.638 356.715V356.689C160.638 356.374 160.551 356.129 160.379 355.954C160.208 355.779 159.949 355.692 159.602 355.692C159.242 355.692 158.96 355.771 158.755 355.928C158.551 356.086 158.407 356.254 158.324 356.433L157.608 356.178C157.736 355.879 157.906 355.647 158.119 355.481C158.334 355.313 158.569 355.195 158.822 355.129C159.078 355.061 159.329 355.027 159.577 355.027C159.734 355.027 159.915 355.046 160.12 355.085C160.327 355.121 160.526 355.196 160.718 355.311C160.911 355.427 161.072 355.6 161.2 355.832C161.328 356.065 161.392 356.376 161.392 356.766V360H160.638V359.335H160.599C160.548 359.442 160.463 359.556 160.344 359.677C160.224 359.799 160.066 359.902 159.867 359.987C159.669 360.072 159.427 360.115 159.142 360.115ZM159.257 359.438C159.555 359.438 159.807 359.379 160.011 359.262C160.218 359.145 160.373 358.993 160.478 358.808C160.584 358.623 160.638 358.428 160.638 358.223V357.533C160.606 357.571 160.535 357.606 160.427 357.638C160.32 357.668 160.197 357.695 160.056 357.718C159.917 357.739 159.782 357.759 159.65 357.776C159.52 357.791 159.415 357.803 159.334 357.814C159.138 357.84 158.954 357.881 158.784 357.939C158.616 357.994 158.479 358.078 158.375 358.191C158.273 358.302 158.221 358.453 158.221 358.645C158.221 358.907 158.318 359.105 158.512 359.239C158.708 359.371 158.957 359.438 159.257 359.438ZM162.769 360V355.091H163.523V360H162.769ZM163.152 354.273C163.005 354.273 162.878 354.223 162.772 354.123C162.667 354.022 162.615 353.902 162.615 353.761C162.615 353.621 162.667 353.5 162.772 353.4C162.878 353.3 163.005 353.25 163.152 353.25C163.299 353.25 163.425 353.3 163.529 353.4C163.636 353.5 163.689 353.621 163.689 353.761C163.689 353.902 163.636 354.022 163.529 354.123C163.425 354.223 163.299 354.273 163.152 354.273Z" fill="#4F4F4F"/>
<path d="M175.298 353.455H176.091V358.134C176.091 358.551 176.014 358.906 175.861 359.198C175.708 359.49 175.491 359.711 175.212 359.863C174.933 360.014 174.604 360.09 174.225 360.09C173.867 360.09 173.548 360.025 173.269 359.895C172.99 359.762 172.77 359.575 172.611 359.332C172.451 359.089 172.371 358.8 172.371 358.466H173.151C173.151 358.651 173.196 358.813 173.288 358.952C173.382 359.088 173.51 359.195 173.672 359.271C173.834 359.348 174.018 359.386 174.225 359.386C174.453 359.386 174.646 359.338 174.806 359.243C174.966 359.147 175.087 359.006 175.171 358.821C175.256 358.633 175.298 358.404 175.298 358.134V353.455ZM180.671 357.993V355.091H181.425V360H180.671V359.169H180.62C180.505 359.418 180.326 359.63 180.083 359.805C179.84 359.978 179.533 360.064 179.162 360.064C178.856 360.064 178.583 359.997 178.344 359.863C178.106 359.726 177.918 359.522 177.782 359.249C177.645 358.974 177.577 358.628 177.577 358.21V355.091H178.331V358.159C178.331 358.517 178.432 358.803 178.632 359.016C178.834 359.229 179.092 359.335 179.405 359.335C179.593 359.335 179.784 359.287 179.977 359.191C180.173 359.096 180.337 358.949 180.47 358.75C180.604 358.552 180.671 358.3 180.671 357.993ZM183.561 357.047V360H182.807V355.091H183.535V355.858H183.599C183.714 355.609 183.889 355.408 184.123 355.257C184.358 355.104 184.66 355.027 185.031 355.027C185.363 355.027 185.654 355.095 185.904 355.232C186.153 355.366 186.347 355.57 186.485 355.845C186.624 356.118 186.693 356.463 186.693 356.881V360H185.939V356.932C185.939 356.546 185.839 356.246 185.638 356.031C185.438 355.813 185.163 355.705 184.814 355.705C184.573 355.705 184.358 355.757 184.168 355.861C183.981 355.966 183.833 356.118 183.724 356.318C183.615 356.518 183.561 356.761 183.561 357.047Z" fill="#4F4F4F"/>
<path d="M198.298 353.455H199.091V358.134C199.091 358.551 199.014 358.906 198.861 359.198C198.708 359.49 198.491 359.711 198.212 359.863C197.933 360.014 197.604 360.09 197.225 360.09C196.867 360.09 196.548 360.025 196.269 359.895C195.99 359.762 195.77 359.575 195.611 359.332C195.451 359.089 195.371 358.8 195.371 358.466H196.151C196.151 358.651 196.196 358.813 196.288 358.952C196.382 359.088 196.51 359.195 196.672 359.271C196.834 359.348 197.018 359.386 197.225 359.386C197.453 359.386 197.646 359.338 197.806 359.243C197.966 359.147 198.087 359.006 198.171 358.821C198.256 358.633 198.298 358.404 198.298 358.134V353.455ZM203.671 357.993V355.091H204.425V360H203.671V359.169H203.62C203.505 359.418 203.326 359.63 203.083 359.805C202.84 359.978 202.533 360.064 202.162 360.064C201.856 360.064 201.583 359.997 201.344 359.863C201.106 359.726 200.918 359.522 200.782 359.249C200.645 358.974 200.577 358.628 200.577 358.21V355.091H201.331V358.159C201.331 358.517 201.432 358.803 201.632 359.016C201.834 359.229 202.092 359.335 202.405 359.335C202.593 359.335 202.784 359.287 202.977 359.191C203.173 359.096 203.337 358.949 203.47 358.75C203.604 358.552 203.671 358.3 203.671 357.993ZM206.561 353.455V360H205.807V353.455H206.561Z" fill="#4F4F4F"/>
<path d="M219.061 360H218.23L220.634 353.455H221.452L223.855 360H223.024L221.068 354.49H221.017L219.061 360ZM219.368 357.443H222.717V358.146H219.368V357.443ZM227.866 357.993V355.091H228.621V360H227.866V359.169H227.815C227.7 359.418 227.521 359.63 227.278 359.805C227.035 359.978 226.728 360.064 226.358 360.064C226.051 360.064 225.778 359.997 225.54 359.863C225.301 359.726 225.113 359.522 224.977 359.249C224.841 358.974 224.772 358.628 224.772 358.21V355.091H225.527V358.159C225.527 358.517 225.627 358.803 225.827 359.016C226.03 359.229 226.287 359.335 226.601 359.335C226.788 359.335 226.979 359.287 227.173 359.191C227.369 359.096 227.533 358.949 227.665 358.75C227.799 358.552 227.866 358.3 227.866 357.993ZM231.984 361.943C231.619 361.943 231.306 361.896 231.044 361.803C230.782 361.711 230.563 361.59 230.389 361.438C230.216 361.289 230.079 361.129 229.976 360.959L230.577 360.537C230.645 360.626 230.732 360.729 230.836 360.844C230.941 360.961 231.083 361.062 231.264 361.147C231.448 361.235 231.687 361.278 231.984 361.278C232.38 361.278 232.707 361.183 232.965 360.991C233.223 360.799 233.351 360.499 233.351 360.09V359.092H233.287C233.232 359.182 233.153 359.293 233.051 359.425C232.951 359.555 232.806 359.671 232.616 359.773C232.429 359.873 232.175 359.923 231.856 359.923C231.459 359.923 231.104 359.83 230.788 359.642C230.475 359.455 230.227 359.182 230.044 358.824C229.862 358.466 229.772 358.031 229.772 357.52C229.772 357.017 229.86 356.579 230.037 356.206C230.214 355.831 230.46 355.542 230.775 355.337C231.091 355.13 231.455 355.027 231.868 355.027C232.188 355.027 232.442 355.08 232.629 355.187C232.819 355.291 232.964 355.411 233.064 355.545C233.166 355.677 233.245 355.786 233.3 355.871H233.377V355.091H234.106V360.141C234.106 360.563 234.01 360.906 233.818 361.17C233.628 361.436 233.373 361.631 233.051 361.755C232.731 361.88 232.376 361.943 231.984 361.943ZM231.958 359.246C232.261 359.246 232.516 359.177 232.725 359.038C232.934 358.9 233.093 358.7 233.201 358.44C233.31 358.18 233.364 357.869 233.364 357.507C233.364 357.153 233.311 356.841 233.204 356.571C233.098 356.3 232.94 356.088 232.731 355.935C232.523 355.781 232.265 355.705 231.958 355.705C231.638 355.705 231.372 355.786 231.159 355.947C230.948 356.109 230.789 356.327 230.683 356.599C230.578 356.872 230.526 357.175 230.526 357.507C230.526 357.848 230.579 358.15 230.686 358.412C230.795 358.672 230.954 358.876 231.165 359.025C231.378 359.172 231.643 359.246 231.958 359.246Z" fill="#4F4F4F"/>
<path d="M245.372 355.091C245.334 354.767 245.178 354.516 244.906 354.337C244.633 354.158 244.298 354.068 243.902 354.068C243.612 354.068 243.359 354.115 243.141 354.209C242.926 354.303 242.758 354.431 242.636 354.596C242.517 354.76 242.458 354.946 242.458 355.155C242.458 355.33 242.499 355.48 242.582 355.605C242.667 355.729 242.776 355.832 242.908 355.916C243.04 355.996 243.179 356.064 243.324 356.117C243.469 356.168 243.602 356.21 243.723 356.242L244.388 356.42C244.558 356.465 244.748 356.527 244.957 356.606C245.168 356.685 245.369 356.792 245.561 356.929C245.755 357.063 245.915 357.235 246.04 357.446C246.166 357.657 246.229 357.916 246.229 358.223C246.229 358.577 246.136 358.896 245.951 359.182C245.768 359.467 245.499 359.694 245.145 359.863C244.794 360.031 244.367 360.115 243.864 360.115C243.395 360.115 242.989 360.039 242.646 359.888C242.305 359.737 242.037 359.526 241.841 359.255C241.647 358.985 241.537 358.67 241.511 358.313H242.33C242.351 358.56 242.434 358.764 242.579 358.926C242.726 359.086 242.911 359.205 243.135 359.284C243.361 359.361 243.604 359.399 243.864 359.399C244.166 359.399 244.438 359.35 244.679 359.252C244.92 359.152 245.11 359.014 245.251 358.837C245.391 358.658 245.462 358.449 245.462 358.21C245.462 357.993 245.401 357.816 245.28 357.68C245.158 357.543 244.998 357.433 244.8 357.347C244.602 357.262 244.388 357.188 244.158 357.124L243.352 356.893C242.841 356.746 242.436 356.537 242.138 356.264C241.84 355.991 241.69 355.634 241.69 355.193C241.69 354.827 241.79 354.507 241.988 354.234C242.188 353.96 242.456 353.746 242.793 353.595C243.132 353.442 243.51 353.365 243.928 353.365C244.35 353.365 244.725 353.441 245.053 353.592C245.381 353.741 245.641 353.946 245.833 354.206C246.026 354.466 246.129 354.761 246.139 355.091H245.372ZM249.488 360.102C249.015 360.102 248.607 359.998 248.264 359.789C247.923 359.578 247.66 359.284 247.474 358.907C247.291 358.528 247.2 358.087 247.2 357.584C247.2 357.081 247.291 356.638 247.474 356.254C247.66 355.869 247.918 355.568 248.248 355.353C248.58 355.136 248.968 355.027 249.411 355.027C249.667 355.027 249.919 355.07 250.169 355.155C250.418 355.24 250.645 355.379 250.849 355.57C251.054 355.76 251.217 356.011 251.338 356.325C251.46 356.638 251.521 357.023 251.521 357.482V357.801H247.737V357.149H250.754C250.754 356.872 250.698 356.625 250.587 356.408C250.479 356.19 250.323 356.019 250.121 355.893C249.92 355.767 249.684 355.705 249.411 355.705C249.111 355.705 248.851 355.779 248.631 355.928C248.414 356.075 248.247 356.267 248.13 356.504C248.012 356.74 247.954 356.994 247.954 357.264V357.699C247.954 358.07 248.018 358.384 248.146 358.642C248.276 358.897 248.456 359.092 248.686 359.227C248.916 359.359 249.183 359.425 249.488 359.425C249.686 359.425 249.865 359.397 250.025 359.342C250.187 359.284 250.326 359.199 250.444 359.086C250.561 358.971 250.651 358.828 250.715 358.658L251.444 358.862C251.367 359.109 251.238 359.327 251.057 359.514C250.876 359.7 250.652 359.844 250.386 359.949C250.12 360.051 249.82 360.102 249.488 360.102ZM252.668 361.841V355.091H253.397V355.871H253.486C253.542 355.786 253.618 355.677 253.716 355.545C253.816 355.411 253.959 355.291 254.145 355.187C254.332 355.08 254.586 355.027 254.905 355.027C255.319 355.027 255.683 355.13 255.998 355.337C256.314 355.544 256.56 355.837 256.737 356.216C256.913 356.595 257.002 357.043 257.002 357.558C257.002 358.078 256.913 358.529 256.737 358.91C256.56 359.289 256.315 359.583 256.001 359.792C255.688 359.999 255.327 360.102 254.918 360.102C254.603 360.102 254.35 360.05 254.161 359.946C253.971 359.839 253.825 359.719 253.723 359.585C253.62 359.448 253.542 359.335 253.486 359.246H253.422V361.841H252.668ZM253.409 357.545C253.409 357.916 253.464 358.243 253.572 358.527C253.681 358.808 253.84 359.028 254.049 359.188C254.257 359.346 254.513 359.425 254.816 359.425C255.131 359.425 255.394 359.342 255.605 359.175C255.818 359.007 255.978 358.781 256.085 358.498C256.193 358.212 256.248 357.895 256.248 357.545C256.248 357.2 256.194 356.889 256.088 356.612C255.983 356.333 255.825 356.113 255.612 355.951C255.401 355.787 255.135 355.705 254.816 355.705C254.509 355.705 254.251 355.782 254.042 355.938C253.833 356.091 253.676 356.306 253.569 356.583C253.463 356.858 253.409 357.179 253.409 357.545Z" fill="#4F4F4F"/>
<path d="M270.315 356.727C270.315 357.418 270.191 358.014 269.942 358.517C269.692 359.02 269.35 359.408 268.916 359.68C268.481 359.953 267.984 360.09 267.426 360.09C266.868 360.09 266.372 359.953 265.937 359.68C265.502 359.408 265.16 359.02 264.911 358.517C264.662 358.014 264.537 357.418 264.537 356.727C264.537 356.037 264.662 355.44 264.911 354.938C265.16 354.435 265.502 354.047 265.937 353.774C266.372 353.501 266.868 353.365 267.426 353.365C267.984 353.365 268.481 353.501 268.916 353.774C269.35 354.047 269.692 354.435 269.942 354.938C270.191 355.44 270.315 356.037 270.315 356.727ZM269.548 356.727C269.548 356.161 269.454 355.682 269.264 355.292C269.076 354.902 268.822 354.607 268.5 354.407C268.181 354.207 267.823 354.107 267.426 354.107C267.03 354.107 266.671 354.207 266.349 354.407C266.03 354.607 265.775 354.902 265.585 355.292C265.398 355.682 265.304 356.161 265.304 356.727C265.304 357.294 265.398 357.772 265.585 358.162C265.775 358.552 266.03 358.847 266.349 359.048C266.671 359.248 267.03 359.348 267.426 359.348C267.823 359.348 268.181 359.248 268.5 359.048C268.822 358.847 269.076 358.552 269.264 358.162C269.454 357.772 269.548 357.294 269.548 356.727ZM273.54 360.102C273.08 360.102 272.684 359.994 272.351 359.776C272.019 359.559 271.763 359.26 271.584 358.878C271.405 358.497 271.316 358.061 271.316 357.571C271.316 357.072 271.407 356.632 271.591 356.251C271.776 355.868 272.034 355.568 272.364 355.353C272.696 355.136 273.084 355.027 273.527 355.027C273.873 355.027 274.184 355.091 274.461 355.219C274.738 355.347 274.965 355.526 275.141 355.756C275.318 355.986 275.428 356.254 275.471 356.561H274.716C274.659 356.337 274.531 356.139 274.333 355.967C274.137 355.792 273.873 355.705 273.54 355.705C273.246 355.705 272.988 355.781 272.767 355.935C272.547 356.086 272.376 356.3 272.252 356.577C272.131 356.852 272.07 357.175 272.07 357.545C272.07 357.925 272.13 358.255 272.249 358.536C272.371 358.818 272.541 359.036 272.76 359.191C272.982 359.347 273.242 359.425 273.54 359.425C273.736 359.425 273.914 359.391 274.074 359.322C274.234 359.254 274.369 359.156 274.48 359.028C274.591 358.901 274.67 358.747 274.716 358.568H275.471C275.428 358.858 275.323 359.119 275.154 359.351C274.988 359.581 274.768 359.765 274.493 359.901C274.22 360.035 273.902 360.102 273.54 360.102ZM278.708 355.091V355.73H276.164V355.091H278.708ZM276.906 353.915H277.66V358.594C277.66 358.807 277.691 358.967 277.753 359.073C277.817 359.178 277.897 359.248 277.996 359.284C278.096 359.318 278.201 359.335 278.312 359.335C278.395 359.335 278.463 359.331 278.516 359.322C278.57 359.312 278.612 359.303 278.644 359.297L278.798 359.974C278.747 359.994 278.675 360.013 278.584 360.032C278.492 360.053 278.376 360.064 278.235 360.064C278.022 360.064 277.813 360.018 277.609 359.927C277.406 359.835 277.238 359.695 277.104 359.508C276.972 359.32 276.906 359.084 276.906 358.798V353.915Z" fill="#4F4F4F"/>
<path d="M292.983 353.455V360H292.216L288.649 354.861H288.585V360H287.793V353.455H288.56L292.139 358.607H292.203V353.455H292.983ZM296.461 360.102C296.018 360.102 295.629 359.997 295.295 359.786C294.962 359.575 294.702 359.28 294.515 358.901C294.329 358.521 294.237 358.078 294.237 357.571C294.237 357.06 294.329 356.613 294.515 356.232C294.702 355.851 294.962 355.554 295.295 355.343C295.629 355.132 296.018 355.027 296.461 355.027C296.904 355.027 297.292 355.132 297.625 355.343C297.959 355.554 298.219 355.851 298.404 356.232C298.592 356.613 298.686 357.06 298.686 357.571C298.686 358.078 298.592 358.521 298.404 358.901C298.219 359.28 297.959 359.575 297.625 359.786C297.292 359.997 296.904 360.102 296.461 360.102ZM296.461 359.425C296.798 359.425 297.075 359.338 297.292 359.166C297.509 358.993 297.67 358.766 297.775 358.485C297.879 358.204 297.931 357.899 297.931 357.571C297.931 357.243 297.879 356.937 297.775 356.654C297.67 356.37 297.509 356.141 297.292 355.967C297.075 355.792 296.798 355.705 296.461 355.705C296.125 355.705 295.848 355.792 295.63 355.967C295.413 356.141 295.252 356.37 295.148 356.654C295.043 356.937 294.991 357.243 294.991 357.571C294.991 357.899 295.043 358.204 295.148 358.485C295.252 358.766 295.413 358.993 295.63 359.166C295.848 359.338 296.125 359.425 296.461 359.425ZM303.675 355.091L301.86 360H301.093L299.278 355.091H300.096L301.451 359.003H301.502L302.857 355.091H303.675Z" fill="#4F4F4F"/>
<path d="M312.813 360H310.793V353.455H312.902C313.537 353.455 314.08 353.586 314.532 353.848C314.984 354.108 315.33 354.482 315.571 354.969C315.812 355.455 315.932 356.037 315.932 356.715C315.932 357.396 315.81 357.983 315.568 358.476C315.325 358.966 314.971 359.343 314.507 359.607C314.042 359.869 313.477 360 312.813 360ZM311.585 359.297H312.761C313.303 359.297 313.751 359.193 314.107 358.984C314.463 358.775 314.728 358.478 314.903 358.092C315.078 357.706 315.165 357.247 315.165 356.715C315.165 356.186 315.079 355.731 314.906 355.35C314.733 354.966 314.476 354.672 314.133 354.468C313.79 354.261 313.362 354.158 312.851 354.158H311.585V359.297ZM319.217 360.102C318.744 360.102 318.336 359.998 317.993 359.789C317.652 359.578 317.389 359.284 317.204 358.907C317.021 358.528 316.929 358.087 316.929 357.584C316.929 357.081 317.021 356.638 317.204 356.254C317.389 355.869 317.647 355.568 317.977 355.353C318.31 355.136 318.698 355.027 319.141 355.027C319.396 355.027 319.649 355.07 319.898 355.155C320.147 355.24 320.374 355.379 320.579 355.57C320.784 355.76 320.947 356.011 321.068 356.325C321.189 356.638 321.25 357.023 321.25 357.482V357.801H317.466V357.149H320.483C320.483 356.872 320.428 356.625 320.317 356.408C320.208 356.19 320.053 356.019 319.85 355.893C319.65 355.767 319.413 355.705 319.141 355.705C318.84 355.705 318.58 355.779 318.361 355.928C318.144 356.075 317.976 356.267 317.859 356.504C317.742 356.74 317.683 356.994 317.683 357.264V357.699C317.683 358.07 317.747 358.384 317.875 358.642C318.005 358.897 318.185 359.092 318.415 359.227C318.645 359.359 318.913 359.425 319.217 359.425C319.416 359.425 319.595 359.397 319.754 359.342C319.916 359.284 320.056 359.199 320.173 359.086C320.29 358.971 320.381 358.828 320.445 358.658L321.173 358.862C321.097 359.109 320.968 359.327 320.787 359.514C320.606 359.7 320.382 359.844 320.116 359.949C319.849 360.051 319.55 360.102 319.217 360.102ZM324.392 360.102C323.932 360.102 323.535 359.994 323.203 359.776C322.871 359.559 322.615 359.26 322.436 358.878C322.257 358.497 322.167 358.061 322.167 357.571C322.167 357.072 322.259 356.632 322.442 356.251C322.628 355.868 322.885 355.568 323.216 355.353C323.548 355.136 323.936 355.027 324.379 355.027C324.724 355.027 325.035 355.091 325.312 355.219C325.589 355.347 325.816 355.526 325.993 355.756C326.17 355.986 326.28 356.254 326.322 356.561H325.568C325.51 356.337 325.383 356.139 325.184 355.967C324.988 355.792 324.724 355.705 324.392 355.705C324.098 355.705 323.84 355.781 323.618 355.935C323.399 356.086 323.227 356.3 323.104 356.577C322.982 356.852 322.922 357.175 322.922 357.545C322.922 357.925 322.981 358.255 323.101 358.536C323.222 358.818 323.393 359.036 323.612 359.191C323.834 359.347 324.094 359.425 324.392 359.425C324.588 359.425 324.766 359.391 324.926 359.322C325.085 359.254 325.221 359.156 325.331 359.028C325.442 358.901 325.521 358.747 325.568 358.568H326.322C326.28 358.858 326.174 359.119 326.006 359.351C325.84 359.581 325.619 359.765 325.344 359.901C325.072 360.035 324.754 360.102 324.392 360.102Z" fill="#4F4F4F"/>
<path d="M49.1876 346.089C48.7061 346.089 48.2959 345.958 47.9572 345.696C47.6184 345.432 47.3595 345.05 47.1805 344.549C47.0015 344.046 46.9121 343.439 46.9121 342.727C46.9121 342.02 47.0015 341.416 47.1805 340.915C47.3616 340.412 47.6216 340.029 47.9603 339.765C48.3013 339.498 48.7103 339.365 49.1876 339.365C49.6649 339.365 50.0729 339.498 50.4117 339.765C50.7526 340.029 51.0126 340.412 51.1915 340.915C51.3726 341.416 51.4632 342.02 51.4632 342.727C51.4632 343.439 51.3737 344.046 51.1947 344.549C51.0157 345.05 50.7569 345.432 50.4181 345.696C50.0793 345.958 49.6692 346.089 49.1876 346.089ZM49.1876 345.386C49.6649 345.386 50.0356 345.156 50.2998 344.696C50.564 344.236 50.6961 343.58 50.6961 342.727C50.6961 342.161 50.6354 341.678 50.514 341.279C50.3947 340.881 50.2221 340.577 49.9962 340.369C49.7725 340.16 49.503 340.055 49.1876 340.055C48.7146 340.055 48.3449 340.289 48.0786 340.755C47.8123 341.22 47.6791 341.877 47.6791 342.727C47.6791 343.294 47.7388 343.776 47.8581 344.172C47.9774 344.568 48.1489 344.87 48.3726 345.076C48.5985 345.283 48.8702 345.386 49.1876 345.386Z" fill="#4F4F4F"/>
<path d="M37.7786 319.455V326H36.986V320.286H36.9477L35.3496 321.347V320.541L36.986 319.455H37.7786ZM39.8369 326.051C39.6792 326.051 39.5439 325.995 39.431 325.882C39.318 325.769 39.2616 325.634 39.2616 325.476C39.2616 325.318 39.318 325.183 39.431 325.07C39.5439 324.957 39.6792 324.901 39.8369 324.901C39.9945 324.901 40.1298 324.957 40.2428 325.07C40.3557 325.183 40.4121 325.318 40.4121 325.476C40.4121 325.58 40.3855 325.676 40.3322 325.763C40.2811 325.851 40.2119 325.921 40.1245 325.974C40.0393 326.026 39.9434 326.051 39.8369 326.051ZM41.7529 326V325.425L43.9134 323.06C44.1669 322.783 44.3757 322.542 44.5398 322.337C44.7039 322.131 44.8253 321.937 44.9042 321.756C44.9851 321.572 45.0256 321.381 45.0256 321.18C45.0256 320.95 44.9702 320.751 44.8594 320.583C44.7507 320.414 44.6016 320.284 44.412 320.193C44.2223 320.101 44.0093 320.055 43.7728 320.055C43.5213 320.055 43.3019 320.108 43.1144 320.212C42.929 320.314 42.7852 320.458 42.6829 320.643C42.5828 320.829 42.5327 321.046 42.5327 321.295H41.7784C41.7784 320.912 41.8669 320.575 42.0437 320.286C42.2206 319.996 42.4613 319.77 42.766 319.608C43.0728 319.446 43.4169 319.365 43.7983 319.365C44.1819 319.365 44.5217 319.446 44.8179 319.608C45.114 319.77 45.3463 319.988 45.5146 320.263C45.6829 320.538 45.7671 320.844 45.7671 321.18C45.7671 321.421 45.7234 321.657 45.636 321.887C45.5508 322.115 45.4017 322.369 45.1886 322.651C44.9777 322.93 44.6847 323.271 44.3097 323.673L42.8395 325.246V325.297H45.8821V326H41.7529ZM49.2475 326.089C48.8725 326.089 48.5348 326.015 48.2344 325.866C47.934 325.717 47.6932 325.512 47.5121 325.252C47.331 324.992 47.2319 324.696 47.2149 324.364H47.9819C48.0118 324.66 48.146 324.905 48.3846 325.099C48.6254 325.29 48.913 325.386 49.2475 325.386C49.516 325.386 49.7546 325.324 49.9635 325.198C50.1744 325.072 50.3395 324.9 50.4588 324.68C50.5803 324.458 50.641 324.208 50.641 323.929C50.641 323.643 50.5782 323.389 50.4524 323.165C50.3289 322.939 50.1584 322.761 49.9411 322.631C49.7238 322.501 49.4755 322.435 49.1964 322.433C48.9961 322.431 48.7905 322.462 48.5796 322.526C48.3686 322.588 48.195 322.668 48.0586 322.766L47.3171 322.676L47.7135 319.455H51.114V320.158H48.3782L48.1481 322.088H48.1865C48.3207 321.982 48.489 321.893 48.6914 321.823C48.8939 321.752 49.1048 321.717 49.3243 321.717C49.7248 321.717 50.0817 321.813 50.3949 322.005C50.7103 322.195 50.9574 322.455 51.1364 322.785C51.3175 323.115 51.4081 323.492 51.4081 323.916C51.4081 324.334 51.3143 324.707 51.1268 325.035C50.9414 325.361 50.6858 325.619 50.3598 325.808C50.0338 325.996 49.663 326.089 49.2475 326.089Z" fill="#4F4F4F"/>
<path d="M39.4062 305V304.425L41.5667 302.06C41.8203 301.783 42.0291 301.542 42.1931 301.337C42.3572 301.131 42.4786 300.937 42.5575 300.756C42.6384 300.572 42.6789 300.381 42.6789 300.18C42.6789 299.95 42.6235 299.751 42.5127 299.583C42.4041 299.414 42.2549 299.284 42.0653 299.193C41.8757 299.101 41.6626 299.055 41.4261 299.055C41.1747 299.055 40.9552 299.108 40.7677 299.212C40.5823 299.314 40.4385 299.458 40.3362 299.643C40.2361 299.829 40.186 300.046 40.186 300.295H39.4318C39.4318 299.912 39.5202 299.575 39.697 299.286C39.8739 298.996 40.1146 298.77 40.4193 298.608C40.7262 298.446 41.0703 298.365 41.4516 298.365C41.8352 298.365 42.175 298.446 42.4712 298.608C42.7673 298.77 42.9996 298.988 43.1679 299.263C43.3362 299.538 43.4204 299.844 43.4204 300.18C43.4204 300.421 43.3767 300.657 43.2894 300.887C43.2041 301.115 43.055 301.369 42.8419 301.651C42.631 301.93 42.338 302.271 41.963 302.673L40.4928 304.246V304.297H43.5355V305H39.4062ZM45.4179 305.051C45.2602 305.051 45.1249 304.995 45.012 304.882C44.8991 304.769 44.8426 304.634 44.8426 304.476C44.8426 304.318 44.8991 304.183 45.012 304.07C45.1249 303.957 45.2602 303.901 45.4179 303.901C45.5756 303.901 45.7109 303.957 45.8238 304.07C45.9367 304.183 45.9932 304.318 45.9932 304.476C45.9932 304.58 45.9666 304.676 45.9133 304.763C45.8622 304.851 45.7929 304.921 45.7056 304.974C45.6203 305.026 45.5244 305.051 45.4179 305.051ZM49.2475 305.089C48.8725 305.089 48.5348 305.015 48.2344 304.866C47.934 304.717 47.6932 304.512 47.5121 304.252C47.331 303.992 47.2319 303.696 47.2149 303.364H47.9819C48.0118 303.66 48.146 303.905 48.3846 304.099C48.6254 304.29 48.913 304.386 49.2475 304.386C49.516 304.386 49.7546 304.324 49.9635 304.198C50.1744 304.072 50.3395 303.9 50.4588 303.68C50.5803 303.458 50.641 303.208 50.641 302.929C50.641 302.643 50.5782 302.389 50.4524 302.165C50.3289 301.939 50.1584 301.761 49.9411 301.631C49.7238 301.501 49.4755 301.435 49.1964 301.433C48.9961 301.431 48.7905 301.462 48.5796 301.526C48.3686 301.588 48.195 301.668 48.0586 301.766L47.3171 301.676L47.7135 298.455H51.114V299.158H48.3782L48.1481 301.088H48.1865C48.3207 300.982 48.489 300.893 48.6914 300.823C48.8939 300.752 49.1048 300.717 49.3243 300.717C49.7248 300.717 50.0817 300.813 50.3949 301.005C50.7103 301.195 50.9574 301.455 51.1364 301.785C51.3175 302.115 51.4081 302.492 51.4081 302.916C51.4081 303.334 51.3143 303.707 51.1268 304.035C50.9414 304.361 50.6858 304.619 50.3598 304.808C50.0338 304.996 49.663 305.089 49.2475 305.089Z" fill="#4F4F4F"/>
<path d="M36.485 284.089C36.0632 284.089 35.6871 284.017 35.3568 283.872C35.0287 283.727 34.7677 283.526 34.5738 283.268C34.382 283.008 34.2776 282.707 34.2606 282.364H35.066C35.083 282.575 35.1555 282.757 35.2833 282.91C35.4112 283.061 35.5784 283.179 35.7851 283.262C35.9918 283.345 36.2208 283.386 36.4722 283.386C36.7535 283.386 37.0028 283.337 37.2201 283.239C37.4374 283.141 37.6079 283.005 37.7315 282.83C37.8551 282.656 37.9168 282.453 37.9168 282.223C37.9168 281.982 37.8572 281.77 37.7379 281.587C37.6186 281.402 37.4438 281.257 37.2137 281.152C36.9836 281.048 36.7024 280.996 36.37 280.996H35.8458V280.293H36.37C36.6299 280.293 36.8579 280.246 37.0539 280.152C37.2521 280.058 37.4065 279.926 37.5173 279.756C37.6303 279.585 37.6867 279.385 37.6867 279.155C37.6867 278.933 37.6377 278.74 37.5397 278.576C37.4417 278.412 37.3032 278.284 37.1242 278.193C36.9474 278.101 36.7386 278.055 36.4978 278.055C36.272 278.055 36.0589 278.097 35.8586 278.18C35.6605 278.261 35.4985 278.379 35.3728 278.535C35.2471 278.688 35.1789 278.874 35.1683 279.091H34.4012C34.414 278.748 34.5173 278.447 34.7112 278.19C34.9051 277.93 35.1587 277.727 35.4719 277.582C35.7872 277.437 36.1335 277.365 36.5106 277.365C36.9154 277.365 37.2627 277.447 37.5525 277.611C37.8423 277.773 38.0649 277.987 38.2205 278.254C38.376 278.52 38.4538 278.808 38.4538 279.116C38.4538 279.485 38.3568 279.799 38.1629 280.059C37.9712 280.319 37.7102 280.499 37.3799 280.599V280.651C37.7933 280.719 38.1161 280.895 38.3483 281.178C38.5806 281.459 38.6967 281.808 38.6967 282.223C38.6967 282.579 38.5997 282.898 38.4058 283.182C38.2141 283.463 37.952 283.685 37.6196 283.847C37.2872 284.009 36.909 284.089 36.485 284.089ZM40.3642 284.051C40.2065 284.051 40.0712 283.995 39.9583 283.882C39.8454 283.769 39.7889 283.634 39.7889 283.476C39.7889 283.318 39.8454 283.183 39.9583 283.07C40.0712 282.957 40.2065 282.901 40.3642 282.901C40.5219 282.901 40.6572 282.957 40.7701 283.07C40.883 283.183 40.9395 283.318 40.9395 283.476C40.9395 283.58 40.9129 283.676 40.8596 283.763C40.8084 283.851 40.7392 283.921 40.6518 283.974C40.5666 284.026 40.4707 284.051 40.3642 284.051ZM42.3529 284L45.2805 278.209V278.158H41.9055V277.455H46.0987V278.196L43.1839 284H42.3529ZM49.2475 284.089C48.8725 284.089 48.5348 284.015 48.2344 283.866C47.934 283.717 47.6932 283.512 47.5121 283.252C47.331 282.992 47.2319 282.696 47.2149 282.364H47.9819C48.0118 282.66 48.146 282.905 48.3846 283.099C48.6254 283.29 48.913 283.386 49.2475 283.386C49.516 283.386 49.7546 283.324 49.9635 283.198C50.1744 283.072 50.3395 282.9 50.4588 282.68C50.5803 282.458 50.641 282.208 50.641 281.929C50.641 281.643 50.5782 281.389 50.4524 281.165C50.3289 280.939 50.1584 280.761 49.9411 280.631C49.7238 280.501 49.4755 280.435 49.1964 280.433C48.9961 280.431 48.7905 280.462 48.5796 280.526C48.3686 280.588 48.195 280.668 48.0586 280.766L47.3171 280.676L47.7135 277.455H51.114V278.158H48.3782L48.1481 280.088H48.1865C48.3207 279.982 48.489 279.893 48.6914 279.823C48.8939 279.752 49.1048 279.717 49.3243 279.717C49.7248 279.717 50.0817 279.813 50.3949 280.005C50.7103 280.195 50.9574 280.455 51.1364 280.785C51.3175 281.115 51.4081 281.492 51.4081 281.916C51.4081 282.334 51.3143 282.707 51.1268 283.035C50.9414 283.361 50.6858 283.619 50.3598 283.808C50.0338 283.996 49.663 284.089 49.2475 284.089Z" fill="#4F4F4F"/>
<path d="M49.2475 263.089C48.8725 263.089 48.5348 263.015 48.2344 262.866C47.934 262.717 47.6932 262.512 47.5121 262.252C47.331 261.992 47.2319 261.696 47.2149 261.364H47.9819C48.0118 261.66 48.146 261.905 48.3846 262.099C48.6254 262.29 48.913 262.386 49.2475 262.386C49.516 262.386 49.7546 262.324 49.9635 262.198C50.1744 262.072 50.3395 261.9 50.4588 261.68C50.5803 261.458 50.641 261.208 50.641 260.929C50.641 260.643 50.5782 260.389 50.4524 260.165C50.3289 259.939 50.1584 259.761 49.9411 259.631C49.7238 259.501 49.4755 259.435 49.1964 259.433C48.9961 259.431 48.7905 259.462 48.5796 259.526C48.3686 259.588 48.195 259.668 48.0586 259.766L47.3171 259.676L47.7135 256.455H51.114V257.158H48.3782L48.1481 259.088H48.1865C48.3207 258.982 48.489 258.893 48.6914 258.823C48.8939 258.752 49.1048 258.717 49.3243 258.717C49.7248 258.717 50.0817 258.813 50.3949 259.005C50.7103 259.195 50.9574 259.455 51.1364 259.785C51.3175 260.115 51.4081 260.492 51.4081 260.916C51.4081 261.334 51.3143 261.707 51.1268 262.035C50.9414 262.361 50.6858 262.619 50.3598 262.808C50.0338 262.996 49.663 263.089 49.2475 263.089Z" fill="#4F4F4F"/>
<path d="M36.1391 242.089C35.8706 242.085 35.6021 242.034 35.3337 241.936C35.0652 241.838 34.8202 241.673 34.5986 241.441C34.377 241.206 34.1991 240.89 34.0648 240.491C33.9306 240.091 33.8635 239.588 33.8635 238.983C33.8635 238.403 33.9178 237.89 34.0265 237.442C34.1352 236.993 34.2928 236.615 34.4995 236.308C34.7062 235.999 34.9555 235.765 35.2474 235.605C35.5414 235.445 35.8727 235.365 36.2413 235.365C36.6078 235.365 36.9338 235.439 37.2193 235.586C37.507 235.73 37.7413 235.933 37.9224 236.193C38.1035 236.453 38.2207 236.752 38.274 237.091H37.4942C37.4217 236.797 37.2811 236.553 37.0723 236.359C36.8635 236.165 36.5865 236.068 36.2413 236.068C35.7342 236.068 35.3347 236.289 35.0428 236.73C34.7531 237.171 34.6071 237.79 34.605 238.587H34.6561C34.7754 238.406 34.9171 238.251 35.0812 238.123C35.2474 237.993 35.4306 237.893 35.6309 237.823C35.8312 237.752 36.0432 237.717 36.2669 237.717C36.6419 237.717 36.9849 237.811 37.296 237.999C37.6071 238.184 37.8564 238.441 38.0439 238.769C38.2314 239.095 38.3251 239.469 38.3251 239.891C38.3251 240.295 38.2346 240.666 38.0535 241.003C37.8724 241.337 37.6178 241.604 37.2896 241.802C36.9636 241.998 36.5801 242.094 36.1391 242.089ZM36.1391 241.386C36.4075 241.386 36.6483 241.319 36.8614 241.185C37.0766 241.051 37.2459 240.871 37.3695 240.645C37.4952 240.419 37.5581 240.168 37.5581 239.891C37.5581 239.62 37.4974 239.374 37.3759 239.152C37.2566 238.929 37.0915 238.751 36.8805 238.619C36.6717 238.487 36.4331 238.42 36.1646 238.42C35.9622 238.42 35.7736 238.461 35.5989 238.542C35.4242 238.621 35.2708 238.729 35.1387 238.868C35.0087 239.006 34.9065 239.165 34.8319 239.344C34.7573 239.521 34.72 239.707 34.72 239.903C34.72 240.163 34.7808 240.406 34.9022 240.632C35.0258 240.858 35.1941 241.04 35.4072 241.179C35.6224 241.317 35.8663 241.386 36.1391 241.386ZM39.8369 242.051C39.6792 242.051 39.5439 241.995 39.431 241.882C39.318 241.769 39.2616 241.634 39.2616 241.476C39.2616 241.318 39.318 241.183 39.431 241.07C39.5439 240.957 39.6792 240.901 39.8369 240.901C39.9945 240.901 40.1298 240.957 40.2428 241.07C40.3557 241.183 40.4121 241.318 40.4121 241.476C40.4121 241.58 40.3855 241.676 40.3322 241.763C40.2811 241.851 40.2119 241.921 40.1245 241.974C40.0393 242.026 39.9434 242.051 39.8369 242.051ZM41.7529 242V241.425L43.9134 239.06C44.1669 238.783 44.3757 238.542 44.5398 238.337C44.7039 238.131 44.8253 237.937 44.9042 237.756C44.9851 237.572 45.0256 237.381 45.0256 237.18C45.0256 236.95 44.9702 236.751 44.8594 236.583C44.7507 236.414 44.6016 236.284 44.412 236.193C44.2223 236.101 44.0093 236.055 43.7728 236.055C43.5213 236.055 43.3019 236.108 43.1144 236.212C42.929 236.314 42.7852 236.458 42.6829 236.643C42.5828 236.829 42.5327 237.046 42.5327 237.295H41.7784C41.7784 236.912 41.8669 236.575 42.0437 236.286C42.2206 235.996 42.4613 235.77 42.766 235.608C43.0728 235.446 43.4169 235.365 43.7983 235.365C44.1819 235.365 44.5217 235.446 44.8179 235.608C45.114 235.77 45.3463 235.988 45.5146 236.263C45.6829 236.538 45.7671 236.844 45.7671 237.18C45.7671 237.421 45.7234 237.657 45.636 237.887C45.5508 238.115 45.4017 238.369 45.1886 238.651C44.9777 238.93 44.6847 239.271 44.3097 239.673L42.8395 241.246V241.297H45.8821V242H41.7529ZM49.2475 242.089C48.8725 242.089 48.5348 242.015 48.2344 241.866C47.934 241.717 47.6932 241.512 47.5121 241.252C47.331 240.992 47.2319 240.696 47.2149 240.364H47.9819C48.0118 240.66 48.146 240.905 48.3846 241.099C48.6254 241.29 48.913 241.386 49.2475 241.386C49.516 241.386 49.7546 241.324 49.9635 241.198C50.1744 241.072 50.3395 240.9 50.4588 240.68C50.5803 240.458 50.641 240.208 50.641 239.929C50.641 239.643 50.5782 239.389 50.4524 239.165C50.3289 238.939 50.1584 238.761 49.9411 238.631C49.7238 238.501 49.4755 238.435 49.1964 238.433C48.9961 238.431 48.7905 238.462 48.5796 238.526C48.3686 238.588 48.195 238.668 48.0586 238.766L47.3171 238.676L47.7135 235.455H51.114V236.158H48.3782L48.1481 238.088H48.1865C48.3207 237.982 48.489 237.893 48.6914 237.823C48.8939 237.752 49.1048 237.717 49.3243 237.717C49.7248 237.717 50.0817 237.813 50.3949 238.005C50.7103 238.195 50.9574 238.455 51.1364 238.785C51.3175 239.115 51.4081 239.492 51.4081 239.916C51.4081 240.334 51.3143 240.707 51.1268 241.035C50.9414 241.361 50.6858 241.619 50.3598 241.808C50.0338 241.996 49.663 242.089 49.2475 242.089Z" fill="#4F4F4F"/>
<path d="M41.0434 222L43.9709 216.209V216.158H40.5959V215.455H44.7891V216.196L41.8743 222H41.0434ZM45.4179 222.051C45.2602 222.051 45.1249 221.995 45.012 221.882C44.8991 221.769 44.8426 221.634 44.8426 221.476C44.8426 221.318 44.8991 221.183 45.012 221.07C45.1249 220.957 45.2602 220.901 45.4179 220.901C45.5756 220.901 45.7109 220.957 45.8238 221.07C45.9367 221.183 45.9932 221.318 45.9932 221.476C45.9932 221.58 45.9666 221.676 45.9133 221.763C45.8622 221.851 45.7929 221.921 45.7056 221.974C45.6203 222.026 45.5244 222.051 45.4179 222.051ZM49.2475 222.089C48.8725 222.089 48.5348 222.015 48.2344 221.866C47.934 221.717 47.6932 221.512 47.5121 221.252C47.331 220.992 47.2319 220.696 47.2149 220.364H47.9819C48.0118 220.66 48.146 220.905 48.3846 221.099C48.6254 221.29 48.913 221.386 49.2475 221.386C49.516 221.386 49.7546 221.324 49.9635 221.198C50.1744 221.072 50.3395 220.9 50.4588 220.68C50.5803 220.458 50.641 220.208 50.641 219.929C50.641 219.643 50.5782 219.389 50.4524 219.165C50.3289 218.939 50.1584 218.761 49.9411 218.631C49.7238 218.501 49.4755 218.435 49.1964 218.433C48.9961 218.431 48.7905 218.462 48.5796 218.526C48.3686 218.588 48.195 218.668 48.0586 218.766L47.3171 218.676L47.7135 215.455H51.114V216.158H48.3782L48.1481 218.088H48.1865C48.3207 217.982 48.489 217.893 48.6914 217.823C48.8939 217.752 49.1048 217.717 49.3243 217.717C49.7248 217.717 50.0817 217.813 50.3949 218.005C50.7103 218.195 50.9574 218.455 51.1364 218.785C51.3175 219.115 51.4081 219.492 51.4081 219.916C51.4081 220.334 51.3143 220.707 51.1268 221.035C50.9414 221.361 50.6858 221.619 50.3598 221.808C50.0338 221.996 49.663 222.089 49.2475 222.089Z" fill="#4F4F4F"/>
<path d="M36.5545 201.089C36.1156 201.089 35.7278 201.012 35.3912 200.856C35.0567 200.699 34.7957 200.482 34.6082 200.207C34.4207 199.93 34.328 199.615 34.3301 199.261C34.328 198.984 34.3823 198.729 34.4931 198.494C34.6039 198.258 34.7552 198.061 34.9469 197.903C35.1408 197.743 35.3571 197.642 35.5957 197.599V197.561C35.2825 197.48 35.0332 197.304 34.8479 197.034C34.6625 196.761 34.5709 196.451 34.573 196.104C34.5709 195.771 34.655 195.474 34.8255 195.212C34.9959 194.95 35.2303 194.743 35.5286 194.592C35.829 194.441 36.171 194.365 36.5545 194.365C36.9338 194.365 37.2726 194.441 37.5709 194.592C37.8692 194.743 38.1035 194.95 38.274 195.212C38.4466 195.474 38.5339 195.771 38.5361 196.104C38.5339 196.451 38.4391 196.761 38.2516 197.034C38.0663 197.304 37.8202 197.48 37.5134 197.561V197.599C37.7499 197.642 37.9629 197.743 38.1526 197.903C38.3422 198.061 38.4935 198.258 38.6064 198.494C38.7193 198.729 38.7768 198.984 38.779 199.261C38.7768 199.615 38.681 199.93 38.4913 200.207C38.3038 200.482 38.0428 200.699 37.7083 200.856C37.3759 201.012 36.9913 201.089 36.5545 201.089ZM36.5545 200.386C36.8507 200.386 37.1064 200.338 37.3216 200.243C37.5368 200.147 37.703 200.011 37.8202 199.837C37.9374 199.662 37.997 199.457 37.9991 199.223C37.997 198.976 37.9331 198.757 37.8074 198.568C37.6817 198.378 37.5102 198.229 37.2928 198.12C37.0776 198.012 36.8315 197.957 36.5545 197.957C36.2754 197.957 36.0261 198.012 35.8067 198.12C35.5893 198.229 35.4178 198.378 35.2921 198.568C35.1685 198.757 35.1078 198.976 35.1099 199.223C35.1078 199.457 35.1643 199.662 35.2793 199.837C35.3965 200.011 35.5638 200.147 35.7811 200.243C35.9984 200.338 36.2562 200.386 36.5545 200.386ZM36.5545 197.28C36.7889 197.28 36.9967 197.233 37.1778 197.139C37.361 197.045 37.5048 196.914 37.6092 196.746C37.7136 196.578 37.7669 196.381 37.769 196.155C37.7669 195.933 37.7147 195.74 37.6124 195.576C37.5102 195.41 37.3685 195.282 37.1874 195.193C37.0062 195.101 36.7953 195.055 36.5545 195.055C36.3095 195.055 36.0954 195.101 35.9121 195.193C35.7289 195.282 35.5872 195.41 35.4871 195.576C35.3869 195.74 35.3379 195.933 35.3401 196.155C35.3379 196.381 35.388 196.578 35.4903 196.746C35.5947 196.914 35.7385 197.045 35.9217 197.139C36.105 197.233 36.3159 197.28 36.5545 197.28ZM40.3642 201.051C40.2065 201.051 40.0712 200.995 39.9583 200.882C39.8454 200.769 39.7889 200.634 39.7889 200.476C39.7889 200.318 39.8454 200.183 39.9583 200.07C40.0712 199.957 40.2065 199.901 40.3642 199.901C40.5219 199.901 40.6572 199.957 40.7701 200.07C40.883 200.183 40.9395 200.318 40.9395 200.476C40.9395 200.58 40.9129 200.676 40.8596 200.763C40.8084 200.851 40.7392 200.921 40.6518 200.974C40.5666 201.026 40.4707 201.051 40.3642 201.051ZM42.3529 201L45.2805 195.209V195.158H41.9055V194.455H46.0987V195.196L43.1839 201H42.3529ZM49.2475 201.089C48.8725 201.089 48.5348 201.015 48.2344 200.866C47.934 200.717 47.6932 200.512 47.5121 200.252C47.331 199.992 47.2319 199.696 47.2149 199.364H47.9819C48.0118 199.66 48.146 199.905 48.3846 200.099C48.6254 200.29 48.913 200.386 49.2475 200.386C49.516 200.386 49.7546 200.324 49.9635 200.198C50.1744 200.072 50.3395 199.9 50.4588 199.68C50.5803 199.458 50.641 199.208 50.641 198.929C50.641 198.643 50.5782 198.389 50.4524 198.165C50.3289 197.939 50.1584 197.761 49.9411 197.631C49.7238 197.501 49.4755 197.435 49.1964 197.433C48.9961 197.431 48.7905 197.462 48.5796 197.526C48.3686 197.588 48.195 197.668 48.0586 197.766L47.3171 197.676L47.7135 194.455H51.114V195.158H48.3782L48.1481 197.088H48.1865C48.3207 196.982 48.489 196.893 48.6914 196.823C48.8939 196.752 49.1048 196.717 49.3243 196.717C49.7248 196.717 50.0817 196.813 50.3949 197.005C50.7103 197.195 50.9574 197.455 51.1364 197.785C51.3175 198.115 51.4081 198.492 51.4081 198.916C51.4081 199.334 51.3143 199.707 51.1268 200.035C50.9414 200.361 50.6858 200.619 50.3598 200.808C50.0338 200.996 49.663 201.089 49.2475 201.089Z" fill="#4F4F4F"/>
<path d="M45.1702 173.455V180H44.3776V174.286H44.3393L42.7412 175.347V174.541L44.3776 173.455H45.1702ZM49.1876 180.089C48.7061 180.089 48.2959 179.958 47.9572 179.696C47.6184 179.432 47.3595 179.05 47.1805 178.549C47.0015 178.046 46.9121 177.439 46.9121 176.727C46.9121 176.02 47.0015 175.416 47.1805 174.915C47.3616 174.412 47.6216 174.029 47.9603 173.765C48.3013 173.498 48.7103 173.365 49.1876 173.365C49.6649 173.365 50.0729 173.498 50.4117 173.765C50.7526 174.029 51.0126 174.412 51.1915 174.915C51.3726 175.416 51.4632 176.02 51.4632 176.727C51.4632 177.439 51.3737 178.046 51.1947 178.549C51.0157 179.05 50.7569 179.432 50.4181 179.696C50.0793 179.958 49.6692 180.089 49.1876 180.089ZM49.1876 179.386C49.6649 179.386 50.0356 179.156 50.2998 178.696C50.564 178.236 50.6961 177.58 50.6961 176.727C50.6961 176.161 50.6354 175.678 50.514 175.279C50.3947 174.881 50.2221 174.577 49.9962 174.369C49.7725 174.16 49.503 174.055 49.1876 174.055C48.7146 174.055 48.3449 174.289 48.0786 174.755C47.8123 175.22 47.6791 175.877 47.6791 176.727C47.6791 177.294 47.7388 177.776 47.8581 178.172C47.9774 178.568 48.1489 178.87 48.3726 179.076C48.5985 179.283 48.8702 179.386 49.1876 179.386Z" fill="#4F4F4F"/>
<path d="M10 146H365" stroke="#F0F0F0" stroke-width="2"/>
<rect x="67" y="263" width="7" height="83" fill="#F94144"/>
<rect x="88" y="280" width="7" height="66" fill="#F94144"/>
<rect x="111" y="296" width="6" height="50" fill="#F94144"/>
<rect x="134" y="231" width="7" height="115" fill="#F94144"/>
<rect x="160" y="264" width="7" height="82" fill="#F94144"/>
<rect x="180" y="181" width="6" height="165" fill="#F94144"/>
<rect x="203" y="296" width="6" height="50" fill="#F94144"/>
<rect x="226" y="280" width="7" height="66" fill="#F94144"/>
<rect x="250" y="214" width="7" height="132" fill="#F94144"/>
<rect x="273" y="181" width="6" height="165" fill="#F94144"/>
<rect x="295" y="247" width="7" height="99" fill="#F94144"/>
<rect x="317" y="214" width="7" height="132" fill="#F94144"/>
<defs>
<filter id="filter0_d_7_2735" x="0" y="0" width="375" height="447" filterUnits="userSpaceOnUse" color-interpolation-filters="sRGB">
<feFlood flood-opacity="0" result="BackgroundImageFix"/>
<feColorMatrix in="SourceAlpha" type="matrix" values="0 0 0 0 0 0 0 0 0 0 0 0 0 0 0 0 0 0 127 0" result="hardAlpha"/>
<feOffset dy="2"/>
<feGaussianBlur stdDeviation="5"/>
<feComposite in2="hardAlpha" operator="out"/>
<feColorMatrix type="matrix" values="0 0 0 0 0 0 0 0 0 0 0 0 0 0 0 0 0 0 0.1 0"/>
<feBlend mode="normal" in2="BackgroundImageFix" result="effect1_dropShadow_7_2735"/>
<feBlend mode="normal" in="SourceGraphic" in2="effect1_dropShadow_7_2735" result="shape"/>
</filter>
</defs>
</svg>
