<svg width="383" height="455" viewBox="0 0 383 455" fill="none" xmlns="http://www.w3.org/2000/svg">
<g filter="url(#filter0_d_7_2735)">
<rect x="14" y="12" width="355" height="427" rx="20" fill="white"/>
<rect x="12" y="10" width="359" height="431" rx="22" stroke="#EC4899" stroke-width="4"/>
</g>
<path d="M48.7926 44.4545V59H46.598V44.4545H48.7926ZM53.9418 52.5227V59H51.8182V48.0909H53.8565V49.8665H53.9915C54.2424 49.2888 54.6354 48.8248 55.1705 48.4744C55.7102 48.1241 56.3897 47.9489 57.2088 47.9489C57.9522 47.9489 58.6032 48.1051 59.1619 48.4176C59.7206 48.7254 60.1539 49.1847 60.4616 49.7955C60.7694 50.4062 60.9233 51.1615 60.9233 52.0611V59H58.7997V52.3168C58.7997 51.526 58.5938 50.9081 58.1818 50.4631C57.7699 50.0133 57.2041 49.7884 56.4844 49.7884C55.992 49.7884 55.554 49.8949 55.1705 50.108C54.7917 50.321 54.491 50.6335 54.2685 51.0455C54.0507 51.4527 53.9418 51.9451 53.9418 52.5227ZM68.3665 59.2202C67.3106 59.2202 66.4015 58.9811 65.6392 58.5028C64.8816 58.0199 64.2992 57.3546 63.892 56.5071C63.4848 55.6596 63.2812 54.6889 63.2812 53.5952C63.2812 52.4872 63.4896 51.5095 63.9062 50.6619C64.3229 49.8097 64.91 49.1444 65.6676 48.6662C66.4252 48.188 67.3177 47.9489 68.3452 47.9489C69.1738 47.9489 69.9124 48.1027 70.5611 48.4105C71.2098 48.7135 71.733 49.1397 72.1307 49.6889C72.5331 50.2382 72.7723 50.8797 72.848 51.6136H70.7812C70.6676 51.1023 70.4072 50.6619 70 50.2926C69.5975 49.9233 69.0578 49.7386 68.3807 49.7386C67.7888 49.7386 67.2704 49.8949 66.8253 50.2074C66.3849 50.5152 66.0417 50.9555 65.7955 51.5284C65.5492 52.0966 65.4261 52.7689 65.4261 53.5455C65.4261 54.3409 65.5469 55.0275 65.7884 55.6051C66.0298 56.1828 66.3707 56.6302 66.8111 56.9474C67.2562 57.2647 67.7794 57.4233 68.3807 57.4233C68.7831 57.4233 69.1477 57.3499 69.4744 57.2031C69.8059 57.0516 70.0829 56.8362 70.3054 56.5568C70.5327 56.2775 70.6913 55.9413 70.7812 55.5483H72.848C72.7723 56.2538 72.5426 56.8835 72.1591 57.4375C71.7756 57.9915 71.2618 58.4271 70.6179 58.7443C69.9787 59.0616 69.2282 59.2202 68.3665 59.2202ZM75.119 59V48.0909H77.1715V49.8239H77.2852C77.484 49.2367 77.8344 48.7751 78.3363 48.4389C78.8429 48.098 79.4158 47.9276 80.055 47.9276C80.1876 47.9276 80.3439 47.9323 80.5238 47.9418C80.7085 47.9512 80.8529 47.9631 80.957 47.9773V50.0085C80.8718 49.9848 80.7203 49.9588 80.5025 49.9304C80.2847 49.8973 80.0669 49.8807 79.8491 49.8807C79.3472 49.8807 78.8997 49.9872 78.5067 50.2003C78.1185 50.4086 77.8107 50.6998 77.5835 51.0739C77.3562 51.4432 77.2425 51.8646 77.2425 52.3381V59H75.119ZM87.1058 59.2202C86.031 59.2202 85.1054 58.9905 84.3288 58.5312C83.5571 58.0672 82.9605 57.4162 82.5391 56.5781C82.1224 55.7353 81.9141 54.7481 81.9141 53.6165C81.9141 52.4991 82.1224 51.5142 82.5391 50.6619C82.9605 49.8097 83.5476 49.1444 84.3004 48.6662C85.058 48.188 85.9434 47.9489 86.9567 47.9489C87.5722 47.9489 88.1688 48.0507 88.7464 48.2543C89.3241 48.4579 89.8426 48.7775 90.3018 49.2131C90.7611 49.6487 91.1233 50.2145 91.3885 50.9105C91.6536 51.6018 91.7862 52.4422 91.7862 53.4318V54.1847H83.1143V52.5938H89.7053C89.7053 52.035 89.5916 51.5402 89.3643 51.1094C89.1371 50.6738 88.8175 50.3305 88.4055 50.0795C87.9983 49.8286 87.5201 49.7031 86.9709 49.7031C86.3743 49.7031 85.8535 49.8499 85.4084 50.1435C84.968 50.4323 84.6271 50.8111 84.3857 51.2798C84.1489 51.7438 84.0305 52.2481 84.0305 52.7926V54.0355C84.0305 54.7647 84.1584 55.3849 84.4141 55.8963C84.6745 56.4077 85.0367 56.7983 85.5007 57.0682C85.9647 57.3333 86.5069 57.4659 87.1271 57.4659C87.5296 57.4659 87.8965 57.4091 88.228 57.2955C88.5594 57.1771 88.8459 57.0019 89.0874 56.7699C89.3288 56.5379 89.5135 56.2514 89.6413 55.9105L91.6513 56.2727C91.4903 56.8646 91.2015 57.383 90.7848 57.8281C90.3729 58.2685 89.8544 58.6117 89.2294 58.858C88.6091 59.0994 87.9013 59.2202 87.1058 59.2202ZM97.3171 59.2415C96.6258 59.2415 96.0008 59.1136 95.4421 58.858C94.8834 58.5975 94.4407 58.2211 94.114 57.7287C93.792 57.2363 93.631 56.6326 93.631 55.9176C93.631 55.3021 93.7494 54.7955 93.9862 54.3977C94.2229 54 94.5425 53.6851 94.945 53.4531C95.3474 53.2211 95.7972 53.0459 96.2944 52.9276C96.7915 52.8092 97.2982 52.7192 97.8143 52.6577C98.4677 52.5819 98.998 52.5204 99.4052 52.473C99.8124 52.4209 100.108 52.3381 100.293 52.2244C100.478 52.1108 100.57 51.9261 100.57 51.6705V51.6207C100.57 51.0005 100.395 50.5199 100.044 50.179C99.6987 49.8381 99.1826 49.6676 98.4961 49.6676C97.7811 49.6676 97.2177 49.8262 96.8058 50.1435C96.3986 50.456 96.1168 50.804 95.9606 51.1875L93.9648 50.733C94.2016 50.0701 94.5472 49.535 95.0018 49.1278C95.4611 48.7159 95.989 48.4176 96.5856 48.233C97.1822 48.0436 97.8095 47.9489 98.4677 47.9489C98.9033 47.9489 99.3649 48.0009 99.8526 48.1051C100.345 48.2045 100.804 48.3892 101.23 48.6591C101.661 48.929 102.014 49.3149 102.289 49.8168C102.563 50.3139 102.701 50.9602 102.701 51.7557V59H100.627V57.5085H100.542C100.404 57.7831 100.198 58.053 99.9237 58.3182C99.649 58.5833 99.2963 58.8035 98.8654 58.9787C98.4345 59.1539 97.9184 59.2415 97.3171 59.2415ZM97.7788 57.5369C98.3659 57.5369 98.8678 57.4209 99.2844 57.1889C99.7058 56.9569 100.025 56.6539 100.243 56.2798C100.466 55.901 100.577 55.4962 100.577 55.0653V53.6591C100.501 53.7348 100.355 53.8059 100.137 53.8722C99.9237 53.9337 99.6798 53.9882 99.4052 54.0355C99.1306 54.0781 98.863 54.1184 98.6026 54.1562C98.3422 54.1894 98.1244 54.2178 97.9492 54.2415C97.5373 54.2936 97.1609 54.3812 96.82 54.5043C96.4838 54.6274 96.2139 54.8049 96.0103 55.0369C95.8114 55.2642 95.712 55.5672 95.712 55.946C95.712 56.4716 95.9061 56.8693 96.2944 57.1392C96.6826 57.4044 97.1774 57.5369 97.7788 57.5369ZM113.704 50.7543L111.779 51.0952C111.699 50.849 111.571 50.6146 111.396 50.392C111.225 50.1695 110.993 49.9872 110.7 49.8452C110.406 49.7031 110.039 49.6321 109.599 49.6321C108.997 49.6321 108.496 49.767 108.093 50.0369C107.691 50.3021 107.489 50.6454 107.489 51.0668C107.489 51.4313 107.624 51.7249 107.894 51.9474C108.164 52.17 108.6 52.3523 109.201 52.4943L110.934 52.892C111.938 53.1241 112.686 53.4815 113.178 53.9645C113.671 54.4474 113.917 55.0748 113.917 55.8466C113.917 56.5 113.728 57.0824 113.349 57.5938C112.975 58.1004 112.451 58.4981 111.779 58.7869C111.112 59.0758 110.337 59.2202 109.457 59.2202C108.235 59.2202 107.238 58.9598 106.467 58.4389C105.695 57.9134 105.221 57.1676 105.046 56.2017L107.099 55.8892C107.227 56.4242 107.489 56.8291 107.887 57.1037C108.285 57.3736 108.803 57.5085 109.442 57.5085C110.138 57.5085 110.695 57.3641 111.112 57.0753C111.528 56.7817 111.737 56.4242 111.737 56.0028C111.737 55.6619 111.609 55.3755 111.353 55.1435C111.102 54.9115 110.716 54.7363 110.195 54.6179L108.349 54.2131C107.331 53.9811 106.578 53.6117 106.09 53.1051C105.607 52.5985 105.366 51.9569 105.366 51.1804C105.366 50.5365 105.546 49.973 105.906 49.4901C106.265 49.0071 106.763 48.6307 107.397 48.3608C108.031 48.0862 108.758 47.9489 109.577 47.9489C110.756 47.9489 111.684 48.2045 112.362 48.7159C113.039 49.2225 113.486 49.902 113.704 50.7543ZM116.252 59V48.0909H118.375V59H116.252ZM117.324 46.4077C116.955 46.4077 116.638 46.2846 116.373 46.0384C116.112 45.7874 115.982 45.4891 115.982 45.1435C115.982 44.7931 116.112 44.4948 116.373 44.2486C116.638 43.9976 116.955 43.8722 117.324 43.8722C117.694 43.8722 118.008 43.9976 118.269 44.2486C118.534 44.4948 118.667 44.7931 118.667 45.1435C118.667 45.4891 118.534 45.7874 118.269 46.0384C118.008 46.2846 117.694 46.4077 117.324 46.4077ZM123.356 52.5227V59H121.232V48.0909H123.271V49.8665H123.406C123.656 49.2888 124.049 48.8248 124.585 48.4744C125.124 48.1241 125.804 47.9489 126.623 47.9489C127.366 47.9489 128.017 48.1051 128.576 48.4176C129.135 48.7254 129.568 49.1847 129.876 49.7955C130.183 50.4062 130.337 51.1615 130.337 52.0611V59H128.214V52.3168C128.214 51.526 128.008 50.9081 127.596 50.4631C127.184 50.0133 126.618 49.7884 125.898 49.7884C125.406 49.7884 124.968 49.8949 124.585 50.108C124.206 50.321 123.905 50.6335 123.683 51.0455C123.465 51.4527 123.356 51.9451 123.356 52.5227ZM137.759 63.3182C136.893 63.3182 136.147 63.2045 135.522 62.9773C134.902 62.75 134.395 62.4493 134.002 62.0753C133.609 61.7012 133.316 61.2917 133.121 60.8466L134.947 60.0938C135.075 60.3021 135.245 60.5223 135.458 60.7543C135.676 60.991 135.969 61.1922 136.339 61.358C136.713 61.5237 137.193 61.6065 137.781 61.6065C138.585 61.6065 139.251 61.41 139.776 61.017C140.302 60.6288 140.565 60.0085 140.565 59.1562V57.0114H140.43C140.302 57.2434 140.117 57.5014 139.876 57.7855C139.639 58.0696 139.312 58.3158 138.896 58.5241C138.479 58.7325 137.937 58.8366 137.269 58.8366C136.407 58.8366 135.631 58.6354 134.94 58.233C134.253 57.8258 133.709 57.2268 133.306 56.4361C132.908 55.6406 132.71 54.6629 132.71 53.5028C132.71 52.3428 132.906 51.3485 133.299 50.5199C133.697 49.6913 134.241 49.0568 134.933 48.6165C135.624 48.1714 136.407 47.9489 137.283 47.9489C137.96 47.9489 138.507 48.0625 138.924 48.2898C139.341 48.5123 139.665 48.7727 139.897 49.071C140.134 49.3693 140.316 49.6321 140.444 49.8594H140.6V48.0909H142.681V59.2415C142.681 60.179 142.463 60.9484 142.028 61.5497C141.592 62.151 141.003 62.5961 140.259 62.8849C139.521 63.1738 138.687 63.3182 137.759 63.3182ZM137.738 57.0753C138.349 57.0753 138.865 56.9332 139.286 56.6491C139.712 56.3603 140.034 55.9484 140.252 55.4134C140.475 54.8736 140.586 54.2273 140.586 53.4744C140.586 52.7405 140.477 52.0942 140.259 51.5355C140.041 50.9768 139.722 50.5412 139.3 50.2287C138.879 49.9115 138.358 49.7528 137.738 49.7528C137.099 49.7528 136.566 49.9186 136.14 50.25C135.714 50.5767 135.392 51.0218 135.174 51.5852C134.961 52.1487 134.854 52.7784 134.854 53.4744C134.854 54.1894 134.963 54.8168 135.181 55.3565C135.399 55.8963 135.721 56.3177 136.147 56.6207C136.578 56.9238 137.108 57.0753 137.738 57.0753ZM149.87 44.4545H152.363L156.163 51.0668H156.319L160.119 44.4545H162.612L157.335 53.2898V59H155.147V53.2898L149.87 44.4545ZM167.312 59.2202C166.289 59.2202 165.397 58.9858 164.634 58.517C163.872 58.0483 163.28 57.3925 162.859 56.5497C162.437 55.7069 162.227 54.7221 162.227 53.5952C162.227 52.4635 162.437 51.474 162.859 50.6264C163.28 49.7789 163.872 49.1207 164.634 48.652C165.397 48.1832 166.289 47.9489 167.312 47.9489C168.335 47.9489 169.227 48.1832 169.989 48.652C170.752 49.1207 171.344 49.7789 171.765 50.6264C172.186 51.474 172.397 52.4635 172.397 53.5952C172.397 54.7221 172.186 55.7069 171.765 56.5497C171.344 57.3925 170.752 58.0483 169.989 58.517C169.227 58.9858 168.335 59.2202 167.312 59.2202ZM167.319 57.4375C167.982 57.4375 168.531 57.2623 168.967 56.9119C169.402 56.5616 169.724 56.0952 169.933 55.5128C170.146 54.9304 170.252 54.2888 170.252 53.5881C170.252 52.892 170.146 52.2528 169.933 51.6705C169.724 51.0833 169.402 50.6122 168.967 50.2571C168.531 49.902 167.982 49.7244 167.319 49.7244C166.651 49.7244 166.097 49.902 165.657 50.2571C165.221 50.6122 164.897 51.0833 164.684 51.6705C164.476 52.2528 164.371 52.892 164.371 53.5881C164.371 54.2888 164.476 54.9304 164.684 55.5128C164.897 56.0952 165.221 56.5616 165.657 56.9119C166.097 57.2623 166.651 57.4375 167.319 57.4375ZM181.678 54.4759V48.0909H183.809V59H181.721V57.1108H181.607C181.356 57.6932 180.953 58.1785 180.4 58.5668C179.85 58.9503 179.166 59.142 178.347 59.142C177.646 59.142 177.026 58.9882 176.486 58.6804C175.951 58.3679 175.53 57.9062 175.222 57.2955C174.919 56.6847 174.767 55.9295 174.767 55.0298V48.0909H176.891V54.7741C176.891 55.5175 177.097 56.1094 177.509 56.5497C177.921 56.9901 178.456 57.2102 179.114 57.2102C179.512 57.2102 179.907 57.1108 180.3 56.9119C180.698 56.7131 181.027 56.4124 181.287 56.0099C181.552 55.6075 181.683 55.0961 181.678 54.4759ZM186.662 59V48.0909H188.714V49.8239H188.828C189.027 49.2367 189.377 48.7751 189.879 48.4389C190.386 48.098 190.959 47.9276 191.598 47.9276C191.731 47.9276 191.887 47.9323 192.067 47.9418C192.251 47.9512 192.396 47.9631 192.5 47.9773V50.0085C192.415 49.9848 192.263 49.9588 192.045 49.9304C191.828 49.8973 191.61 49.8807 191.392 49.8807C190.89 49.8807 190.443 49.9872 190.05 50.2003C189.661 50.4086 189.354 50.6998 189.126 51.0739C188.899 51.4432 188.786 51.8646 188.786 52.3381V59H186.662ZM199.801 59V44.4545H204.986C206.113 44.4545 207.048 44.6487 207.791 45.0369C208.539 45.4252 209.098 45.9626 209.467 46.6491C209.837 47.331 210.021 48.1193 210.021 49.0142C210.021 49.9044 209.834 50.688 209.46 51.3651C209.091 52.0374 208.532 52.5606 207.784 52.9347C207.041 53.3087 206.106 53.4957 204.979 53.4957H201.051V51.6065H204.78C205.49 51.6065 206.068 51.5047 206.513 51.3011C206.963 51.0975 207.292 50.8016 207.5 50.4134C207.708 50.0251 207.812 49.5587 207.812 49.0142C207.812 48.465 207.706 47.9891 207.493 47.5866C207.285 47.1842 206.955 46.8764 206.506 46.6634C206.061 46.4455 205.476 46.3366 204.751 46.3366H201.996V59H199.801ZM206.982 52.4375L210.575 59H208.075L204.553 52.4375H206.982ZM217.086 59.2202C216.011 59.2202 215.086 58.9905 214.309 58.5312C213.538 58.0672 212.941 57.4162 212.52 56.5781C212.103 55.7353 211.895 54.7481 211.895 53.6165C211.895 52.4991 212.103 51.5142 212.52 50.6619C212.941 49.8097 213.528 49.1444 214.281 48.6662C215.038 48.188 215.924 47.9489 216.937 47.9489C217.553 47.9489 218.149 48.0507 218.727 48.2543C219.305 48.4579 219.823 48.7775 220.282 49.2131C220.742 49.6487 221.104 50.2145 221.369 50.9105C221.634 51.6018 221.767 52.4422 221.767 53.4318V54.1847H213.095V52.5938H219.686C219.686 52.035 219.572 51.5402 219.345 51.1094C219.118 50.6738 218.798 50.3305 218.386 50.0795C217.979 49.8286 217.501 49.7031 216.951 49.7031C216.355 49.7031 215.834 49.8499 215.389 50.1435C214.949 50.4323 214.608 50.8111 214.366 51.2798C214.129 51.7438 214.011 52.2481 214.011 52.7926V54.0355C214.011 54.7647 214.139 55.3849 214.395 55.8963C214.655 56.4077 215.017 56.7983 215.481 57.0682C215.945 57.3333 216.487 57.4659 217.108 57.4659C217.51 57.4659 217.877 57.4091 218.208 57.2955C218.54 57.1771 218.826 57.0019 219.068 56.7699C219.309 56.5379 219.494 56.2514 219.622 55.9105L221.632 56.2727C221.471 56.8646 221.182 57.383 220.765 57.8281C220.353 58.2685 219.835 58.6117 219.21 58.858C218.59 59.0994 217.882 59.2202 217.086 59.2202ZM233.143 48.0909L229.187 59H226.914L222.951 48.0909H225.231L227.994 56.4858H228.107L230.863 48.0909H233.143ZM239.469 59.2202C238.394 59.2202 237.469 58.9905 236.692 58.5312C235.92 58.0672 235.324 57.4162 234.902 56.5781C234.486 55.7353 234.277 54.7481 234.277 53.6165C234.277 52.4991 234.486 51.5142 234.902 50.6619C235.324 49.8097 235.911 49.1444 236.664 48.6662C237.421 48.188 238.307 47.9489 239.32 47.9489C239.935 47.9489 240.532 48.0507 241.11 48.2543C241.687 48.4579 242.206 48.7775 242.665 49.2131C243.124 49.6487 243.487 50.2145 243.752 50.9105C244.017 51.6018 244.15 52.4422 244.15 53.4318V54.1847H235.478V52.5938H242.069C242.069 52.035 241.955 51.5402 241.728 51.1094C241.5 50.6738 241.181 50.3305 240.769 50.0795C240.362 49.8286 239.883 49.7031 239.334 49.7031C238.738 49.7031 238.217 49.8499 237.772 50.1435C237.331 50.4323 236.99 50.8111 236.749 51.2798C236.512 51.7438 236.394 52.2481 236.394 52.7926V54.0355C236.394 54.7647 236.522 55.3849 236.777 55.8963C237.038 56.4077 237.4 56.7983 237.864 57.0682C238.328 57.3333 238.87 57.4659 239.49 57.4659C239.893 57.4659 240.26 57.4091 240.591 57.2955C240.923 57.1771 241.209 57.0019 241.451 56.7699C241.692 56.5379 241.877 56.2514 242.005 55.9105L244.015 56.2727C243.854 56.8646 243.565 57.383 243.148 57.8281C242.736 58.2685 242.218 58.6117 241.593 58.858C240.972 59.0994 240.265 59.2202 239.469 59.2202ZM248.629 52.5227V59H246.506V48.0909H248.544V49.8665H248.679C248.93 49.2888 249.323 48.8248 249.858 48.4744C250.398 48.1241 251.077 47.9489 251.896 47.9489C252.64 47.9489 253.291 48.1051 253.849 48.4176C254.408 48.7254 254.841 49.1847 255.149 49.7955C255.457 50.4062 255.611 51.1615 255.611 52.0611V59H253.487V52.3168C253.487 51.526 253.281 50.9081 252.869 50.4631C252.457 50.0133 251.892 49.7884 251.172 49.7884C250.679 49.7884 250.241 49.8949 249.858 50.108C249.479 50.321 249.179 50.6335 248.956 51.0455C248.738 51.4527 248.629 51.9451 248.629 52.5227ZM265.369 54.4759V48.0909H267.5V59H265.412V57.1108H265.298C265.047 57.6932 264.645 58.1785 264.091 58.5668C263.542 58.9503 262.857 59.142 262.038 59.142C261.338 59.142 260.717 58.9882 260.178 58.6804C259.643 58.3679 259.221 57.9062 258.913 57.2955C258.61 56.6847 258.459 55.9295 258.459 55.0298V48.0909H260.582V54.7741C260.582 55.5175 260.788 56.1094 261.2 56.5497C261.612 56.9901 262.147 57.2102 262.805 57.2102C263.203 57.2102 263.598 57.1108 263.991 56.9119C264.389 56.7131 264.718 56.4124 264.979 56.0099C265.244 55.6075 265.374 55.0961 265.369 54.4759ZM275.055 59.2202C273.98 59.2202 273.055 58.9905 272.278 58.5312C271.506 58.0672 270.91 57.4162 270.488 56.5781C270.072 55.7353 269.863 54.7481 269.863 53.6165C269.863 52.4991 270.072 51.5142 270.488 50.6619C270.91 49.8097 271.497 49.1444 272.25 48.6662C273.007 48.188 273.893 47.9489 274.906 47.9489C275.521 47.9489 276.118 48.0507 276.696 48.2543C277.273 48.4579 277.792 48.7775 278.251 49.2131C278.71 49.6487 279.073 50.2145 279.338 50.9105C279.603 51.6018 279.735 52.4422 279.735 53.4318V54.1847H271.064V52.5938H277.654C277.654 52.035 277.541 51.5402 277.314 51.1094C277.086 50.6738 276.767 50.3305 276.355 50.0795C275.948 49.8286 275.469 49.7031 274.92 49.7031C274.324 49.7031 273.803 49.8499 273.358 50.1435C272.917 50.4323 272.576 50.8111 272.335 51.2798C272.098 51.7438 271.98 52.2481 271.98 52.7926V54.0355C271.98 54.7647 272.108 55.3849 272.363 55.8963C272.624 56.4077 272.986 56.7983 273.45 57.0682C273.914 57.3333 274.456 57.4659 275.076 57.4659C275.479 57.4659 275.846 57.4091 276.177 57.2955C276.509 57.1771 276.795 57.0019 277.037 56.7699C277.278 56.5379 277.463 56.2514 277.591 55.9105L279.6 56.2727C279.44 56.8646 279.151 57.383 278.734 57.8281C278.322 58.2685 277.804 58.6117 277.179 58.858C276.558 59.0994 275.85 59.2202 275.055 59.2202Z" fill="#EC4899"/>
<path d="M47.642 121L45.2557 112.273H46.3295L48.1534 119.381H48.2386L50.0966 112.273H51.2898L53.1477 119.381H53.233L55.0568 112.273H56.1307L53.7443 121H52.6534L50.7273 114.045H50.6591L48.733 121H47.642ZM57.3111 121V114.455H58.3168V121H57.3111ZM57.8224 113.364C57.6264 113.364 57.4574 113.297 57.3153 113.163C57.1761 113.03 57.1065 112.869 57.1065 112.682C57.1065 112.494 57.1761 112.334 57.3153 112.2C57.4574 112.067 57.6264 112 57.8224 112C58.0185 112 58.1861 112.067 58.3253 112.2C58.4673 112.334 58.5384 112.494 58.5384 112.682C58.5384 112.869 58.4673 113.03 58.3253 113.163C58.1861 113.297 58.0185 113.364 57.8224 113.364ZM63.0053 114.455V115.307H59.6133V114.455H63.0053ZM60.6019 112.886H61.6076V119.125C61.6076 119.409 61.6488 119.622 61.7312 119.764C61.8164 119.903 61.9244 119.997 62.055 120.045C62.1886 120.091 62.3292 120.114 62.4769 120.114C62.5877 120.114 62.6786 120.108 62.7496 120.097C62.8207 120.082 62.8775 120.071 62.9201 120.062L63.1246 120.966C63.0565 120.991 62.9613 121.017 62.8391 121.043C62.717 121.071 62.5621 121.085 62.3746 121.085C62.0906 121.085 61.8121 121.024 61.5394 120.902C61.2695 120.78 61.0451 120.594 60.8661 120.344C60.69 120.094 60.6019 119.778 60.6019 119.398V112.886ZM65.6644 117.062V121H64.6587V112.273H65.6644V115.477H65.7496C65.9031 115.139 66.1332 114.871 66.44 114.672C66.7496 114.47 67.1616 114.369 67.6758 114.369C68.1218 114.369 68.5124 114.459 68.8477 114.638C69.1829 114.814 69.4428 115.085 69.6275 115.452C69.815 115.815 69.9087 116.278 69.9087 116.841V121H68.9031V116.909C68.9031 116.389 68.7681 115.987 68.4982 115.703C68.2312 115.416 67.8604 115.273 67.386 115.273C67.0565 115.273 66.761 115.342 66.4996 115.482C66.2411 115.621 66.0366 115.824 65.886 116.091C65.7383 116.358 65.6644 116.682 65.6644 117.062ZM74.4077 121.136C73.8168 121.136 73.2983 120.996 72.8523 120.714C72.4091 120.433 72.0625 120.04 71.8125 119.534C71.5653 119.028 71.4418 118.437 71.4418 117.761C71.4418 117.08 71.5653 116.484 71.8125 115.976C72.0625 115.467 72.4091 115.072 72.8523 114.791C73.2983 114.51 73.8168 114.369 74.4077 114.369C74.9986 114.369 75.5156 114.51 75.9588 114.791C76.4048 115.072 76.7514 115.467 76.9986 115.976C77.2486 116.484 77.3736 117.08 77.3736 117.761C77.3736 118.437 77.2486 119.028 76.9986 119.534C76.7514 120.04 76.4048 120.433 75.9588 120.714C75.5156 120.996 74.9986 121.136 74.4077 121.136ZM74.4077 120.233C74.8565 120.233 75.2259 120.118 75.5156 119.888C75.8054 119.658 76.0199 119.355 76.1591 118.98C76.2983 118.605 76.3679 118.199 76.3679 117.761C76.3679 117.324 76.2983 116.916 76.1591 116.538C76.0199 116.161 75.8054 115.855 75.5156 115.622C75.2259 115.389 74.8565 115.273 74.4077 115.273C73.9588 115.273 73.5895 115.389 73.2997 115.622C73.0099 115.855 72.7955 116.161 72.6562 116.538C72.517 116.916 72.4474 117.324 72.4474 117.761C72.4474 118.199 72.517 118.605 72.6562 118.98C72.7955 119.355 73.0099 119.658 73.2997 119.888C73.5895 120.118 73.9588 120.233 74.4077 120.233ZM83.0337 118.324V114.455H84.0394V121H83.0337V119.892H82.9656C82.8121 120.224 82.5735 120.507 82.2496 120.74C81.9258 120.97 81.5167 121.085 81.0224 121.085C80.6133 121.085 80.2496 120.996 79.9315 120.817C79.6133 120.635 79.3633 120.362 79.1815 119.999C78.9996 119.632 78.9087 119.17 78.9087 118.614V114.455H79.9144V118.545C79.9144 119.023 80.0479 119.403 80.315 119.688C80.5849 119.972 80.9286 120.114 81.3462 120.114C81.5962 120.114 81.8505 120.05 82.109 119.922C82.3704 119.794 82.5891 119.598 82.7653 119.334C82.9442 119.07 83.0337 118.733 83.0337 118.324ZM88.728 114.455V115.307H85.3359V114.455H88.728ZM86.3246 112.886H87.3303V119.125C87.3303 119.409 87.3714 119.622 87.4538 119.764C87.5391 119.903 87.647 119.997 87.7777 120.045C87.9112 120.091 88.0518 120.114 88.1996 120.114C88.3104 120.114 88.4013 120.108 88.4723 120.097C88.5433 120.082 88.6001 120.071 88.6428 120.062L88.8473 120.966C88.7791 120.991 88.6839 121.017 88.5618 121.043C88.4396 121.071 88.2848 121.085 88.0973 121.085C87.8132 121.085 87.5348 121.024 87.2621 120.902C86.9922 120.78 86.7678 120.594 86.5888 120.344C86.4126 120.094 86.3246 119.778 86.3246 119.398V112.886ZM98.5249 114.455C98.4737 114.023 98.2663 113.688 97.9027 113.449C97.5391 113.21 97.093 113.091 96.5646 113.091C96.1783 113.091 95.8402 113.153 95.5504 113.278C95.2635 113.403 95.0391 113.575 94.8771 113.794C94.718 114.013 94.6385 114.261 94.6385 114.54C94.6385 114.773 94.6939 114.973 94.8047 115.141C94.9183 115.305 95.0632 115.443 95.2393 115.554C95.4155 115.662 95.6001 115.751 95.7933 115.822C95.9865 115.891 96.1641 115.946 96.326 115.989L97.2124 116.227C97.4396 116.287 97.6925 116.369 97.9709 116.474C98.2521 116.58 98.5206 116.723 98.7763 116.905C99.0348 117.084 99.2479 117.314 99.4155 117.595C99.5831 117.876 99.6669 118.222 99.6669 118.631C99.6669 119.102 99.5433 119.528 99.2962 119.909C99.0518 120.29 98.6939 120.592 98.2223 120.817C97.7536 121.041 97.1839 121.153 96.5135 121.153C95.8885 121.153 95.3473 121.053 94.8899 120.851C94.4354 120.649 94.0774 120.368 93.8161 120.007C93.5575 119.646 93.4112 119.227 93.3771 118.75H94.468C94.4964 119.08 94.6072 119.352 94.8004 119.568C94.9964 119.781 95.2436 119.94 95.5419 120.045C95.843 120.148 96.1669 120.199 96.5135 120.199C96.9169 120.199 97.2791 120.134 97.6001 120.003C97.9212 119.869 98.1754 119.685 98.3629 119.449C98.5504 119.21 98.6442 118.932 98.6442 118.614C98.6442 118.324 98.5632 118.088 98.4013 117.906C98.2393 117.724 98.0263 117.577 97.7621 117.463C97.4979 117.349 97.2124 117.25 96.9055 117.165L95.8317 116.858C95.1499 116.662 94.6101 116.382 94.2124 116.018C93.8146 115.655 93.6158 115.179 93.6158 114.591C93.6158 114.102 93.7479 113.676 94.0121 113.312C94.2791 112.946 94.6371 112.662 95.0859 112.46C95.5376 112.256 96.0419 112.153 96.5987 112.153C97.1612 112.153 97.6612 112.254 98.0987 112.456C98.5362 112.655 98.8828 112.928 99.1385 113.274C99.397 113.621 99.5334 114.014 99.5476 114.455H98.5249ZM104.115 114.455V115.307H100.723V114.455H104.115ZM101.711 112.886H102.717V119.125C102.717 119.409 102.758 119.622 102.841 119.764C102.926 119.903 103.034 119.997 103.164 120.045C103.298 120.091 103.439 120.114 103.586 120.114C103.697 120.114 103.788 120.108 103.859 120.097C103.93 120.082 103.987 120.071 104.029 120.062L104.234 120.966C104.166 120.991 104.071 121.017 103.949 121.043C103.826 121.071 103.672 121.085 103.484 121.085C103.2 121.085 102.922 121.024 102.649 120.902C102.379 120.78 102.154 120.594 101.975 120.344C101.799 120.094 101.711 119.778 101.711 119.398V112.886ZM105.627 121V114.455H106.599V115.443H106.667C106.787 115.119 107.002 114.857 107.315 114.655C107.627 114.453 107.98 114.352 108.372 114.352C108.446 114.352 108.538 114.354 108.649 114.357C108.76 114.359 108.843 114.364 108.9 114.369V115.392C108.866 115.384 108.788 115.371 108.666 115.354C108.547 115.334 108.42 115.324 108.287 115.324C107.968 115.324 107.684 115.391 107.434 115.524C107.187 115.655 106.991 115.837 106.846 116.07C106.704 116.3 106.633 116.562 106.633 116.858V121H105.627ZM112.637 121.136C112.007 121.136 111.463 120.997 111.005 120.719C110.551 120.438 110.2 120.045 109.953 119.543C109.708 119.037 109.586 118.449 109.586 117.778C109.586 117.108 109.708 116.517 109.953 116.006C110.2 115.491 110.544 115.091 110.984 114.804C111.427 114.514 111.944 114.369 112.535 114.369C112.876 114.369 113.213 114.426 113.545 114.54C113.877 114.653 114.18 114.838 114.453 115.094C114.725 115.347 114.943 115.682 115.105 116.099C115.267 116.517 115.348 117.031 115.348 117.642V118.068H110.302V117.199H114.325C114.325 116.83 114.251 116.5 114.103 116.21C113.958 115.92 113.751 115.692 113.481 115.524C113.214 115.357 112.899 115.273 112.535 115.273C112.135 115.273 111.788 115.372 111.495 115.571C111.206 115.767 110.983 116.023 110.826 116.338C110.67 116.653 110.592 116.991 110.592 117.352V117.932C110.592 118.426 110.677 118.845 110.848 119.189C111.021 119.53 111.261 119.79 111.568 119.969C111.875 120.145 112.231 120.233 112.637 120.233C112.902 120.233 113.14 120.196 113.353 120.122C113.569 120.045 113.755 119.932 113.912 119.781C114.068 119.628 114.189 119.437 114.274 119.21L115.245 119.483C115.143 119.812 114.971 120.102 114.73 120.352C114.488 120.599 114.19 120.793 113.835 120.932C113.48 121.068 113.081 121.136 112.637 121.136ZM121.514 115.92L120.61 116.176C120.554 116.026 120.47 115.879 120.359 115.737C120.251 115.592 120.103 115.473 119.916 115.379C119.728 115.286 119.488 115.239 119.196 115.239C118.795 115.239 118.461 115.331 118.194 115.516C117.93 115.697 117.798 115.929 117.798 116.21C117.798 116.46 117.889 116.658 118.071 116.803C118.252 116.947 118.537 117.068 118.923 117.165L119.895 117.403C120.48 117.545 120.916 117.763 121.203 118.055C121.49 118.345 121.633 118.719 121.633 119.176C121.633 119.551 121.525 119.886 121.309 120.182C121.096 120.477 120.798 120.71 120.414 120.881C120.031 121.051 119.585 121.136 119.076 121.136C118.409 121.136 117.856 120.991 117.419 120.702C116.981 120.412 116.704 119.989 116.588 119.432L117.542 119.193C117.633 119.545 117.805 119.81 118.058 119.986C118.314 120.162 118.647 120.25 119.059 120.25C119.528 120.25 119.9 120.151 120.176 119.952C120.454 119.75 120.593 119.509 120.593 119.227C120.593 119 120.514 118.81 120.355 118.656C120.196 118.5 119.951 118.384 119.622 118.307L118.531 118.051C117.931 117.909 117.491 117.689 117.21 117.391C116.931 117.089 116.792 116.713 116.792 116.261C116.792 115.892 116.896 115.565 117.103 115.281C117.314 114.997 117.599 114.774 117.96 114.612C118.324 114.45 118.735 114.369 119.196 114.369C119.843 114.369 120.352 114.511 120.721 114.795C121.093 115.08 121.358 115.455 121.514 115.92ZM127.783 115.92L126.88 116.176C126.823 116.026 126.739 115.879 126.629 115.737C126.521 115.592 126.373 115.473 126.185 115.379C125.998 115.286 125.758 115.239 125.465 115.239C125.065 115.239 124.731 115.331 124.464 115.516C124.2 115.697 124.067 115.929 124.067 116.21C124.067 116.46 124.158 116.658 124.34 116.803C124.522 116.947 124.806 117.068 125.192 117.165L126.164 117.403C126.749 117.545 127.185 117.763 127.472 118.055C127.759 118.345 127.903 118.719 127.903 119.176C127.903 119.551 127.795 119.886 127.579 120.182C127.366 120.477 127.067 120.71 126.684 120.881C126.3 121.051 125.854 121.136 125.346 121.136C124.678 121.136 124.126 120.991 123.688 120.702C123.251 120.412 122.974 119.989 122.857 119.432L123.812 119.193C123.903 119.545 124.075 119.81 124.327 119.986C124.583 120.162 124.917 120.25 125.329 120.25C125.798 120.25 126.17 120.151 126.445 119.952C126.724 119.75 126.863 119.509 126.863 119.227C126.863 119 126.783 118.81 126.624 118.656C126.465 118.5 126.221 118.384 125.891 118.307L124.8 118.051C124.201 117.909 123.761 117.689 123.479 117.391C123.201 117.089 123.062 116.713 123.062 116.261C123.062 115.892 123.165 115.565 123.373 115.281C123.583 114.997 123.869 114.774 124.229 114.612C124.593 114.45 125.005 114.369 125.465 114.369C126.113 114.369 126.621 114.511 126.991 114.795C127.363 115.08 127.627 115.455 127.783 115.92Z" fill="#EC4899"/>
<path d="M54.9205 99.3182C53.4962 99.3182 52.2159 99.0455 51.0795 98.5C49.9508 97.947 49.0492 97.1894 48.375 96.2273C47.7008 95.2652 47.3409 94.1667 47.2955 92.9318H50.7045C50.7879 93.9318 51.2311 94.7538 52.0341 95.3977C52.8371 96.0417 53.7992 96.3636 54.9205 96.3636C55.8144 96.3636 56.6061 96.1591 57.2955 95.75C57.9924 95.3333 58.5379 94.7614 58.9318 94.0341C59.3333 93.3068 59.5341 92.4773 59.5341 91.5455C59.5341 90.5985 59.3295 89.7538 58.9205 89.0114C58.5114 88.2689 57.947 87.6856 57.2273 87.2614C56.5152 86.8371 55.697 86.6212 54.7727 86.6136C54.0682 86.6136 53.3598 86.7348 52.6477 86.9773C51.9356 87.2197 51.3598 87.5379 50.9205 87.9318L47.7045 87.4545L49.0114 75.7273H61.8068V78.7386H51.9318L51.1932 85.25H51.3295C51.7841 84.8106 52.3864 84.4432 53.1364 84.1477C53.8939 83.8523 54.7045 83.7045 55.5682 83.7045C56.9848 83.7045 58.2462 84.0417 59.3523 84.7159C60.4659 85.3902 61.3409 86.3106 61.9773 87.4773C62.6212 88.6364 62.9394 89.9697 62.9318 91.4773C62.9394 92.9848 62.5985 94.3295 61.9091 95.5114C61.2273 96.6932 60.2803 97.625 59.0682 98.3068C57.8636 98.9811 56.4811 99.3182 54.9205 99.3182ZM68.5227 99.2159C67.9015 99.2159 67.3674 98.9962 66.9205 98.5568C66.4735 98.1098 66.25 97.572 66.25 96.9432C66.25 96.322 66.4735 95.7917 66.9205 95.3523C67.3674 94.9053 67.9015 94.6818 68.5227 94.6818C69.1439 94.6818 69.678 94.9053 70.125 95.3523C70.572 95.7917 70.7955 96.322 70.7955 96.9432C70.7955 97.3598 70.6894 97.7424 70.4773 98.0909C70.2727 98.4318 70 98.7045 69.6591 98.9091C69.3182 99.1136 68.9394 99.2159 68.5227 99.2159ZM82.7585 75.4091C83.7964 75.4167 84.8191 75.6061 85.8267 75.9773C86.8343 76.3485 87.7434 76.9545 88.554 77.7955C89.3722 78.6364 90.0237 79.7727 90.5085 81.2045C91.0009 82.6288 91.2509 84.4015 91.2585 86.5227C91.2585 88.5606 91.054 90.375 90.6449 91.9659C90.2358 93.5492 89.6487 94.8864 88.8835 95.9773C88.1259 97.0682 87.2055 97.8977 86.1222 98.4659C85.0388 99.0341 83.8191 99.3182 82.4631 99.3182C81.0767 99.3182 79.8456 99.0455 78.7699 98.5C77.6941 97.9545 76.8191 97.2008 76.1449 96.2386C75.4706 95.2689 75.0502 94.1553 74.8835 92.8977H78.3494C78.5767 93.8977 79.0388 94.7083 79.7358 95.3295C80.4403 95.9432 81.3494 96.25 82.4631 96.25C84.1676 96.25 85.4972 95.5076 86.4517 94.0227C87.4063 92.5303 87.8873 90.447 87.8949 87.7727H87.7131C87.3191 88.4242 86.8267 88.9848 86.2358 89.4545C85.6525 89.9242 84.9972 90.2879 84.2699 90.5455C83.5426 90.803 82.7661 90.9318 81.9403 90.9318C80.5994 90.9318 79.3797 90.6023 78.2812 89.9432C77.1828 89.2841 76.3078 88.3788 75.6562 87.2273C75.0047 86.0758 74.679 84.7614 74.679 83.2841C74.679 81.8144 75.0123 80.4811 75.679 79.2841C76.3532 78.0871 77.2926 77.1402 78.4972 76.4432C79.7093 75.7386 81.1297 75.3939 82.7585 75.4091ZM82.7699 78.3636C81.8835 78.3636 81.0843 78.5833 80.3722 79.0227C79.6676 79.4545 79.1108 80.0417 78.7017 80.7841C78.2926 81.5189 78.0881 82.3371 78.0881 83.2386C78.0881 84.1402 78.285 84.9583 78.679 85.6932C79.0805 86.4205 79.6259 87 80.3153 87.4318C81.0123 87.8561 81.8078 88.0682 82.7017 88.0682C83.3684 88.0682 83.9896 87.9394 84.5653 87.6818C85.1411 87.4242 85.6449 87.0682 86.0767 86.6136C86.5085 86.1515 86.8456 85.6288 87.0881 85.0455C87.3305 84.4621 87.4517 83.8485 87.4517 83.2045C87.4517 82.3485 87.2472 81.553 86.8381 80.8182C86.4366 80.0833 85.8835 79.4924 85.179 79.0455C84.4744 78.5909 83.6714 78.3636 82.7699 78.3636ZM103.227 99.3182C101.598 99.3182 100.159 99.0379 98.9091 98.4773C97.6667 97.9167 96.6932 97.1439 95.9886 96.1591C95.2841 95.1742 94.9356 94.053 94.9432 92.7955C94.9356 91.8106 95.1364 90.9053 95.5455 90.0795C95.9621 89.2462 96.5265 88.553 97.2386 88C97.9508 87.4394 98.7462 87.0833 99.625 86.9318V86.7955C98.4659 86.5152 97.5379 85.8939 96.8409 84.9318C96.1439 83.9697 95.7992 82.8636 95.8068 81.6136C95.7992 80.4242 96.1136 79.3636 96.75 78.4318C97.3939 77.4924 98.2765 76.7538 99.3977 76.2159C100.519 75.678 101.795 75.4091 103.227 75.4091C104.644 75.4091 105.909 75.6818 107.023 76.2273C108.144 76.7652 109.027 77.5038 109.67 78.4432C110.314 79.375 110.64 80.4318 110.648 81.6136C110.64 82.8636 110.284 83.9697 109.58 84.9318C108.875 85.8939 107.958 86.5152 106.83 86.7955V86.9318C107.701 87.0833 108.485 87.4394 109.182 88C109.886 88.553 110.447 89.2462 110.864 90.0795C111.288 90.9053 111.504 91.8106 111.511 92.7955C111.504 94.053 111.148 95.1742 110.443 96.1591C109.739 97.1439 108.761 97.9167 107.511 98.4773C106.269 99.0379 104.841 99.3182 103.227 99.3182ZM103.227 96.4432C104.189 96.4432 105.023 96.2841 105.727 95.9659C106.432 95.6402 106.977 95.1894 107.364 94.6136C107.75 94.0303 107.947 93.3485 107.955 92.5682C107.947 91.7576 107.735 91.0417 107.318 90.4205C106.909 89.7992 106.352 89.3106 105.648 88.9545C104.943 88.5985 104.136 88.4205 103.227 88.4205C102.311 88.4205 101.496 88.5985 100.784 88.9545C100.072 89.3106 99.5114 89.7992 99.1023 90.4205C98.6932 91.0417 98.4924 91.7576 98.5 92.5682C98.4924 93.3485 98.678 94.0303 99.0568 94.6136C99.4432 95.1894 99.9924 95.6402 100.705 95.9659C101.417 96.2841 102.258 96.4432 103.227 96.4432ZM103.227 85.6136C104 85.6136 104.686 85.4583 105.284 85.1477C105.883 84.8371 106.352 84.4053 106.693 83.8523C107.042 83.2992 107.22 82.6515 107.227 81.9091C107.22 81.1818 107.045 80.5455 106.705 80C106.371 79.4545 105.905 79.0341 105.307 78.7386C104.708 78.4356 104.015 78.2841 103.227 78.2841C102.424 78.2841 101.72 78.4356 101.114 78.7386C100.515 79.0341 100.049 79.4545 99.7159 80C99.3826 80.5455 99.2197 81.1818 99.2273 81.9091C99.2197 82.6515 99.3864 83.2992 99.7273 83.8523C100.068 84.4053 100.538 84.8371 101.136 85.1477C101.742 85.4583 102.439 85.6136 103.227 85.6136ZM116.366 99L126.526 78.9091V78.7386H114.776V75.7273H130.162V78.8409L120.037 99H116.366ZM134.58 95.8182L134.409 97.0568C134.295 97.9659 134.102 98.9129 133.83 99.8977C133.564 100.89 133.288 101.811 133 102.659C132.72 103.508 132.489 104.182 132.307 104.682H129.898C129.996 104.212 130.133 103.576 130.307 102.773C130.481 101.977 130.652 101.087 130.818 100.102C130.985 99.1174 131.11 98.1136 131.193 97.0909L131.307 95.8182H134.58ZM146.591 99.3182C145.03 99.3182 143.636 99.0492 142.409 98.5114C141.189 97.9735 140.223 97.2273 139.511 96.2727C138.807 95.3106 138.428 94.197 138.375 92.9318H141.943C141.989 93.6212 142.22 94.2197 142.636 94.7273C143.061 95.2273 143.614 95.6136 144.295 95.8864C144.977 96.1591 145.735 96.2955 146.568 96.2955C147.485 96.2955 148.295 96.1364 149 95.8182C149.712 95.5 150.269 95.0568 150.67 94.4886C151.072 93.9129 151.273 93.25 151.273 92.5C151.273 91.7197 151.072 91.0341 150.67 90.4432C150.277 89.8447 149.697 89.375 148.932 89.0341C148.174 88.6932 147.258 88.5227 146.182 88.5227H144.216V85.6591H146.182C147.045 85.6591 147.803 85.5038 148.455 85.1932C149.114 84.8826 149.629 84.4508 150 83.8977C150.371 83.3371 150.557 82.6818 150.557 81.9318C150.557 81.2121 150.394 80.5871 150.068 80.0568C149.75 79.5189 149.295 79.0985 148.705 78.7955C148.121 78.4924 147.432 78.3409 146.636 78.3409C145.879 78.3409 145.17 78.4811 144.511 78.7614C143.86 79.0341 143.33 79.428 142.92 79.9432C142.511 80.4508 142.292 81.0606 142.261 81.7727H138.864C138.902 80.5152 139.273 79.4091 139.977 78.4545C140.689 77.5 141.629 76.7538 142.795 76.2159C143.962 75.678 145.258 75.4091 146.682 75.4091C148.174 75.4091 149.462 75.7008 150.545 76.2841C151.636 76.8598 152.477 77.6288 153.068 78.5909C153.667 79.553 153.962 80.6061 153.955 81.75C153.962 83.053 153.598 84.1591 152.864 85.0682C152.136 85.9773 151.167 86.5871 149.955 86.8977V87.0795C151.5 87.3144 152.697 87.928 153.545 88.9205C154.402 89.9129 154.826 91.1439 154.818 92.6136C154.826 93.8939 154.47 95.0417 153.75 96.0568C153.038 97.072 152.064 97.8712 150.83 98.4545C149.595 99.0303 148.182 99.3182 146.591 99.3182ZM158.625 94.4545V91.6136L168.682 75.7273H170.92V79.9091H169.5L162.307 91.2955V91.4773H176.091V94.4545H158.625ZM169.659 99V93.5909L169.682 92.2955V75.7273H173.011V99H169.659Z" fill="#EC4899"/>
<rect x="64.5011" y="184.5" width="269" height="166" stroke="#BDBDBD" stroke-dasharray="1 1"/>
<path d="M64.0011 205H334.001" stroke="#BDBDBD" stroke-dasharray="2 2"/>
<path d="M64.0011 226H334.001" stroke="#BDBDBD" stroke-dasharray="2 2"/>
<path d="M64.0011 247H334.001" stroke="#BDBDBD" stroke-dasharray="2 2"/>
<path d="M64.0011 268H334.001" stroke="#BDBDBD" stroke-dasharray="2 2"/>
<path d="M64.0011 289H334.001" stroke="#BDBDBD" stroke-dasharray="2 2"/>
<path d="M64.0011 310H334.001" stroke="#BDBDBD" stroke-dasharray="2 2"/>
<path d="M64.0011 330H334.001" stroke="#BDBDBD" stroke-dasharray="2 2"/>
<path d="M107.001 184L107.001 351.212" stroke="#BDBDBD" stroke-dasharray="2 2"/>
<path d="M84.0011 184L84.0011 351.212" stroke="#BDBDBD" stroke-dasharray="2 2"/>
<path d="M130.001 184L130.001 351.212" stroke="#BDBDBD" stroke-dasharray="2 2"/>
<path d="M153.001 184L153.001 351.212" stroke="#BDBDBD" stroke-dasharray="2 2"/>
<path d="M176.001 184L176.001 351.212" stroke="#BDBDBD" stroke-dasharray="2 2"/>
<path d="M199.001 184L199.001 351.212" stroke="#BDBDBD" stroke-dasharray="2 2"/>
<path d="M222.001 184L222.001 351.212" stroke="#BDBDBD" stroke-dasharray="2 2"/>
<path d="M245.001 184L245.001 351.212" stroke="#BDBDBD" stroke-dasharray="2 2"/>
<path d="M268.001 184L268.001 351.212" stroke="#BDBDBD" stroke-dasharray="2 2"/>
<path d="M291.001 184L291.001 351.212" stroke="#BDBDBD" stroke-dasharray="2 2"/>
<path d="M314.001 184L314.001 351.212" stroke="#BDBDBD" stroke-dasharray="2 2"/>
<path d="M67.2984 357.455H68.091V362.134C68.091 362.551 68.0143 362.906 67.8609 363.198C67.7075 363.49 67.4912 363.711 67.2121 363.863C66.933 364.014 66.6038 364.09 66.2246 364.09C65.8666 364.09 65.5481 364.025 65.2689 363.895C64.9898 363.762 64.7704 363.575 64.6106 363.332C64.4508 363.089 64.3709 362.8 64.3709 362.466H65.1507C65.1507 362.651 65.1965 362.813 65.2881 362.952C65.3819 363.088 65.5097 363.195 65.6716 363.271C65.8336 363.348 66.0179 363.386 66.2246 363.386C66.4525 363.386 66.6464 363.338 66.8062 363.243C66.966 363.147 67.0875 363.006 67.1706 362.821C67.2558 362.633 67.2984 362.404 67.2984 362.134V357.455ZM71.0218 364.115C70.7107 364.115 70.4284 364.056 70.1748 363.939C69.9213 363.82 69.7199 363.648 69.5708 363.425C69.4216 363.199 69.3471 362.926 69.3471 362.607C69.3471 362.325 69.4025 362.097 69.5133 361.923C69.6241 361.746 69.7721 361.607 69.9575 361.507C70.1429 361.407 70.3474 361.332 70.5711 361.283C70.797 361.232 71.0239 361.192 71.2519 361.162C71.5502 361.124 71.792 361.095 71.9774 361.076C72.1649 361.054 72.3013 361.019 72.3865 360.97C72.4738 360.921 72.5175 360.836 72.5175 360.715V360.689C72.5175 360.374 72.4312 360.129 72.2586 359.954C72.0882 359.779 71.8293 359.692 71.482 359.692C71.1219 359.692 70.8396 359.771 70.6351 359.928C70.4305 360.086 70.2867 360.254 70.2036 360.433L69.4877 360.178C69.6155 359.879 69.786 359.647 69.9991 359.481C70.2143 359.313 70.4486 359.195 70.7022 359.129C70.9579 359.061 71.2093 359.027 71.4564 359.027C71.6141 359.027 71.7952 359.046 71.9998 359.085C72.2064 359.121 72.4057 359.196 72.5974 359.311C72.7913 359.427 72.9522 359.6 73.08 359.832C73.2079 360.065 73.2718 360.376 73.2718 360.766V364H72.5175V363.335H72.4792C72.428 363.442 72.3428 363.556 72.2235 363.677C72.1042 363.799 71.9454 363.902 71.7473 363.987C71.5491 364.072 71.3073 364.115 71.0218 364.115ZM71.1368 363.438C71.4351 363.438 71.6866 363.379 71.8911 363.262C72.0978 363.145 72.2533 362.993 72.3577 362.808C72.4643 362.623 72.5175 362.428 72.5175 362.223V361.533C72.4856 361.571 72.4153 361.606 72.3066 361.638C72.2001 361.668 72.0765 361.695 71.9358 361.718C71.7974 361.739 71.6621 361.759 71.53 361.776C71.4 361.791 71.2945 361.803 71.2135 361.814C71.0175 361.84 70.8343 361.881 70.6638 361.939C70.4955 361.994 70.3591 362.078 70.2547 362.191C70.1525 362.302 70.1013 362.453 70.1013 362.645C70.1013 362.907 70.1983 363.105 70.3922 363.239C70.5882 363.371 70.8364 363.438 71.1368 363.438ZM75.4027 361.047V364H74.6485V359.091H75.3772V359.858H75.4411C75.5561 359.609 75.7309 359.408 75.9652 359.257C76.1996 359.104 76.5022 359.027 76.8729 359.027C77.2053 359.027 77.4961 359.095 77.7454 359.232C77.9947 359.366 78.1886 359.57 78.3271 359.845C78.4656 360.118 78.5348 360.463 78.5348 360.881V364H77.7806V360.932C77.7806 360.546 77.6804 360.246 77.4801 360.031C77.2799 359.813 77.005 359.705 76.6556 359.705C76.4148 359.705 76.1996 359.757 76.01 359.861C75.8225 359.966 75.6744 360.118 75.5657 360.318C75.4571 360.518 75.4027 360.761 75.4027 361.047Z" fill="#4F4F4F"/>
<path d="M84.7927 364V357.455H88.7175V358.158H85.5853V360.369H88.4234V361.072H85.5853V364H84.7927ZM91.6706 364.102C91.1976 364.102 90.7895 363.998 90.4465 363.789C90.1056 363.578 89.8425 363.284 89.6571 362.907C89.4738 362.528 89.3822 362.087 89.3822 361.584C89.3822 361.081 89.4738 360.638 89.6571 360.254C89.8425 359.869 90.1003 359.568 90.4305 359.353C90.7629 359.136 91.1507 359.027 91.5939 359.027C91.8496 359.027 92.102 359.07 92.3513 359.155C92.6006 359.24 92.8275 359.379 93.0321 359.57C93.2366 359.76 93.3996 360.011 93.5211 360.325C93.6425 360.638 93.7032 361.023 93.7032 361.482V361.801H89.9192V361.149H92.9362C92.9362 360.872 92.8808 360.625 92.77 360.408C92.6613 360.19 92.5058 360.019 92.3034 359.893C92.1031 359.767 91.8666 359.705 91.5939 359.705C91.2934 359.705 91.0335 359.779 90.814 359.928C90.5967 360.075 90.4295 360.267 90.3123 360.504C90.1951 360.74 90.1365 360.994 90.1365 361.264V361.699C90.1365 362.07 90.2004 362.384 90.3282 362.642C90.4582 362.897 90.6383 363.092 90.8684 363.227C91.0985 363.359 91.3659 363.425 91.6706 363.425C91.8687 363.425 92.0477 363.397 92.2075 363.342C92.3694 363.284 92.509 363.199 92.6262 363.086C92.7434 362.971 92.8339 362.828 92.8978 362.658L93.6265 362.862C93.5498 363.109 93.4209 363.327 93.2398 363.514C93.0587 363.7 92.835 363.844 92.5687 363.949C92.3023 364.051 92.003 364.102 91.6706 364.102ZM94.9529 364V357.455H95.7072V359.871H95.7711C95.8265 359.786 95.9032 359.677 96.0012 359.545C96.1013 359.411 96.2441 359.291 96.4295 359.187C96.617 359.08 96.8705 359.027 97.1901 359.027C97.6035 359.027 97.9678 359.13 98.2831 359.337C98.5985 359.544 98.8446 359.837 99.0214 360.216C99.1983 360.595 99.2867 361.043 99.2867 361.558C99.2867 362.078 99.1983 362.529 99.0214 362.91C98.8446 363.289 98.5996 363.583 98.2863 363.792C97.9731 363.999 97.612 364.102 97.2029 364.102C96.8876 364.102 96.6351 364.05 96.4454 363.946C96.2558 363.839 96.1099 363.719 96.0076 363.585C95.9053 363.448 95.8265 363.335 95.7711 363.246H95.6816V364H94.9529ZM95.6944 361.545C95.6944 361.916 95.7487 362.243 95.8574 362.527C95.966 362.808 96.1248 363.028 96.3336 363.188C96.5424 363.346 96.7981 363.425 97.1006 363.425C97.416 363.425 97.6791 363.342 97.89 363.175C98.1031 363.007 98.2629 362.781 98.3694 362.498C98.4781 362.212 98.5324 361.895 98.5324 361.545C98.5324 361.2 98.4792 360.889 98.3726 360.612C98.2682 360.333 98.1095 360.113 97.8964 359.951C97.6855 359.787 97.4202 359.705 97.1006 359.705C96.7938 359.705 96.536 359.782 96.3272 359.938C96.1184 360.091 95.9607 360.306 95.8542 360.583C95.7476 360.858 95.6944 361.179 95.6944 361.545Z" fill="#4F4F4F"/>
<path d="M107.793 357.455H108.739L110.963 362.888H111.04L113.264 357.455H114.21V364H113.469V359.027H113.405L111.359 364H110.644L108.598 359.027H108.534V364H107.793V357.455ZM117.142 364.115C116.831 364.115 116.549 364.056 116.295 363.939C116.041 363.82 115.84 363.648 115.691 363.425C115.542 363.199 115.467 362.926 115.467 362.607C115.467 362.325 115.523 362.097 115.633 361.923C115.744 361.746 115.892 361.607 116.078 361.507C116.263 361.407 116.468 361.332 116.691 361.283C116.917 361.232 117.144 361.192 117.372 361.162C117.67 361.124 117.912 361.095 118.098 361.076C118.285 361.054 118.421 361.019 118.507 360.97C118.594 360.921 118.638 360.836 118.638 360.715V360.689C118.638 360.374 118.551 360.129 118.379 359.954C118.208 359.779 117.949 359.692 117.602 359.692C117.242 359.692 116.96 359.771 116.755 359.928C116.551 360.086 116.407 360.254 116.324 360.433L115.608 360.178C115.736 359.879 115.906 359.647 116.119 359.481C116.334 359.313 116.569 359.195 116.822 359.129C117.078 359.061 117.329 359.027 117.577 359.027C117.734 359.027 117.915 359.046 118.12 359.085C118.327 359.121 118.526 359.196 118.718 359.311C118.911 359.427 119.072 359.6 119.2 359.832C119.328 360.065 119.392 360.376 119.392 360.766V364H118.638V363.335H118.599C118.548 363.442 118.463 363.556 118.344 363.677C118.224 363.799 118.066 363.902 117.867 363.987C117.669 364.072 117.427 364.115 117.142 364.115ZM117.257 363.438C117.555 363.438 117.807 363.379 118.011 363.262C118.218 363.145 118.373 362.993 118.478 362.808C118.584 362.623 118.638 362.428 118.638 362.223V361.533C118.606 361.571 118.535 361.606 118.427 361.638C118.32 361.668 118.197 361.695 118.056 361.718C117.917 361.739 117.782 361.759 117.65 361.776C117.52 361.791 117.415 361.803 117.334 361.814C117.138 361.84 116.954 361.881 116.784 361.939C116.616 361.994 116.479 362.078 116.375 362.191C116.273 362.302 116.221 362.453 116.221 362.645C116.221 362.907 116.318 363.105 116.512 363.239C116.708 363.371 116.957 363.438 117.257 363.438ZM120.769 364V359.091H121.497V359.832H121.548C121.638 359.59 121.8 359.392 122.034 359.241C122.269 359.09 122.533 359.014 122.827 359.014C122.882 359.014 122.951 359.015 123.035 359.017C123.118 359.02 123.181 359.023 123.223 359.027V359.794C123.198 359.788 123.139 359.778 123.047 359.765C122.958 359.75 122.863 359.743 122.763 359.743C122.524 359.743 122.311 359.793 122.124 359.893C121.938 359.991 121.791 360.128 121.683 360.302C121.576 360.475 121.523 360.672 121.523 360.893V364H120.769Z" fill="#4F4F4F"/>
<path d="M131.061 364H130.23L132.634 357.455H133.452L135.855 364H135.024L133.068 358.49H133.017L131.061 364ZM131.368 361.443H134.717V362.146H131.368V361.443ZM136.772 365.841V359.091H137.501V359.871H137.591C137.646 359.786 137.723 359.677 137.821 359.545C137.921 359.411 138.064 359.291 138.249 359.187C138.437 359.08 138.69 359.027 139.01 359.027C139.423 359.027 139.787 359.13 140.103 359.337C140.418 359.544 140.664 359.837 140.841 360.216C141.018 360.595 141.106 361.043 141.106 361.558C141.106 362.078 141.018 362.529 140.841 362.91C140.664 363.289 140.419 363.583 140.106 363.792C139.793 363.999 139.432 364.102 139.022 364.102C138.707 364.102 138.455 364.05 138.265 363.946C138.075 363.839 137.929 363.719 137.827 363.585C137.725 363.448 137.646 363.335 137.591 363.246H137.527V365.841H136.772ZM137.514 361.545C137.514 361.916 137.568 362.243 137.677 362.527C137.786 362.808 137.944 363.028 138.153 363.188C138.362 363.346 138.618 363.425 138.92 363.425C139.236 363.425 139.499 363.342 139.71 363.175C139.923 363.007 140.083 362.781 140.189 362.498C140.298 362.212 140.352 361.895 140.352 361.545C140.352 361.2 140.299 360.889 140.192 360.612C140.088 360.333 139.929 360.113 139.716 359.951C139.505 359.787 139.24 359.705 138.92 359.705C138.613 359.705 138.356 359.782 138.147 359.938C137.938 360.091 137.78 360.306 137.674 360.583C137.567 360.858 137.514 361.179 137.514 361.545ZM142.257 364V359.091H142.986V359.832H143.037C143.126 359.59 143.288 359.392 143.522 359.241C143.757 359.09 144.021 359.014 144.315 359.014C144.371 359.014 144.44 359.015 144.523 359.017C144.606 359.02 144.669 359.023 144.711 359.027V359.794C144.686 359.788 144.627 359.778 144.536 359.765C144.446 359.75 144.351 359.743 144.251 359.743C144.013 359.743 143.799 359.793 143.612 359.893C143.427 359.991 143.28 360.128 143.171 360.302C143.064 360.475 143.011 360.672 143.011 360.893V364H142.257Z" fill="#4F4F4F"/>
<path d="M153.793 357.455H154.739L156.963 362.888H157.04L159.264 357.455H160.21V364H159.469V359.027H159.405L157.359 364H156.644L154.598 359.027H154.534V364H153.793V357.455ZM163.142 364.115C162.831 364.115 162.549 364.056 162.295 363.939C162.041 363.82 161.84 363.648 161.691 363.425C161.542 363.199 161.467 362.926 161.467 362.607C161.467 362.325 161.523 362.097 161.633 361.923C161.744 361.746 161.892 361.607 162.078 361.507C162.263 361.407 162.468 361.332 162.691 361.283C162.917 361.232 163.144 361.192 163.372 361.162C163.67 361.124 163.912 361.095 164.098 361.076C164.285 361.054 164.421 361.019 164.507 360.97C164.594 360.921 164.638 360.836 164.638 360.715V360.689C164.638 360.374 164.551 360.129 164.379 359.954C164.208 359.779 163.949 359.692 163.602 359.692C163.242 359.692 162.96 359.771 162.755 359.928C162.551 360.086 162.407 360.254 162.324 360.433L161.608 360.178C161.736 359.879 161.906 359.647 162.119 359.481C162.334 359.313 162.569 359.195 162.822 359.129C163.078 359.061 163.329 359.027 163.577 359.027C163.734 359.027 163.915 359.046 164.12 359.085C164.327 359.121 164.526 359.196 164.718 359.311C164.911 359.427 165.072 359.6 165.2 359.832C165.328 360.065 165.392 360.376 165.392 360.766V364H164.638V363.335H164.599C164.548 363.442 164.463 363.556 164.344 363.677C164.224 363.799 164.066 363.902 163.867 363.987C163.669 364.072 163.427 364.115 163.142 364.115ZM163.257 363.438C163.555 363.438 163.807 363.379 164.011 363.262C164.218 363.145 164.373 362.993 164.478 362.808C164.584 362.623 164.638 362.428 164.638 362.223V361.533C164.606 361.571 164.535 361.606 164.427 361.638C164.32 361.668 164.197 361.695 164.056 361.718C163.917 361.739 163.782 361.759 163.65 361.776C163.52 361.791 163.415 361.803 163.334 361.814C163.138 361.84 162.954 361.881 162.784 361.939C162.616 361.994 162.479 362.078 162.375 362.191C162.273 362.302 162.221 362.453 162.221 362.645C162.221 362.907 162.318 363.105 162.512 363.239C162.708 363.371 162.957 363.438 163.257 363.438ZM166.769 364V359.091H167.523V364H166.769ZM167.152 358.273C167.005 358.273 166.878 358.223 166.772 358.123C166.667 358.022 166.615 357.902 166.615 357.761C166.615 357.621 166.667 357.5 166.772 357.4C166.878 357.3 167.005 357.25 167.152 357.25C167.299 357.25 167.425 357.3 167.529 357.4C167.636 357.5 167.689 357.621 167.689 357.761C167.689 357.902 167.636 358.022 167.529 358.123C167.425 358.223 167.299 358.273 167.152 358.273Z" fill="#4F4F4F"/>
<path d="M179.298 357.455H180.091V362.134C180.091 362.551 180.014 362.906 179.861 363.198C179.708 363.49 179.491 363.711 179.212 363.863C178.933 364.014 178.604 364.09 178.225 364.09C177.867 364.09 177.548 364.025 177.269 363.895C176.99 363.762 176.77 363.575 176.611 363.332C176.451 363.089 176.371 362.8 176.371 362.466H177.151C177.151 362.651 177.196 362.813 177.288 362.952C177.382 363.088 177.51 363.195 177.672 363.271C177.834 363.348 178.018 363.386 178.225 363.386C178.453 363.386 178.646 363.338 178.806 363.243C178.966 363.147 179.087 363.006 179.171 362.821C179.256 362.633 179.298 362.404 179.298 362.134V357.455ZM184.671 361.993V359.091H185.425V364H184.671V363.169H184.62C184.505 363.418 184.326 363.63 184.083 363.805C183.84 363.978 183.533 364.064 183.162 364.064C182.856 364.064 182.583 363.997 182.344 363.863C182.106 363.726 181.918 363.522 181.782 363.249C181.645 362.974 181.577 362.628 181.577 362.21V359.091H182.331V362.159C182.331 362.517 182.432 362.803 182.632 363.016C182.834 363.229 183.092 363.335 183.405 363.335C183.593 363.335 183.784 363.287 183.977 363.191C184.173 363.096 184.337 362.949 184.47 362.75C184.604 362.552 184.671 362.3 184.671 361.993ZM187.561 361.047V364H186.807V359.091H187.535V359.858H187.599C187.714 359.609 187.889 359.408 188.123 359.257C188.358 359.104 188.66 359.027 189.031 359.027C189.363 359.027 189.654 359.095 189.904 359.232C190.153 359.366 190.347 359.57 190.485 359.845C190.624 360.118 190.693 360.463 190.693 360.881V364H189.939V360.932C189.939 360.546 189.839 360.246 189.638 360.031C189.438 359.813 189.163 359.705 188.814 359.705C188.573 359.705 188.358 359.757 188.168 359.861C187.981 359.966 187.833 360.118 187.724 360.318C187.615 360.518 187.561 360.761 187.561 361.047Z" fill="#4F4F4F"/>
<path d="M202.298 357.455H203.091V362.134C203.091 362.551 203.014 362.906 202.861 363.198C202.708 363.49 202.491 363.711 202.212 363.863C201.933 364.014 201.604 364.09 201.225 364.09C200.867 364.09 200.548 364.025 200.269 363.895C199.99 363.762 199.77 363.575 199.611 363.332C199.451 363.089 199.371 362.8 199.371 362.466H200.151C200.151 362.651 200.196 362.813 200.288 362.952C200.382 363.088 200.51 363.195 200.672 363.271C200.834 363.348 201.018 363.386 201.225 363.386C201.453 363.386 201.646 363.338 201.806 363.243C201.966 363.147 202.087 363.006 202.171 362.821C202.256 362.633 202.298 362.404 202.298 362.134V357.455ZM207.671 361.993V359.091H208.425V364H207.671V363.169H207.62C207.505 363.418 207.326 363.63 207.083 363.805C206.84 363.978 206.533 364.064 206.162 364.064C205.856 364.064 205.583 363.997 205.344 363.863C205.106 363.726 204.918 363.522 204.782 363.249C204.645 362.974 204.577 362.628 204.577 362.21V359.091H205.331V362.159C205.331 362.517 205.432 362.803 205.632 363.016C205.834 363.229 206.092 363.335 206.405 363.335C206.593 363.335 206.784 363.287 206.977 363.191C207.173 363.096 207.337 362.949 207.47 362.75C207.604 362.552 207.671 362.3 207.671 361.993ZM210.561 357.455V364H209.807V357.455H210.561Z" fill="#4F4F4F"/>
<path d="M223.061 364H222.23L224.634 357.455H225.452L227.855 364H227.024L225.068 358.49H225.017L223.061 364ZM223.368 361.443H226.717V362.146H223.368V361.443ZM231.866 361.993V359.091H232.621V364H231.866V363.169H231.815C231.7 363.418 231.521 363.63 231.278 363.805C231.035 363.978 230.728 364.064 230.358 364.064C230.051 364.064 229.778 363.997 229.54 363.863C229.301 363.726 229.113 363.522 228.977 363.249C228.841 362.974 228.772 362.628 228.772 362.21V359.091H229.527V362.159C229.527 362.517 229.627 362.803 229.827 363.016C230.03 363.229 230.287 363.335 230.601 363.335C230.788 363.335 230.979 363.287 231.173 363.191C231.369 363.096 231.533 362.949 231.665 362.75C231.799 362.552 231.866 362.3 231.866 361.993ZM235.984 365.943C235.619 365.943 235.306 365.896 235.044 365.803C234.782 365.711 234.563 365.59 234.389 365.438C234.216 365.289 234.079 365.129 233.976 364.959L234.577 364.537C234.645 364.626 234.732 364.729 234.836 364.844C234.941 364.961 235.083 365.062 235.264 365.147C235.448 365.235 235.687 365.278 235.984 365.278C236.38 365.278 236.707 365.183 236.965 364.991C237.223 364.799 237.351 364.499 237.351 364.09V363.092H237.287C237.232 363.182 237.153 363.293 237.051 363.425C236.951 363.555 236.806 363.671 236.616 363.773C236.429 363.873 236.175 363.923 235.856 363.923C235.459 363.923 235.104 363.83 234.788 363.642C234.475 363.455 234.227 363.182 234.044 362.824C233.862 362.466 233.772 362.031 233.772 361.52C233.772 361.017 233.86 360.579 234.037 360.206C234.214 359.831 234.46 359.542 234.775 359.337C235.091 359.13 235.455 359.027 235.868 359.027C236.188 359.027 236.442 359.08 236.629 359.187C236.819 359.291 236.964 359.411 237.064 359.545C237.166 359.677 237.245 359.786 237.3 359.871H237.377V359.091H238.106V364.141C238.106 364.563 238.01 364.906 237.818 365.17C237.628 365.436 237.373 365.631 237.051 365.755C236.731 365.88 236.376 365.943 235.984 365.943ZM235.958 363.246C236.261 363.246 236.516 363.177 236.725 363.038C236.934 362.9 237.093 362.7 237.201 362.44C237.31 362.18 237.364 361.869 237.364 361.507C237.364 361.153 237.311 360.841 237.204 360.571C237.098 360.3 236.94 360.088 236.731 359.935C236.523 359.781 236.265 359.705 235.958 359.705C235.638 359.705 235.372 359.786 235.159 359.947C234.948 360.109 234.789 360.327 234.683 360.599C234.578 360.872 234.526 361.175 234.526 361.507C234.526 361.848 234.579 362.15 234.686 362.412C234.795 362.672 234.954 362.876 235.165 363.025C235.378 363.172 235.643 363.246 235.958 363.246Z" fill="#4F4F4F"/>
<path d="M249.372 359.091C249.334 358.767 249.178 358.516 248.906 358.337C248.633 358.158 248.298 358.068 247.902 358.068C247.612 358.068 247.359 358.115 247.141 358.209C246.926 358.303 246.758 358.431 246.636 358.596C246.517 358.76 246.458 358.946 246.458 359.155C246.458 359.33 246.499 359.48 246.582 359.605C246.667 359.729 246.776 359.832 246.908 359.916C247.04 359.996 247.179 360.064 247.324 360.117C247.469 360.168 247.602 360.21 247.723 360.242L248.388 360.42C248.558 360.465 248.748 360.527 248.957 360.606C249.168 360.685 249.369 360.792 249.561 360.929C249.755 361.063 249.915 361.235 250.04 361.446C250.166 361.657 250.229 361.916 250.229 362.223C250.229 362.577 250.136 362.896 249.951 363.182C249.768 363.467 249.499 363.694 249.145 363.863C248.794 364.031 248.367 364.115 247.864 364.115C247.395 364.115 246.989 364.039 246.646 363.888C246.305 363.737 246.037 363.526 245.841 363.255C245.647 362.985 245.537 362.67 245.511 362.313H246.33C246.351 362.56 246.434 362.764 246.579 362.926C246.726 363.086 246.911 363.205 247.135 363.284C247.361 363.361 247.604 363.399 247.864 363.399C248.166 363.399 248.438 363.35 248.679 363.252C248.92 363.152 249.11 363.014 249.251 362.837C249.391 362.658 249.462 362.449 249.462 362.21C249.462 361.993 249.401 361.816 249.28 361.68C249.158 361.543 248.998 361.433 248.8 361.347C248.602 361.262 248.388 361.188 248.158 361.124L247.352 360.893C246.841 360.746 246.436 360.537 246.138 360.264C245.84 359.991 245.69 359.634 245.69 359.193C245.69 358.827 245.79 358.507 245.988 358.234C246.188 357.96 246.456 357.746 246.793 357.595C247.132 357.442 247.51 357.365 247.928 357.365C248.35 357.365 248.725 357.441 249.053 357.592C249.381 357.741 249.641 357.946 249.833 358.206C250.026 358.466 250.129 358.761 250.139 359.091H249.372ZM253.488 364.102C253.015 364.102 252.607 363.998 252.264 363.789C251.923 363.578 251.66 363.284 251.474 362.907C251.291 362.528 251.2 362.087 251.2 361.584C251.2 361.081 251.291 360.638 251.474 360.254C251.66 359.869 251.918 359.568 252.248 359.353C252.58 359.136 252.968 359.027 253.411 359.027C253.667 359.027 253.919 359.07 254.169 359.155C254.418 359.24 254.645 359.379 254.849 359.57C255.054 359.76 255.217 360.011 255.338 360.325C255.46 360.638 255.521 361.023 255.521 361.482V361.801H251.737V361.149H254.754C254.754 360.872 254.698 360.625 254.587 360.408C254.479 360.19 254.323 360.019 254.121 359.893C253.92 359.767 253.684 359.705 253.411 359.705C253.111 359.705 252.851 359.779 252.631 359.928C252.414 360.075 252.247 360.267 252.13 360.504C252.012 360.74 251.954 360.994 251.954 361.264V361.699C251.954 362.07 252.018 362.384 252.146 362.642C252.276 362.897 252.456 363.092 252.686 363.227C252.916 363.359 253.183 363.425 253.488 363.425C253.686 363.425 253.865 363.397 254.025 363.342C254.187 363.284 254.326 363.199 254.444 363.086C254.561 362.971 254.651 362.828 254.715 362.658L255.444 362.862C255.367 363.109 255.238 363.327 255.057 363.514C254.876 363.7 254.652 363.844 254.386 363.949C254.12 364.051 253.82 364.102 253.488 364.102ZM256.668 365.841V359.091H257.397V359.871H257.486C257.542 359.786 257.618 359.677 257.716 359.545C257.816 359.411 257.959 359.291 258.145 359.187C258.332 359.08 258.586 359.027 258.905 359.027C259.319 359.027 259.683 359.13 259.998 359.337C260.314 359.544 260.56 359.837 260.737 360.216C260.913 360.595 261.002 361.043 261.002 361.558C261.002 362.078 260.913 362.529 260.737 362.91C260.56 363.289 260.315 363.583 260.001 363.792C259.688 363.999 259.327 364.102 258.918 364.102C258.603 364.102 258.35 364.05 258.161 363.946C257.971 363.839 257.825 363.719 257.723 363.585C257.62 363.448 257.542 363.335 257.486 363.246H257.422V365.841H256.668ZM257.409 361.545C257.409 361.916 257.464 362.243 257.572 362.527C257.681 362.808 257.84 363.028 258.049 363.188C258.257 363.346 258.513 363.425 258.816 363.425C259.131 363.425 259.394 363.342 259.605 363.175C259.818 363.007 259.978 362.781 260.085 362.498C260.193 362.212 260.248 361.895 260.248 361.545C260.248 361.2 260.194 360.889 260.088 360.612C259.983 360.333 259.825 360.113 259.612 359.951C259.401 359.787 259.135 359.705 258.816 359.705C258.509 359.705 258.251 359.782 258.042 359.938C257.833 360.091 257.676 360.306 257.569 360.583C257.463 360.858 257.409 361.179 257.409 361.545Z" fill="#4F4F4F"/>
<path d="M274.315 360.727C274.315 361.418 274.191 362.014 273.942 362.517C273.692 363.02 273.35 363.408 272.916 363.68C272.481 363.953 271.984 364.09 271.426 364.09C270.868 364.09 270.372 363.953 269.937 363.68C269.502 363.408 269.16 363.02 268.911 362.517C268.662 362.014 268.537 361.418 268.537 360.727C268.537 360.037 268.662 359.44 268.911 358.938C269.16 358.435 269.502 358.047 269.937 357.774C270.372 357.501 270.868 357.365 271.426 357.365C271.984 357.365 272.481 357.501 272.916 357.774C273.35 358.047 273.692 358.435 273.942 358.938C274.191 359.44 274.315 360.037 274.315 360.727ZM273.548 360.727C273.548 360.161 273.454 359.682 273.264 359.292C273.076 358.902 272.822 358.607 272.5 358.407C272.181 358.207 271.823 358.107 271.426 358.107C271.03 358.107 270.671 358.207 270.349 358.407C270.03 358.607 269.775 358.902 269.585 359.292C269.398 359.682 269.304 360.161 269.304 360.727C269.304 361.294 269.398 361.772 269.585 362.162C269.775 362.552 270.03 362.847 270.349 363.048C270.671 363.248 271.03 363.348 271.426 363.348C271.823 363.348 272.181 363.248 272.5 363.048C272.822 362.847 273.076 362.552 273.264 362.162C273.454 361.772 273.548 361.294 273.548 360.727ZM277.54 364.102C277.08 364.102 276.684 363.994 276.351 363.776C276.019 363.559 275.763 363.26 275.584 362.878C275.405 362.497 275.316 362.061 275.316 361.571C275.316 361.072 275.407 360.632 275.591 360.251C275.776 359.868 276.034 359.568 276.364 359.353C276.696 359.136 277.084 359.027 277.527 359.027C277.873 359.027 278.184 359.091 278.461 359.219C278.738 359.347 278.965 359.526 279.141 359.756C279.318 359.986 279.428 360.254 279.471 360.561H278.716C278.659 360.337 278.531 360.139 278.333 359.967C278.137 359.792 277.873 359.705 277.54 359.705C277.246 359.705 276.988 359.781 276.767 359.935C276.547 360.086 276.376 360.3 276.252 360.577C276.131 360.852 276.07 361.175 276.07 361.545C276.07 361.925 276.13 362.255 276.249 362.536C276.371 362.818 276.541 363.036 276.76 363.191C276.982 363.347 277.242 363.425 277.54 363.425C277.736 363.425 277.914 363.391 278.074 363.322C278.234 363.254 278.369 363.156 278.48 363.028C278.591 362.901 278.67 362.747 278.716 362.568H279.471C279.428 362.858 279.323 363.119 279.154 363.351C278.988 363.581 278.768 363.765 278.493 363.901C278.22 364.035 277.902 364.102 277.54 364.102ZM282.708 359.091V359.73H280.164V359.091H282.708ZM280.906 357.915H281.66V362.594C281.66 362.807 281.691 362.967 281.753 363.073C281.817 363.178 281.897 363.248 281.996 363.284C282.096 363.318 282.201 363.335 282.312 363.335C282.395 363.335 282.463 363.331 282.516 363.322C282.57 363.312 282.612 363.303 282.644 363.297L282.798 363.974C282.747 363.994 282.675 364.013 282.584 364.032C282.492 364.053 282.376 364.064 282.235 364.064C282.022 364.064 281.813 364.018 281.609 363.927C281.406 363.835 281.238 363.695 281.104 363.508C280.972 363.32 280.906 363.084 280.906 362.798V357.915Z" fill="#4F4F4F"/>
<path d="M296.983 357.455V364H296.216L292.649 358.861H292.585V364H291.793V357.455H292.56L296.139 362.607H296.203V357.455H296.983ZM300.461 364.102C300.018 364.102 299.629 363.997 299.295 363.786C298.962 363.575 298.702 363.28 298.515 362.901C298.329 362.521 298.237 362.078 298.237 361.571C298.237 361.06 298.329 360.613 298.515 360.232C298.702 359.851 298.962 359.554 299.295 359.343C299.629 359.132 300.018 359.027 300.461 359.027C300.904 359.027 301.292 359.132 301.625 359.343C301.959 359.554 302.219 359.851 302.404 360.232C302.592 360.613 302.686 361.06 302.686 361.571C302.686 362.078 302.592 362.521 302.404 362.901C302.219 363.28 301.959 363.575 301.625 363.786C301.292 363.997 300.904 364.102 300.461 364.102ZM300.461 363.425C300.798 363.425 301.075 363.338 301.292 363.166C301.509 362.993 301.67 362.766 301.775 362.485C301.879 362.204 301.931 361.899 301.931 361.571C301.931 361.243 301.879 360.937 301.775 360.654C301.67 360.37 301.509 360.141 301.292 359.967C301.075 359.792 300.798 359.705 300.461 359.705C300.125 359.705 299.848 359.792 299.63 359.967C299.413 360.141 299.252 360.37 299.148 360.654C299.043 360.937 298.991 361.243 298.991 361.571C298.991 361.899 299.043 362.204 299.148 362.485C299.252 362.766 299.413 362.993 299.63 363.166C299.848 363.338 300.125 363.425 300.461 363.425ZM307.675 359.091L305.86 364H305.093L303.278 359.091H304.096L305.451 363.003H305.502L306.857 359.091H307.675Z" fill="#4F4F4F"/>
<path d="M316.813 364H314.793V357.455H316.902C317.537 357.455 318.08 357.586 318.532 357.848C318.984 358.108 319.33 358.482 319.571 358.969C319.812 359.455 319.932 360.037 319.932 360.715C319.932 361.396 319.81 361.983 319.568 362.476C319.325 362.966 318.971 363.343 318.507 363.607C318.042 363.869 317.477 364 316.813 364ZM315.585 363.297H316.761C317.303 363.297 317.751 363.193 318.107 362.984C318.463 362.775 318.728 362.478 318.903 362.092C319.078 361.706 319.165 361.247 319.165 360.715C319.165 360.186 319.079 359.731 318.906 359.35C318.733 358.966 318.476 358.672 318.133 358.468C317.79 358.261 317.362 358.158 316.851 358.158H315.585V363.297ZM323.217 364.102C322.744 364.102 322.336 363.998 321.993 363.789C321.652 363.578 321.389 363.284 321.204 362.907C321.021 362.528 320.929 362.087 320.929 361.584C320.929 361.081 321.021 360.638 321.204 360.254C321.389 359.869 321.647 359.568 321.977 359.353C322.31 359.136 322.698 359.027 323.141 359.027C323.396 359.027 323.649 359.07 323.898 359.155C324.147 359.24 324.374 359.379 324.579 359.57C324.784 359.76 324.947 360.011 325.068 360.325C325.189 360.638 325.25 361.023 325.25 361.482V361.801H321.466V361.149H324.483C324.483 360.872 324.428 360.625 324.317 360.408C324.208 360.19 324.053 360.019 323.85 359.893C323.65 359.767 323.413 359.705 323.141 359.705C322.84 359.705 322.58 359.779 322.361 359.928C322.144 360.075 321.976 360.267 321.859 360.504C321.742 360.74 321.683 360.994 321.683 361.264V361.699C321.683 362.07 321.747 362.384 321.875 362.642C322.005 362.897 322.185 363.092 322.415 363.227C322.645 363.359 322.913 363.425 323.217 363.425C323.416 363.425 323.595 363.397 323.754 363.342C323.916 363.284 324.056 363.199 324.173 363.086C324.29 362.971 324.381 362.828 324.445 362.658L325.173 362.862C325.097 363.109 324.968 363.327 324.787 363.514C324.606 363.7 324.382 363.844 324.116 363.949C323.849 364.051 323.55 364.102 323.217 364.102ZM328.392 364.102C327.932 364.102 327.535 363.994 327.203 363.776C326.871 363.559 326.615 363.26 326.436 362.878C326.257 362.497 326.167 362.061 326.167 361.571C326.167 361.072 326.259 360.632 326.442 360.251C326.628 359.868 326.885 359.568 327.216 359.353C327.548 359.136 327.936 359.027 328.379 359.027C328.724 359.027 329.035 359.091 329.312 359.219C329.589 359.347 329.816 359.526 329.993 359.756C330.17 359.986 330.28 360.254 330.322 360.561H329.568C329.51 360.337 329.383 360.139 329.184 359.967C328.988 359.792 328.724 359.705 328.392 359.705C328.098 359.705 327.84 359.781 327.618 359.935C327.399 360.086 327.227 360.3 327.104 360.577C326.982 360.852 326.922 361.175 326.922 361.545C326.922 361.925 326.981 362.255 327.101 362.536C327.222 362.818 327.393 363.036 327.612 363.191C327.834 363.347 328.094 363.425 328.392 363.425C328.588 363.425 328.766 363.391 328.926 363.322C329.085 363.254 329.221 363.156 329.331 363.028C329.442 362.901 329.521 362.747 329.568 362.568H330.322C330.28 362.858 330.174 363.119 330.006 363.351C329.84 363.581 329.619 363.765 329.344 363.901C329.072 364.035 328.754 364.102 328.392 364.102Z" fill="#4F4F4F"/>
<path d="M53.1876 350.089C52.7061 350.089 52.2959 349.958 51.9572 349.696C51.6184 349.432 51.3595 349.05 51.1805 348.549C51.0015 348.046 50.9121 347.439 50.9121 346.727C50.9121 346.02 51.0015 345.416 51.1805 344.915C51.3616 344.412 51.6216 344.029 51.9603 343.765C52.3013 343.498 52.7103 343.365 53.1876 343.365C53.6649 343.365 54.0729 343.498 54.4117 343.765C54.7526 344.029 55.0126 344.412 55.1915 344.915C55.3726 345.416 55.4632 346.02 55.4632 346.727C55.4632 347.439 55.3737 348.046 55.1947 348.549C55.0157 349.05 54.7569 349.432 54.4181 349.696C54.0793 349.958 53.6692 350.089 53.1876 350.089ZM53.1876 349.386C53.6649 349.386 54.0356 349.156 54.2998 348.696C54.564 348.236 54.6961 347.58 54.6961 346.727C54.6961 346.161 54.6354 345.678 54.514 345.279C54.3947 344.881 54.2221 344.577 53.9962 344.369C53.7725 344.16 53.503 344.055 53.1876 344.055C52.7146 344.055 52.3449 344.289 52.0786 344.755C51.8123 345.22 51.6791 345.877 51.6791 346.727C51.6791 347.294 51.7388 347.776 51.8581 348.172C51.9774 348.568 52.1489 348.87 52.3726 349.076C52.5985 349.283 52.8702 349.386 53.1876 349.386Z" fill="#4F4F4F"/>
<path d="M41.7786 323.455V330H40.986V324.286H40.9477L39.3496 325.347V324.541L40.986 323.455H41.7786ZM43.8369 330.051C43.6792 330.051 43.5439 329.995 43.431 329.882C43.318 329.769 43.2616 329.634 43.2616 329.476C43.2616 329.318 43.318 329.183 43.431 329.07C43.5439 328.957 43.6792 328.901 43.8369 328.901C43.9945 328.901 44.1298 328.957 44.2428 329.07C44.3557 329.183 44.4121 329.318 44.4121 329.476C44.4121 329.58 44.3855 329.676 44.3322 329.763C44.2811 329.851 44.2119 329.921 44.1245 329.974C44.0393 330.026 43.9434 330.051 43.8369 330.051ZM45.7529 330V329.425L47.9134 327.06C48.1669 326.783 48.3757 326.542 48.5398 326.337C48.7039 326.131 48.8253 325.937 48.9042 325.756C48.9851 325.572 49.0256 325.381 49.0256 325.18C49.0256 324.95 48.9702 324.751 48.8594 324.583C48.7507 324.414 48.6016 324.284 48.412 324.193C48.2223 324.101 48.0093 324.055 47.7728 324.055C47.5213 324.055 47.3019 324.108 47.1144 324.212C46.929 324.314 46.7852 324.458 46.6829 324.643C46.5828 324.829 46.5327 325.046 46.5327 325.295H45.7784C45.7784 324.912 45.8669 324.575 46.0437 324.286C46.2206 323.996 46.4613 323.77 46.766 323.608C47.0728 323.446 47.4169 323.365 47.7983 323.365C48.1819 323.365 48.5217 323.446 48.8179 323.608C49.114 323.77 49.3463 323.988 49.5146 324.263C49.6829 324.538 49.7671 324.844 49.7671 325.18C49.7671 325.421 49.7234 325.657 49.636 325.887C49.5508 326.115 49.4017 326.369 49.1886 326.651C48.9777 326.93 48.6847 327.271 48.3097 327.673L46.8395 329.246V329.297H49.8821V330H45.7529ZM53.2475 330.089C52.8725 330.089 52.5348 330.015 52.2344 329.866C51.934 329.717 51.6932 329.512 51.5121 329.252C51.331 328.992 51.2319 328.696 51.2149 328.364H51.9819C52.0118 328.66 52.146 328.905 52.3846 329.099C52.6254 329.29 52.913 329.386 53.2475 329.386C53.516 329.386 53.7546 329.324 53.9635 329.198C54.1744 329.072 54.3395 328.9 54.4588 328.68C54.5803 328.458 54.641 328.208 54.641 327.929C54.641 327.643 54.5782 327.389 54.4524 327.165C54.3289 326.939 54.1584 326.761 53.9411 326.631C53.7238 326.501 53.4755 326.435 53.1964 326.433C52.9961 326.431 52.7905 326.462 52.5796 326.526C52.3686 326.588 52.195 326.668 52.0586 326.766L51.3171 326.676L51.7135 323.455H55.114V324.158H52.3782L52.1481 326.088H52.1865C52.3207 325.982 52.489 325.893 52.6914 325.823C52.8939 325.752 53.1048 325.717 53.3243 325.717C53.7248 325.717 54.0817 325.813 54.3949 326.005C54.7103 326.195 54.9574 326.455 55.1364 326.785C55.3175 327.115 55.4081 327.492 55.4081 327.916C55.4081 328.334 55.3143 328.707 55.1268 329.035C54.9414 329.361 54.6858 329.619 54.3598 329.808C54.0338 329.996 53.663 330.089 53.2475 330.089Z" fill="#4F4F4F"/>
<path d="M43.4062 309V308.425L45.5667 306.06C45.8203 305.783 46.0291 305.542 46.1931 305.337C46.3572 305.131 46.4786 304.937 46.5575 304.756C46.6384 304.572 46.6789 304.381 46.6789 304.18C46.6789 303.95 46.6235 303.751 46.5127 303.583C46.4041 303.414 46.2549 303.284 46.0653 303.193C45.8757 303.101 45.6626 303.055 45.4261 303.055C45.1747 303.055 44.9552 303.108 44.7677 303.212C44.5823 303.314 44.4385 303.458 44.3362 303.643C44.2361 303.829 44.186 304.046 44.186 304.295H43.4318C43.4318 303.912 43.5202 303.575 43.697 303.286C43.8739 302.996 44.1146 302.77 44.4193 302.608C44.7262 302.446 45.0703 302.365 45.4516 302.365C45.8352 302.365 46.175 302.446 46.4712 302.608C46.7673 302.77 46.9996 302.988 47.1679 303.263C47.3362 303.538 47.4204 303.844 47.4204 304.18C47.4204 304.421 47.3767 304.657 47.2894 304.887C47.2041 305.115 47.055 305.369 46.8419 305.651C46.631 305.93 46.338 306.271 45.963 306.673L44.4928 308.246V308.297H47.5355V309H43.4062ZM49.4179 309.051C49.2602 309.051 49.1249 308.995 49.012 308.882C48.8991 308.769 48.8426 308.634 48.8426 308.476C48.8426 308.318 48.8991 308.183 49.012 308.07C49.1249 307.957 49.2602 307.901 49.4179 307.901C49.5756 307.901 49.7109 307.957 49.8238 308.07C49.9367 308.183 49.9932 308.318 49.9932 308.476C49.9932 308.58 49.9666 308.676 49.9133 308.763C49.8622 308.851 49.7929 308.921 49.7056 308.974C49.6203 309.026 49.5244 309.051 49.4179 309.051ZM53.2475 309.089C52.8725 309.089 52.5348 309.015 52.2344 308.866C51.934 308.717 51.6932 308.512 51.5121 308.252C51.331 307.992 51.2319 307.696 51.2149 307.364H51.9819C52.0118 307.66 52.146 307.905 52.3846 308.099C52.6254 308.29 52.913 308.386 53.2475 308.386C53.516 308.386 53.7546 308.324 53.9635 308.198C54.1744 308.072 54.3395 307.9 54.4588 307.68C54.5803 307.458 54.641 307.208 54.641 306.929C54.641 306.643 54.5782 306.389 54.4524 306.165C54.3289 305.939 54.1584 305.761 53.9411 305.631C53.7238 305.501 53.4755 305.435 53.1964 305.433C52.9961 305.431 52.7905 305.462 52.5796 305.526C52.3686 305.588 52.195 305.668 52.0586 305.766L51.3171 305.676L51.7135 302.455H55.114V303.158H52.3782L52.1481 305.088H52.1865C52.3207 304.982 52.489 304.893 52.6914 304.823C52.8939 304.752 53.1048 304.717 53.3243 304.717C53.7248 304.717 54.0817 304.813 54.3949 305.005C54.7103 305.195 54.9574 305.455 55.1364 305.785C55.3175 306.115 55.4081 306.492 55.4081 306.916C55.4081 307.334 55.3143 307.707 55.1268 308.035C54.9414 308.361 54.6858 308.619 54.3598 308.808C54.0338 308.996 53.663 309.089 53.2475 309.089Z" fill="#4F4F4F"/>
<path d="M40.485 288.089C40.0632 288.089 39.6871 288.017 39.3568 287.872C39.0287 287.727 38.7677 287.526 38.5738 287.268C38.382 287.008 38.2776 286.707 38.2606 286.364H39.066C39.083 286.575 39.1555 286.757 39.2833 286.91C39.4112 287.061 39.5784 287.179 39.7851 287.262C39.9918 287.345 40.2208 287.386 40.4722 287.386C40.7535 287.386 41.0028 287.337 41.2201 287.239C41.4374 287.141 41.6079 287.005 41.7315 286.83C41.8551 286.656 41.9168 286.453 41.9168 286.223C41.9168 285.982 41.8572 285.77 41.7379 285.587C41.6186 285.402 41.4438 285.257 41.2137 285.152C40.9836 285.048 40.7024 284.996 40.37 284.996H39.8458V284.293H40.37C40.6299 284.293 40.8579 284.246 41.0539 284.152C41.2521 284.058 41.4065 283.926 41.5173 283.756C41.6303 283.585 41.6867 283.385 41.6867 283.155C41.6867 282.933 41.6377 282.74 41.5397 282.576C41.4417 282.412 41.3032 282.284 41.1242 282.193C40.9474 282.101 40.7386 282.055 40.4978 282.055C40.272 282.055 40.0589 282.097 39.8586 282.18C39.6605 282.261 39.4985 282.379 39.3728 282.535C39.2471 282.688 39.1789 282.874 39.1683 283.091H38.4012C38.414 282.748 38.5173 282.447 38.7112 282.19C38.9051 281.93 39.1587 281.727 39.4719 281.582C39.7872 281.437 40.1335 281.365 40.5106 281.365C40.9154 281.365 41.2627 281.447 41.5525 281.611C41.8423 281.773 42.0649 281.987 42.2205 282.254C42.376 282.52 42.4538 282.808 42.4538 283.116C42.4538 283.485 42.3568 283.799 42.1629 284.059C41.9712 284.319 41.7102 284.499 41.3799 284.599V284.651C41.7933 284.719 42.1161 284.895 42.3483 285.178C42.5806 285.459 42.6967 285.808 42.6967 286.223C42.6967 286.579 42.5997 286.898 42.4058 287.182C42.2141 287.463 41.952 287.685 41.6196 287.847C41.2872 288.009 40.909 288.089 40.485 288.089ZM44.3642 288.051C44.2065 288.051 44.0712 287.995 43.9583 287.882C43.8454 287.769 43.7889 287.634 43.7889 287.476C43.7889 287.318 43.8454 287.183 43.9583 287.07C44.0712 286.957 44.2065 286.901 44.3642 286.901C44.5219 286.901 44.6572 286.957 44.7701 287.07C44.883 287.183 44.9395 287.318 44.9395 287.476C44.9395 287.58 44.9129 287.676 44.8596 287.763C44.8084 287.851 44.7392 287.921 44.6518 287.974C44.5666 288.026 44.4707 288.051 44.3642 288.051ZM46.3529 288L49.2805 282.209V282.158H45.9055V281.455H50.0987V282.196L47.1839 288H46.3529ZM53.2475 288.089C52.8725 288.089 52.5348 288.015 52.2344 287.866C51.934 287.717 51.6932 287.512 51.5121 287.252C51.331 286.992 51.2319 286.696 51.2149 286.364H51.9819C52.0118 286.66 52.146 286.905 52.3846 287.099C52.6254 287.29 52.913 287.386 53.2475 287.386C53.516 287.386 53.7546 287.324 53.9635 287.198C54.1744 287.072 54.3395 286.9 54.4588 286.68C54.5803 286.458 54.641 286.208 54.641 285.929C54.641 285.643 54.5782 285.389 54.4524 285.165C54.3289 284.939 54.1584 284.761 53.9411 284.631C53.7238 284.501 53.4755 284.435 53.1964 284.433C52.9961 284.431 52.7905 284.462 52.5796 284.526C52.3686 284.588 52.195 284.668 52.0586 284.766L51.3171 284.676L51.7135 281.455H55.114V282.158H52.3782L52.1481 284.088H52.1865C52.3207 283.982 52.489 283.893 52.6914 283.823C52.8939 283.752 53.1048 283.717 53.3243 283.717C53.7248 283.717 54.0817 283.813 54.3949 284.005C54.7103 284.195 54.9574 284.455 55.1364 284.785C55.3175 285.115 55.4081 285.492 55.4081 285.916C55.4081 286.334 55.3143 286.707 55.1268 287.035C54.9414 287.361 54.6858 287.619 54.3598 287.808C54.0338 287.996 53.663 288.089 53.2475 288.089Z" fill="#4F4F4F"/>
<path d="M53.2475 267.089C52.8725 267.089 52.5348 267.015 52.2344 266.866C51.934 266.717 51.6932 266.512 51.5121 266.252C51.331 265.992 51.2319 265.696 51.2149 265.364H51.9819C52.0118 265.66 52.146 265.905 52.3846 266.099C52.6254 266.29 52.913 266.386 53.2475 266.386C53.516 266.386 53.7546 266.324 53.9635 266.198C54.1744 266.072 54.3395 265.9 54.4588 265.68C54.5803 265.458 54.641 265.208 54.641 264.929C54.641 264.643 54.5782 264.389 54.4524 264.165C54.3289 263.939 54.1584 263.761 53.9411 263.631C53.7238 263.501 53.4755 263.435 53.1964 263.433C52.9961 263.431 52.7905 263.462 52.5796 263.526C52.3686 263.588 52.195 263.668 52.0586 263.766L51.3171 263.676L51.7135 260.455H55.114V261.158H52.3782L52.1481 263.088H52.1865C52.3207 262.982 52.489 262.893 52.6914 262.823C52.8939 262.752 53.1048 262.717 53.3243 262.717C53.7248 262.717 54.0817 262.813 54.3949 263.005C54.7103 263.195 54.9574 263.455 55.1364 263.785C55.3175 264.115 55.4081 264.492 55.4081 264.916C55.4081 265.334 55.3143 265.707 55.1268 266.035C54.9414 266.361 54.6858 266.619 54.3598 266.808C54.0338 266.996 53.663 267.089 53.2475 267.089Z" fill="#4F4F4F"/>
<path d="M40.1391 246.089C39.8706 246.085 39.6021 246.034 39.3337 245.936C39.0652 245.838 38.8202 245.673 38.5986 245.441C38.377 245.206 38.1991 244.89 38.0648 244.491C37.9306 244.091 37.8635 243.588 37.8635 242.983C37.8635 242.403 37.9178 241.89 38.0265 241.442C38.1352 240.993 38.2928 240.615 38.4995 240.308C38.7062 239.999 38.9555 239.765 39.2474 239.605C39.5414 239.445 39.8727 239.365 40.2413 239.365C40.6078 239.365 40.9338 239.439 41.2193 239.586C41.507 239.73 41.7413 239.933 41.9224 240.193C42.1035 240.453 42.2207 240.752 42.274 241.091H41.4942C41.4217 240.797 41.2811 240.553 41.0723 240.359C40.8635 240.165 40.5865 240.068 40.2413 240.068C39.7342 240.068 39.3347 240.289 39.0428 240.73C38.7531 241.171 38.6071 241.79 38.605 242.587H38.6561C38.7754 242.406 38.9171 242.251 39.0812 242.123C39.2474 241.993 39.4306 241.893 39.6309 241.823C39.8312 241.752 40.0432 241.717 40.2669 241.717C40.6419 241.717 40.9849 241.811 41.296 241.999C41.6071 242.184 41.8564 242.441 42.0439 242.769C42.2314 243.095 42.3251 243.469 42.3251 243.891C42.3251 244.295 42.2346 244.666 42.0535 245.003C41.8724 245.337 41.6178 245.604 41.2896 245.802C40.9636 245.998 40.5801 246.094 40.1391 246.089ZM40.1391 245.386C40.4075 245.386 40.6483 245.319 40.8614 245.185C41.0766 245.051 41.2459 244.871 41.3695 244.645C41.4952 244.419 41.5581 244.168 41.5581 243.891C41.5581 243.62 41.4974 243.374 41.3759 243.152C41.2566 242.929 41.0915 242.751 40.8805 242.619C40.6717 242.487 40.4331 242.42 40.1646 242.42C39.9622 242.42 39.7736 242.461 39.5989 242.542C39.4242 242.621 39.2708 242.729 39.1387 242.868C39.0087 243.006 38.9065 243.165 38.8319 243.344C38.7573 243.521 38.72 243.707 38.72 243.903C38.72 244.163 38.7808 244.406 38.9022 244.632C39.0258 244.858 39.1941 245.04 39.4072 245.179C39.6224 245.317 39.8663 245.386 40.1391 245.386ZM43.8369 246.051C43.6792 246.051 43.5439 245.995 43.431 245.882C43.318 245.769 43.2616 245.634 43.2616 245.476C43.2616 245.318 43.318 245.183 43.431 245.07C43.5439 244.957 43.6792 244.901 43.8369 244.901C43.9945 244.901 44.1298 244.957 44.2428 245.07C44.3557 245.183 44.4121 245.318 44.4121 245.476C44.4121 245.58 44.3855 245.676 44.3322 245.763C44.2811 245.851 44.2119 245.921 44.1245 245.974C44.0393 246.026 43.9434 246.051 43.8369 246.051ZM45.7529 246V245.425L47.9134 243.06C48.1669 242.783 48.3757 242.542 48.5398 242.337C48.7039 242.131 48.8253 241.937 48.9042 241.756C48.9851 241.572 49.0256 241.381 49.0256 241.18C49.0256 240.95 48.9702 240.751 48.8594 240.583C48.7507 240.414 48.6016 240.284 48.412 240.193C48.2223 240.101 48.0093 240.055 47.7728 240.055C47.5213 240.055 47.3019 240.108 47.1144 240.212C46.929 240.314 46.7852 240.458 46.6829 240.643C46.5828 240.829 46.5327 241.046 46.5327 241.295H45.7784C45.7784 240.912 45.8669 240.575 46.0437 240.286C46.2206 239.996 46.4613 239.77 46.766 239.608C47.0728 239.446 47.4169 239.365 47.7983 239.365C48.1819 239.365 48.5217 239.446 48.8179 239.608C49.114 239.77 49.3463 239.988 49.5146 240.263C49.6829 240.538 49.7671 240.844 49.7671 241.18C49.7671 241.421 49.7234 241.657 49.636 241.887C49.5508 242.115 49.4017 242.369 49.1886 242.651C48.9777 242.93 48.6847 243.271 48.3097 243.673L46.8395 245.246V245.297H49.8821V246H45.7529ZM53.2475 246.089C52.8725 246.089 52.5348 246.015 52.2344 245.866C51.934 245.717 51.6932 245.512 51.5121 245.252C51.331 244.992 51.2319 244.696 51.2149 244.364H51.9819C52.0118 244.66 52.146 244.905 52.3846 245.099C52.6254 245.29 52.913 245.386 53.2475 245.386C53.516 245.386 53.7546 245.324 53.9635 245.198C54.1744 245.072 54.3395 244.9 54.4588 244.68C54.5803 244.458 54.641 244.208 54.641 243.929C54.641 243.643 54.5782 243.389 54.4524 243.165C54.3289 242.939 54.1584 242.761 53.9411 242.631C53.7238 242.501 53.4755 242.435 53.1964 242.433C52.9961 242.431 52.7905 242.462 52.5796 242.526C52.3686 242.588 52.195 242.668 52.0586 242.766L51.3171 242.676L51.7135 239.455H55.114V240.158H52.3782L52.1481 242.088H52.1865C52.3207 241.982 52.489 241.893 52.6914 241.823C52.8939 241.752 53.1048 241.717 53.3243 241.717C53.7248 241.717 54.0817 241.813 54.3949 242.005C54.7103 242.195 54.9574 242.455 55.1364 242.785C55.3175 243.115 55.4081 243.492 55.4081 243.916C55.4081 244.334 55.3143 244.707 55.1268 245.035C54.9414 245.361 54.6858 245.619 54.3598 245.808C54.0338 245.996 53.663 246.089 53.2475 246.089Z" fill="#4F4F4F"/>
<path d="M45.0434 226L47.9709 220.209V220.158H44.5959V219.455H48.7891V220.196L45.8743 226H45.0434ZM49.4179 226.051C49.2602 226.051 49.1249 225.995 49.012 225.882C48.8991 225.769 48.8426 225.634 48.8426 225.476C48.8426 225.318 48.8991 225.183 49.012 225.07C49.1249 224.957 49.2602 224.901 49.4179 224.901C49.5756 224.901 49.7109 224.957 49.8238 225.07C49.9367 225.183 49.9932 225.318 49.9932 225.476C49.9932 225.58 49.9666 225.676 49.9133 225.763C49.8622 225.851 49.7929 225.921 49.7056 225.974C49.6203 226.026 49.5244 226.051 49.4179 226.051ZM53.2475 226.089C52.8725 226.089 52.5348 226.015 52.2344 225.866C51.934 225.717 51.6932 225.512 51.5121 225.252C51.331 224.992 51.2319 224.696 51.2149 224.364H51.9819C52.0118 224.66 52.146 224.905 52.3846 225.099C52.6254 225.29 52.913 225.386 53.2475 225.386C53.516 225.386 53.7546 225.324 53.9635 225.198C54.1744 225.072 54.3395 224.9 54.4588 224.68C54.5803 224.458 54.641 224.208 54.641 223.929C54.641 223.643 54.5782 223.389 54.4524 223.165C54.3289 222.939 54.1584 222.761 53.9411 222.631C53.7238 222.501 53.4755 222.435 53.1964 222.433C52.9961 222.431 52.7905 222.462 52.5796 222.526C52.3686 222.588 52.195 222.668 52.0586 222.766L51.3171 222.676L51.7135 219.455H55.114V220.158H52.3782L52.1481 222.088H52.1865C52.3207 221.982 52.489 221.893 52.6914 221.823C52.8939 221.752 53.1048 221.717 53.3243 221.717C53.7248 221.717 54.0817 221.813 54.3949 222.005C54.7103 222.195 54.9574 222.455 55.1364 222.785C55.3175 223.115 55.4081 223.492 55.4081 223.916C55.4081 224.334 55.3143 224.707 55.1268 225.035C54.9414 225.361 54.6858 225.619 54.3598 225.808C54.0338 225.996 53.663 226.089 53.2475 226.089Z" fill="#4F4F4F"/>
<path d="M40.5545 205.089C40.1156 205.089 39.7278 205.012 39.3912 204.856C39.0567 204.699 38.7957 204.482 38.6082 204.207C38.4207 203.93 38.328 203.615 38.3301 203.261C38.328 202.984 38.3823 202.729 38.4931 202.494C38.6039 202.258 38.7552 202.061 38.9469 201.903C39.1408 201.743 39.3571 201.642 39.5957 201.599V201.561C39.2825 201.48 39.0332 201.304 38.8479 201.034C38.6625 200.761 38.5709 200.451 38.573 200.104C38.5709 199.771 38.655 199.474 38.8255 199.212C38.9959 198.95 39.2303 198.743 39.5286 198.592C39.829 198.441 40.171 198.365 40.5545 198.365C40.9338 198.365 41.2726 198.441 41.5709 198.592C41.8692 198.743 42.1035 198.95 42.274 199.212C42.4466 199.474 42.5339 199.771 42.5361 200.104C42.5339 200.451 42.4391 200.761 42.2516 201.034C42.0663 201.304 41.8202 201.48 41.5134 201.561V201.599C41.7499 201.642 41.9629 201.743 42.1526 201.903C42.3422 202.061 42.4935 202.258 42.6064 202.494C42.7193 202.729 42.7768 202.984 42.779 203.261C42.7768 203.615 42.681 203.93 42.4913 204.207C42.3038 204.482 42.0428 204.699 41.7083 204.856C41.3759 205.012 40.9913 205.089 40.5545 205.089ZM40.5545 204.386C40.8507 204.386 41.1064 204.338 41.3216 204.243C41.5368 204.147 41.703 204.011 41.8202 203.837C41.9374 203.662 41.997 203.457 41.9991 203.223C41.997 202.976 41.9331 202.757 41.8074 202.568C41.6817 202.378 41.5102 202.229 41.2928 202.12C41.0776 202.012 40.8315 201.957 40.5545 201.957C40.2754 201.957 40.0261 202.012 39.8067 202.12C39.5893 202.229 39.4178 202.378 39.2921 202.568C39.1685 202.757 39.1078 202.976 39.1099 203.223C39.1078 203.457 39.1643 203.662 39.2793 203.837C39.3965 204.011 39.5638 204.147 39.7811 204.243C39.9984 204.338 40.2562 204.386 40.5545 204.386ZM40.5545 201.28C40.7889 201.28 40.9967 201.233 41.1778 201.139C41.361 201.045 41.5048 200.914 41.6092 200.746C41.7136 200.578 41.7669 200.381 41.769 200.155C41.7669 199.933 41.7147 199.74 41.6124 199.576C41.5102 199.41 41.3685 199.282 41.1874 199.193C41.0062 199.101 40.7953 199.055 40.5545 199.055C40.3095 199.055 40.0954 199.101 39.9121 199.193C39.7289 199.282 39.5872 199.41 39.4871 199.576C39.3869 199.74 39.3379 199.933 39.3401 200.155C39.3379 200.381 39.388 200.578 39.4903 200.746C39.5947 200.914 39.7385 201.045 39.9217 201.139C40.105 201.233 40.3159 201.28 40.5545 201.28ZM44.3642 205.051C44.2065 205.051 44.0712 204.995 43.9583 204.882C43.8454 204.769 43.7889 204.634 43.7889 204.476C43.7889 204.318 43.8454 204.183 43.9583 204.07C44.0712 203.957 44.2065 203.901 44.3642 203.901C44.5219 203.901 44.6572 203.957 44.7701 204.07C44.883 204.183 44.9395 204.318 44.9395 204.476C44.9395 204.58 44.9129 204.676 44.8596 204.763C44.8084 204.851 44.7392 204.921 44.6518 204.974C44.5666 205.026 44.4707 205.051 44.3642 205.051ZM46.3529 205L49.2805 199.209V199.158H45.9055V198.455H50.0987V199.196L47.1839 205H46.3529ZM53.2475 205.089C52.8725 205.089 52.5348 205.015 52.2344 204.866C51.934 204.717 51.6932 204.512 51.5121 204.252C51.331 203.992 51.2319 203.696 51.2149 203.364H51.9819C52.0118 203.66 52.146 203.905 52.3846 204.099C52.6254 204.29 52.913 204.386 53.2475 204.386C53.516 204.386 53.7546 204.324 53.9635 204.198C54.1744 204.072 54.3395 203.9 54.4588 203.68C54.5803 203.458 54.641 203.208 54.641 202.929C54.641 202.643 54.5782 202.389 54.4524 202.165C54.3289 201.939 54.1584 201.761 53.9411 201.631C53.7238 201.501 53.4755 201.435 53.1964 201.433C52.9961 201.431 52.7905 201.462 52.5796 201.526C52.3686 201.588 52.195 201.668 52.0586 201.766L51.3171 201.676L51.7135 198.455H55.114V199.158H52.3782L52.1481 201.088H52.1865C52.3207 200.982 52.489 200.893 52.6914 200.823C52.8939 200.752 53.1048 200.717 53.3243 200.717C53.7248 200.717 54.0817 200.813 54.3949 201.005C54.7103 201.195 54.9574 201.455 55.1364 201.785C55.3175 202.115 55.4081 202.492 55.4081 202.916C55.4081 203.334 55.3143 203.707 55.1268 204.035C54.9414 204.361 54.6858 204.619 54.3598 204.808C54.0338 204.996 53.663 205.089 53.2475 205.089Z" fill="#4F4F4F"/>
<path d="M49.1702 177.455V184H48.3776V178.286H48.3393L46.7412 179.347V178.541L48.3776 177.455H49.1702ZM53.1876 184.089C52.7061 184.089 52.2959 183.958 51.9572 183.696C51.6184 183.432 51.3595 183.05 51.1805 182.549C51.0015 182.046 50.9121 181.439 50.9121 180.727C50.9121 180.02 51.0015 179.416 51.1805 178.915C51.3616 178.412 51.6216 178.029 51.9603 177.765C52.3013 177.498 52.7103 177.365 53.1876 177.365C53.6649 177.365 54.0729 177.498 54.4117 177.765C54.7526 178.029 55.0126 178.412 55.1915 178.915C55.3726 179.416 55.4632 180.02 55.4632 180.727C55.4632 181.439 55.3737 182.046 55.1947 182.549C55.0157 183.05 54.7569 183.432 54.4181 183.696C54.0793 183.958 53.6692 184.089 53.1876 184.089ZM53.1876 183.386C53.6649 183.386 54.0356 183.156 54.2998 182.696C54.564 182.236 54.6961 181.58 54.6961 180.727C54.6961 180.161 54.6354 179.678 54.514 179.279C54.3947 178.881 54.2221 178.577 53.9962 178.369C53.7725 178.16 53.503 178.055 53.1876 178.055C52.7146 178.055 52.3449 178.289 52.0786 178.755C51.8123 179.22 51.6791 179.877 51.6791 180.727C51.6791 181.294 51.7388 181.776 51.8581 182.172C51.9774 182.568 52.1489 182.87 52.3726 183.076C52.5985 183.283 52.8702 183.386 53.1876 183.386Z" fill="#4F4F4F"/>
<path d="M14 150H369" stroke="#F0F0F0" stroke-width="2"/>
<rect x="71" y="267" width="7" height="83" fill="#EC4899"/>
<rect x="92" y="284" width="7" height="66" fill="#EC4899"/>
<rect x="115" y="300" width="6" height="50" fill="#EC4899"/>
<rect x="138" y="235" width="7" height="115" fill="#EC4899"/>
<rect x="164" y="268" width="7" height="82" fill="#EC4899"/>
<rect x="184" y="185" width="6" height="165" fill="#EC4899"/>
<rect x="207" y="300" width="6" height="50" fill="#EC4899"/>
<rect x="230" y="284" width="7" height="66" fill="#EC4899"/>
<rect x="254" y="218" width="7" height="132" fill="#EC4899"/>
<rect x="277" y="185" width="6" height="165" fill="#EC4899"/>
<rect x="299" y="251" width="7" height="99" fill="#EC4899"/>
<rect x="321" y="218" width="7" height="132" fill="#EC4899"/>
<defs>
<filter id="filter0_d_7_2735" x="0" y="0" width="383" height="455" filterUnits="userSpaceOnUse" color-interpolation-filters="sRGB">
<feFlood flood-opacity="0" result="BackgroundImageFix"/>
<feColorMatrix in="SourceAlpha" type="matrix" values="0 0 0 0 0 0 0 0 0 0 0 0 0 0 0 0 0 0 127 0" result="hardAlpha"/>
<feOffset dy="2"/>
<feGaussianBlur stdDeviation="5"/>
<feComposite in2="hardAlpha" operator="out"/>
<feColorMatrix type="matrix" values="0 0 0 0 0 0 0 0 0 0 0 0 0 0 0 0 0 0 0.1 0"/>
<feBlend mode="normal" in2="BackgroundImageFix" result="effect1_dropShadow_7_2735"/>
<feBlend mode="normal" in="SourceGraphic" in2="effect1_dropShadow_7_2735" result="shape"/>
</filter>
</defs>
</svg>
