<svg width="375" height="456" viewBox="0 0 375 456" fill="none" xmlns="http://www.w3.org/2000/svg">
<g filter="url(#filter0_d_7_623)">
<rect x="10" y="8" width="355" height="436" rx="20" fill="#262626"/>
</g>
<path d="M41.4759 40.4545H43.9688L47.7685 47.0668H47.9247L51.7244 40.4545H54.2173L48.9403 49.2898V55H46.7528V49.2898L41.4759 40.4545ZM58.9173 55.2202C57.8945 55.2202 57.002 54.9858 56.2397 54.517C55.4774 54.0483 54.8855 53.3925 54.4641 52.5497C54.0427 51.7069 53.832 50.7221 53.832 49.5952C53.832 48.4635 54.0427 47.474 54.4641 46.6264C54.8855 45.7789 55.4774 45.1207 56.2397 44.652C57.002 44.1832 57.8945 43.9489 58.9173 43.9489C59.94 43.9489 60.8325 44.1832 61.5948 44.652C62.3571 45.1207 62.949 45.7789 63.3704 46.6264C63.7918 47.474 64.0025 48.4635 64.0025 49.5952C64.0025 50.7221 63.7918 51.7069 63.3704 52.5497C62.949 53.3925 62.3571 54.0483 61.5948 54.517C60.8325 54.9858 59.94 55.2202 58.9173 55.2202ZM58.9244 53.4375C59.5872 53.4375 60.1365 53.2623 60.5721 52.9119C61.0077 52.5616 61.3297 52.0952 61.538 51.5128C61.7511 50.9304 61.8576 50.2888 61.8576 49.5881C61.8576 48.892 61.7511 48.2528 61.538 47.6705C61.3297 47.0833 61.0077 46.6122 60.5721 46.2571C60.1365 45.902 59.5872 45.7244 58.9244 45.7244C58.2567 45.7244 57.7028 45.902 57.2624 46.2571C56.8268 46.6122 56.5025 47.0833 56.2894 47.6705C56.0811 48.2528 55.9769 48.892 55.9769 49.5881C55.9769 50.2888 56.0811 50.9304 56.2894 51.5128C56.5025 52.0952 56.8268 52.5616 57.2624 52.9119C57.7028 53.2623 58.2567 53.4375 58.9244 53.4375ZM73.2834 50.4759V44.0909H75.4141V55H73.326V53.1108H73.2124C72.9614 53.6932 72.5589 54.1785 72.005 54.5668C71.4557 54.9503 70.7715 55.142 69.9524 55.142C69.2517 55.142 68.6314 54.9882 68.0916 54.6804C67.5566 54.3679 67.1352 53.9062 66.8274 53.2955C66.5244 52.6847 66.3729 51.9295 66.3729 51.0298V44.0909H68.4964V50.7741C68.4964 51.5175 68.7024 52.1094 69.1143 52.5497C69.5263 52.9901 70.0613 53.2102 70.7195 53.2102C71.1172 53.2102 71.5125 53.1108 71.9055 52.9119C72.3033 52.7131 72.6323 52.4124 72.8928 52.0099C73.1579 51.6075 73.2881 51.0961 73.2834 50.4759ZM78.2674 55V44.0909H80.32V45.8239H80.4336C80.6325 45.2367 80.9828 44.7751 81.4847 44.4389C81.9914 44.098 82.5643 43.9276 83.2035 43.9276C83.3361 43.9276 83.4923 43.9323 83.6722 43.9418C83.8569 43.9512 84.0013 43.9631 84.1055 43.9773V46.0085C84.0202 45.9848 83.8687 45.9588 83.6509 45.9304C83.4331 45.8973 83.2153 45.8807 82.9975 45.8807C82.4956 45.8807 82.0482 45.9872 81.6552 46.2003C81.2669 46.4086 80.9592 46.6998 80.7319 47.0739C80.5046 47.4432 80.391 47.8646 80.391 48.3381V55H78.2674ZM100.76 40.4545H102.962V50.0213C102.962 51.0393 102.723 51.9413 102.245 52.7273C101.766 53.5085 101.094 54.1241 100.228 54.5739C99.3612 55.0189 98.3455 55.2415 97.1808 55.2415C96.0207 55.2415 95.0075 55.0189 94.141 54.5739C93.2745 54.1241 92.6022 53.5085 92.1239 52.7273C91.6457 51.9413 91.4066 51.0393 91.4066 50.0213V40.4545H93.6012V49.8438C93.6012 50.5019 93.7456 51.0866 94.0344 51.598C94.328 52.1094 94.7423 52.5118 95.2773 52.8054C95.8124 53.0942 96.4469 53.2386 97.1808 53.2386C97.9194 53.2386 98.5562 53.0942 99.0913 52.8054C99.631 52.5118 100.043 52.1094 100.327 51.598C100.616 51.0866 100.76 50.5019 100.76 49.8438V40.4545ZM114.157 46.7543L112.232 47.0952C112.152 46.849 112.024 46.6146 111.849 46.392C111.678 46.1695 111.446 45.9872 111.153 45.8452C110.859 45.7031 110.492 45.6321 110.052 45.6321C109.451 45.6321 108.949 45.767 108.546 46.0369C108.144 46.3021 107.942 46.6454 107.942 47.0668C107.942 47.4313 108.077 47.7249 108.347 47.9474C108.617 48.17 109.053 48.3523 109.654 48.4943L111.387 48.892C112.391 49.1241 113.139 49.4815 113.631 49.9645C114.124 50.4474 114.37 51.0748 114.37 51.8466C114.37 52.5 114.181 53.0824 113.802 53.5938C113.428 54.1004 112.905 54.4981 112.232 54.7869C111.565 55.0758 110.79 55.2202 109.91 55.2202C108.688 55.2202 107.692 54.9598 106.92 54.4389C106.148 53.9134 105.674 53.1676 105.499 52.2017L107.552 51.8892C107.68 52.4242 107.942 52.8291 108.34 53.1037C108.738 53.3736 109.256 53.5085 109.896 53.5085C110.592 53.5085 111.148 53.3641 111.565 53.0753C111.981 52.7817 112.19 52.4242 112.19 52.0028C112.19 51.6619 112.062 51.3755 111.806 51.1435C111.555 50.9115 111.169 50.7363 110.648 50.6179L108.802 50.2131C107.784 49.9811 107.031 49.6117 106.543 49.1051C106.06 48.5985 105.819 47.9569 105.819 47.1804C105.819 46.5365 105.999 45.973 106.359 45.4901C106.719 45.0071 107.216 44.6307 107.85 44.3608C108.485 44.0862 109.211 43.9489 110.031 43.9489C111.21 43.9489 112.138 44.2045 112.815 44.7159C113.492 45.2225 113.939 45.902 114.157 46.7543ZM123.615 50.4759V44.0909H125.746V55H123.658V53.1108H123.544C123.293 53.6932 122.891 54.1785 122.337 54.5668C121.788 54.9503 121.104 55.142 120.284 55.142C119.584 55.142 118.963 54.9882 118.424 54.6804C117.889 54.3679 117.467 53.9062 117.159 53.2955C116.856 52.6847 116.705 51.9295 116.705 51.0298V44.0909H118.828V50.7741C118.828 51.5175 119.034 52.1094 119.446 52.5497C119.858 52.9901 120.393 53.2102 121.051 53.2102C121.449 53.2102 121.845 53.1108 122.238 52.9119C122.635 52.7131 122.964 52.4124 123.225 52.0099C123.49 51.6075 123.62 51.0961 123.615 50.4759ZM131.774 55.2415C131.083 55.2415 130.458 55.1136 129.899 54.858C129.34 54.5975 128.898 54.2211 128.571 53.7287C128.249 53.2363 128.088 52.6326 128.088 51.9176C128.088 51.3021 128.206 50.7955 128.443 50.3977C128.68 50 129 49.6851 129.402 49.4531C129.804 49.2211 130.254 49.0459 130.751 48.9276C131.249 48.8092 131.755 48.7192 132.271 48.6577C132.925 48.5819 133.455 48.5204 133.862 48.473C134.269 48.4209 134.565 48.3381 134.75 48.2244C134.935 48.1108 135.027 47.9261 135.027 47.6705V47.6207C135.027 47.0005 134.852 46.5199 134.501 46.179C134.156 45.8381 133.64 45.6676 132.953 45.6676C132.238 45.6676 131.675 45.8262 131.263 46.1435C130.856 46.456 130.574 46.804 130.418 47.1875L128.422 46.733C128.659 46.0701 129.004 45.535 129.459 45.1278C129.918 44.7159 130.446 44.4176 131.043 44.233C131.639 44.0436 132.267 43.9489 132.925 43.9489C133.36 43.9489 133.822 44.0009 134.31 44.1051C134.802 44.2045 135.261 44.3892 135.688 44.6591C136.118 44.929 136.471 45.3149 136.746 45.8168C137.02 46.3139 137.158 46.9602 137.158 47.7557V55H135.084V53.5085H134.999C134.861 53.7831 134.655 54.053 134.381 54.3182C134.106 54.5833 133.753 54.8035 133.322 54.9787C132.892 55.1539 132.375 55.2415 131.774 55.2415ZM132.236 53.5369C132.823 53.5369 133.325 53.4209 133.741 53.1889C134.163 52.9569 134.482 52.6539 134.7 52.2798C134.923 51.901 135.034 51.4962 135.034 51.0653V49.6591C134.958 49.7348 134.812 49.8059 134.594 49.8722C134.381 49.9337 134.137 49.9882 133.862 50.0355C133.588 50.0781 133.32 50.1184 133.06 50.1562C132.799 50.1894 132.581 50.2178 132.406 50.2415C131.994 50.2936 131.618 50.3812 131.277 50.5043C130.941 50.6274 130.671 50.8049 130.467 51.0369C130.268 51.2642 130.169 51.5672 130.169 51.946C130.169 52.4716 130.363 52.8693 130.751 53.1392C131.14 53.4044 131.634 53.5369 132.236 53.5369ZM142.11 40.4545V55H139.986V40.4545H142.11ZM155.139 55H150.43V40.4545H155.288C156.713 40.4545 157.937 40.7457 158.96 41.3281C159.983 41.9058 160.766 42.7367 161.311 43.821C161.86 44.9006 162.135 46.1955 162.135 47.706C162.135 49.2211 161.858 50.5232 161.304 51.6122C160.754 52.7012 159.959 53.5393 158.917 54.1264C157.876 54.7088 156.616 55 155.139 55ZM152.625 53.0824H155.018C156.126 53.0824 157.047 52.8741 157.781 52.4574C158.515 52.036 159.064 51.4276 159.429 50.6321C159.793 49.8319 159.975 48.8565 159.975 47.706C159.975 46.5649 159.793 45.5966 159.429 44.8011C159.069 44.0057 158.531 43.402 157.816 42.9901C157.101 42.5781 156.214 42.3722 155.153 42.3722H152.625V53.0824ZM167.868 55.2415C167.177 55.2415 166.552 55.1136 165.993 54.858C165.434 54.5975 164.991 54.2211 164.665 53.7287C164.343 53.2363 164.182 52.6326 164.182 51.9176C164.182 51.3021 164.3 50.7955 164.537 50.3977C164.774 50 165.093 49.6851 165.496 49.4531C165.898 49.2211 166.348 49.0459 166.845 48.9276C167.342 48.8092 167.849 48.7192 168.365 48.6577C169.018 48.5819 169.549 48.5204 169.956 48.473C170.363 48.4209 170.659 48.3381 170.844 48.2244C171.028 48.1108 171.121 47.9261 171.121 47.6705V47.6207C171.121 47.0005 170.946 46.5199 170.595 46.179C170.25 45.8381 169.733 45.6676 169.047 45.6676C168.332 45.6676 167.768 45.8262 167.357 46.1435C166.949 46.456 166.668 46.804 166.511 47.1875L164.516 46.733C164.752 46.0701 165.098 45.535 165.553 45.1278C166.012 44.7159 166.54 44.4176 167.136 44.233C167.733 44.0436 168.36 43.9489 169.018 43.9489C169.454 43.9489 169.916 44.0009 170.403 44.1051C170.896 44.2045 171.355 44.3892 171.781 44.6591C172.212 44.929 172.565 45.3149 172.839 45.8168C173.114 46.3139 173.251 46.9602 173.251 47.7557V55H171.178V53.5085H171.092C170.955 53.7831 170.749 54.053 170.474 54.3182C170.2 54.5833 169.847 54.8035 169.416 54.9787C168.985 55.1539 168.469 55.2415 167.868 55.2415ZM168.33 53.5369C168.917 53.5369 169.419 53.4209 169.835 53.1889C170.257 52.9569 170.576 52.6539 170.794 52.2798C171.017 51.901 171.128 51.4962 171.128 51.0653V49.6591C171.052 49.7348 170.905 49.8059 170.688 49.8722C170.474 49.9337 170.231 49.9882 169.956 50.0355C169.681 50.0781 169.414 50.1184 169.153 50.1562C168.893 50.1894 168.675 50.2178 168.5 50.2415C168.088 50.2936 167.712 50.3812 167.371 50.5043C167.035 50.6274 166.765 50.8049 166.561 51.0369C166.362 51.2642 166.263 51.5672 166.263 51.946C166.263 52.4716 166.457 52.8693 166.845 53.1392C167.233 53.4044 167.728 53.5369 168.33 53.5369ZM177.032 59.0909C176.714 59.0909 176.426 59.0649 176.165 59.0128C175.905 58.9654 175.711 58.9134 175.583 58.8565L176.094 57.1165C176.482 57.2206 176.828 57.2656 177.131 57.2514C177.434 57.2372 177.702 57.1236 177.934 56.9105C178.17 56.6974 178.379 56.3494 178.559 55.8665L178.821 55.142L174.83 44.0909H177.103L179.865 52.5568H179.979L182.742 44.0909H185.022L180.526 56.456C180.318 57.0241 180.052 57.5047 179.73 57.8977C179.408 58.2955 179.025 58.5938 178.58 58.7926C178.135 58.9915 177.619 59.0909 177.032 59.0909Z" fill="white"/>
<path d="M10 109H365" stroke="#F0F0F0" stroke-width="2"/>
<path d="M227.948 361.392C204.941 370.247 179.683 371.405 155.963 364.694C132.242 357.982 111.336 343.762 96.3791 324.165C81.4223 304.569 73.2209 280.652 73.0044 256.001C72.7879 231.35 80.568 207.293 95.1783 187.437L187 255L227.948 361.392Z" fill="#F3722C"/>
<path d="M93.853 189.276C107.169 170.404 125.903 156.022 147.575 148.034C169.246 140.047 192.833 138.83 215.211 144.546C237.59 150.262 257.704 162.64 272.891 180.042C288.078 197.443 297.621 219.048 300.256 241.994C302.891 264.94 298.494 288.145 287.647 308.536C276.801 328.928 260.016 345.544 239.516 356.183C219.016 366.823 195.767 370.985 172.849 368.118C149.931 365.251 128.424 355.49 111.177 340.128L187 255L93.853 189.276Z" fill="#F94144"/>
<path d="M59.0568 405V396.273H62.0057C62.6875 396.273 63.2472 396.389 63.6847 396.622C64.1222 396.852 64.446 397.169 64.6562 397.572C64.8665 397.976 64.9716 398.435 64.9716 398.949C64.9716 399.463 64.8665 399.919 64.6562 400.317C64.446 400.714 64.1236 401.027 63.6889 401.254C63.2543 401.479 62.6989 401.591 62.0227 401.591H59.6364V400.636H61.9886C62.4545 400.636 62.8295 400.568 63.1136 400.432C63.4006 400.295 63.608 400.102 63.7358 399.852C63.8665 399.599 63.9318 399.298 63.9318 398.949C63.9318 398.599 63.8665 398.294 63.7358 398.033C63.6051 397.771 63.3963 397.57 63.1094 397.428C62.8224 397.283 62.4432 397.21 61.9716 397.21H60.1136V405H59.0568ZM63.1648 401.08L65.3125 405H64.0852L61.9716 401.08H63.1648ZM69.2702 405.136C68.6396 405.136 68.0955 404.997 67.6381 404.719C67.1836 404.438 66.8327 404.045 66.5856 403.543C66.3413 403.037 66.2191 402.449 66.2191 401.778C66.2191 401.108 66.3413 400.517 66.5856 400.006C66.8327 399.491 67.1765 399.091 67.6168 398.804C68.06 398.514 68.5771 398.369 69.168 398.369C69.5089 398.369 69.8455 398.426 70.1779 398.54C70.5103 398.653 70.8129 398.838 71.0856 399.094C71.3583 399.347 71.5756 399.682 71.7376 400.099C71.8995 400.517 71.9805 401.031 71.9805 401.642V402.068H66.935V401.199H70.9577C70.9577 400.83 70.8839 400.5 70.7362 400.21C70.5913 399.92 70.3839 399.692 70.114 399.524C69.8469 399.357 69.5316 399.273 69.168 399.273C68.7674 399.273 68.4208 399.372 68.1282 399.571C67.8384 399.767 67.6154 400.023 67.4592 400.338C67.3029 400.653 67.2248 400.991 67.2248 401.352V401.932C67.2248 402.426 67.31 402.845 67.4805 403.189C67.6538 403.53 67.8938 403.79 68.2006 403.969C68.5075 404.145 68.864 404.233 69.2702 404.233C69.5344 404.233 69.7731 404.196 69.9862 404.122C70.2021 404.045 70.3881 403.932 70.5444 403.781C70.7006 403.628 70.8214 403.437 70.9066 403.21L71.8782 403.483C71.7759 403.812 71.604 404.102 71.3626 404.352C71.1211 404.599 70.8228 404.793 70.4677 404.932C70.1126 405.068 69.7134 405.136 69.2702 405.136ZM74.516 396.273V405H73.5103V396.273H74.516ZM78.2841 405.153C77.8693 405.153 77.4929 405.075 77.1548 404.919C76.8168 404.76 76.5483 404.531 76.3494 404.233C76.1506 403.932 76.0511 403.568 76.0511 403.142C76.0511 402.767 76.125 402.463 76.2727 402.23C76.4205 401.994 76.6179 401.81 76.8651 401.676C77.1122 401.543 77.3849 401.443 77.6832 401.378C77.9844 401.31 78.2869 401.256 78.5909 401.216C78.9886 401.165 79.3111 401.126 79.5582 401.101C79.8082 401.072 79.9901 401.026 80.1037 400.96C80.2202 400.895 80.2784 400.781 80.2784 400.619V400.585C80.2784 400.165 80.1634 399.838 79.9332 399.605C79.706 399.372 79.3608 399.256 78.8977 399.256C78.4176 399.256 78.0412 399.361 77.7685 399.571C77.4957 399.781 77.304 400.006 77.1932 400.244L76.2386 399.903C76.4091 399.506 76.6364 399.196 76.9205 398.974C77.2074 398.75 77.5199 398.594 77.858 398.506C78.1989 398.415 78.5341 398.369 78.8636 398.369C79.0739 398.369 79.3153 398.395 79.5881 398.446C79.8636 398.494 80.1293 398.595 80.3849 398.749C80.6435 398.902 80.858 399.134 81.0284 399.443C81.1989 399.753 81.2841 400.168 81.2841 400.688V405H80.2784V404.114H80.2273C80.1591 404.256 80.0455 404.408 79.8864 404.57C79.7273 404.732 79.5156 404.869 79.2514 404.983C78.9872 405.097 78.6648 405.153 78.2841 405.153ZM78.4375 404.25C78.8352 404.25 79.1705 404.172 79.4432 404.016C79.7188 403.859 79.9261 403.658 80.0653 403.411C80.2074 403.163 80.2784 402.903 80.2784 402.631V401.71C80.2358 401.761 80.142 401.808 79.9972 401.851C79.8551 401.891 79.6903 401.926 79.5028 401.957C79.3182 401.986 79.1378 402.011 78.9616 402.034C78.7884 402.054 78.6477 402.071 78.5398 402.085C78.2784 402.119 78.0341 402.175 77.8068 402.251C77.5824 402.325 77.4006 402.437 77.2614 402.588C77.125 402.736 77.0568 402.937 77.0568 403.193C77.0568 403.543 77.1861 403.807 77.4446 403.986C77.706 404.162 78.0369 404.25 78.4375 404.25ZM83.8697 398.455L85.4379 401.131L87.006 398.455H88.1651L86.0515 401.727L88.1651 405H87.006L85.4379 402.46L83.8697 405H82.7106L84.7901 401.727L82.7106 398.455H83.8697Z" fill="#F0F0F0"/>
<circle cx="45.5" cy="401.5" r="4.5" fill="#F94144"/>
<path d="M146.642 405L144.256 396.273H145.33L147.153 403.381H147.239L149.097 396.273H150.29L152.148 403.381H152.233L154.057 396.273H155.131L152.744 405H151.653L149.727 398.045H149.659L147.733 405H146.642ZM158.361 405.136C157.77 405.136 157.251 404.996 156.805 404.714C156.362 404.433 156.016 404.04 155.766 403.534C155.518 403.028 155.395 402.437 155.395 401.761C155.395 401.08 155.518 400.484 155.766 399.976C156.016 399.467 156.362 399.072 156.805 398.791C157.251 398.51 157.77 398.369 158.361 398.369C158.952 398.369 159.469 398.51 159.912 398.791C160.358 399.072 160.705 399.467 160.952 399.976C161.202 400.484 161.327 401.08 161.327 401.761C161.327 402.437 161.202 403.028 160.952 403.534C160.705 404.04 160.358 404.433 159.912 404.714C159.469 404.996 158.952 405.136 158.361 405.136ZM158.361 404.233C158.81 404.233 159.179 404.118 159.469 403.888C159.759 403.658 159.973 403.355 160.112 402.98C160.251 402.605 160.321 402.199 160.321 401.761C160.321 401.324 160.251 400.916 160.112 400.538C159.973 400.161 159.759 399.855 159.469 399.622C159.179 399.389 158.81 399.273 158.361 399.273C157.912 399.273 157.543 399.389 157.253 399.622C156.963 399.855 156.749 400.161 156.609 400.538C156.47 400.916 156.401 401.324 156.401 401.761C156.401 402.199 156.47 402.605 156.609 402.98C156.749 403.355 156.963 403.658 157.253 403.888C157.543 404.118 157.912 404.233 158.361 404.233ZM162.862 405V398.455H163.833V399.443H163.902C164.021 399.119 164.237 398.857 164.549 398.655C164.862 398.453 165.214 398.352 165.606 398.352C165.68 398.352 165.772 398.354 165.883 398.357C165.994 398.359 166.078 398.364 166.135 398.369V399.392C166.1 399.384 166.022 399.371 165.9 399.354C165.781 399.334 165.654 399.324 165.521 399.324C165.203 399.324 164.919 399.391 164.669 399.524C164.422 399.655 164.225 399.837 164.081 400.07C163.939 400.3 163.868 400.562 163.868 400.858V405H162.862ZM168.264 402.614L168.247 401.369H168.452L171.315 398.455H172.56L169.509 401.54H169.423L168.264 402.614ZM167.327 405V396.273H168.332V405H167.327ZM171.486 405L168.929 401.761L169.645 401.062L172.764 405H171.486Z" fill="#F0F0F0"/>
<circle cx="131.5" cy="401.5" r="4.5" fill="#F3722C"/>
<defs>
<filter id="filter0_d_7_623" x="0" y="0" width="375" height="456" filterUnits="userSpaceOnUse" color-interpolation-filters="sRGB">
<feFlood flood-opacity="0" result="BackgroundImageFix"/>
<feColorMatrix in="SourceAlpha" type="matrix" values="0 0 0 0 0 0 0 0 0 0 0 0 0 0 0 0 0 0 127 0" result="hardAlpha"/>
<feOffset dy="2"/>
<feGaussianBlur stdDeviation="5"/>
<feComposite in2="hardAlpha" operator="out"/>
<feColorMatrix type="matrix" values="0 0 0 0 0 0 0 0 0 0 0 0 0 0 0 0 0 0 0.1 0"/>
<feBlend mode="normal" in2="BackgroundImageFix" result="effect1_dropShadow_7_623"/>
<feBlend mode="normal" in="SourceGraphic" in2="effect1_dropShadow_7_623" result="shape"/>
</filter>
</defs>
</svg>
