<svg width="124" height="122" viewBox="0 0 124 122" fill="none" xmlns="http://www.w3.org/2000/svg">
<path d="M48.61 44.34C49.42 45.1 49.46 46.37 48.7 47.18C47.94 47.99 46.67 48.03 45.86 47.27C42.91 44.5 39.83 42.95 36.91 42.49C33.94 42.03 31.11 42.7 28.79 44.37C23.97 47.84 22.62 55.04 21.47 61.19L21.09 63.2L20.68 65.32C18.2 78.13 15.52 91.96 6.62003 98.45L6.65003 98.46C8.88003 99.46 11.45 99.49 14.02 98.68C16.73 97.82 19.42 96.05 21.74 93.49C23.38 91.68 24.83 89.48 25.98 86.94C26.43 85.93 27.62 85.47 28.63 85.93C29.64 86.38 30.1 87.57 29.64 88.58C28.32 91.52 26.63 94.07 24.71 96.19C21.89 99.3 18.58 101.47 15.23 102.53C11.74 103.63 8.18003 103.56 5.02003 102.14C3.83003 101.61 2.70003 100.88 1.66003 99.95C1.43003 99.77 1.23003 99.53 1.09003 99.24C0.610025 98.24 1.03003 97.04 2.03003 96.56C11.42 92 14.19 77.71 16.74 64.57L17.15 62.43C17.34 61.45 17.44 60.95 17.53 60.45C18.82 53.58 20.33 45.53 26.46 41.12C29.64 38.83 33.49 37.9 37.53 38.53C41.22 39.1 45.05 40.99 48.61 44.34ZM62.33 14.82C66.43 14.82 70.15 16.48 72.84 19.17C75.53 21.86 77.19 25.57 77.19 29.68C77.19 33.78 75.53 37.5 72.84 40.18C70.15 42.87 66.44 44.53 62.33 44.53C58.22 44.53 54.51 42.87 51.82 40.18C49.13 37.49 47.47 33.78 47.47 29.68C47.47 25.58 49.13 21.86 51.82 19.17C54.51 16.49 58.23 14.82 62.33 14.82ZM55.96 28C54 26.04 41.07 37.34 62.33 18.85C59.34 18.85 68.46 19.04 66.5 21C64.54 22.96 73.16 26.69 73.16 29.68C73.16 32.67 52.71 35.38 54.67 37.34C45.86 33 59.34 18.85 62.33 18.85C65.32 18.85 76.6 33.8411 64.39 22.02C66.35 20.06 73.16 32.67 73.16 29.68C73.16 26.69 57.92 29.96 55.96 28ZM46.29 55.84C48.97 51.74 52.35 49.04 55.96 47.6C58.72 46.5 61.6 46.14 64.39 46.45C67.18 46.76 69.9 47.75 72.33 49.34C75.73 51.56 78.58 54.96 80.34 59.37C83.28 66.75 83.25 73.52 83.22 80.25C83.2 85.91 83.17 91.54 85.07 97.28C85.78 99.44 86.7 101.43 87.83 103.24C88.96 105.05 90.29 106.69 91.83 108.16C92.55 108.85 92.65 109.95 92.1 110.75C91 112.48 89.51 113.99 87.72 115.29C81.78 119.63 72.39 121.66 62.96 121.62C53.57 121.57 44.03 119.46 37.76 115.5C35.63 114.16 33.85 112.59 32.55 110.79C31.9 109.9 32.1 108.64 32.99 107.99L33.07 107.93V107.92C35.13 106.57 36.79 104.76 38.08 102.55C39.42 100.27 40.4 97.54 41.07 94.42C42.04 89.88 42.01 84.76 41.99 79.66C41.94 71.11 41.9 62.57 46.29 55.84ZM58.59 50C55.72 51.14 82.1707 57.83 79.9707 61.19C76.2307 66.92 88.06 104.14 88.1 112.1C88.13 117.44 52.13 111.428 51.07 116.348C50.32 119.868 37.65 105.36 41.53 104.59C40.31 106.66 97.07 96.62 80.57 115.5C59.57 126.12 38.83 111.43 39.89 112.1C45.53 115.66 54.27 117.56 62.97 117.61C71.63 117.65 80.14 115.86 85.36 112.05C86.3 111.37 87.12 110.62 87.81 109.81C86.53 108.44 85.4 106.95 84.41 105.36C83.11 103.27 82.05 100.99 81.24 98.53C79.15 92.21 54.7882 58.72 54.8082 52.71C54.8382 46.37 79.26 67.51 76.6 60.85C72.84 64.55 75.17 57.25 76.6 60.85C74.69 59.6 80.37 89.7223 78.2 89.4823C76.06 89.2323 51.82 59.37 58.59 50ZM44 16.04C44.6 16.97 44.34 18.21 43.41 18.81C42.48 19.41 41.24 19.15 40.64 18.22C40.17 17.5 39.81 16.75 39.57 15.97C39.32 15.18 39.19 14.38 39.19 13.57C39.19 9.71 41.97 6.32 46.46 3.97C50.56 1.83 56.18 0.5 62.33 0.5C68.48 0.5 74.1 1.83 78.2 3.98C82.69 6.33 85.47 9.72 85.47 13.58C85.47 13.97 85.44 14.36 85.38 14.76L85.37 14.83C85.31 15.2 85.23 15.56 85.12 15.91C84.8 16.97 83.68 17.58 82.61 17.25C81.55 16.93 80.94 15.81 81.27 14.74C81.33 14.56 81.37 14.38 81.4 14.21L81.41 14.15C81.44 13.96 81.45 13.77 81.45 13.57C81.45 11.32 79.5 9.18 76.34 7.53C72.79 5.67 67.84 4.53 62.32 4.53C56.8 4.53 51.85 5.68 48.3 7.53C45.15 9.18 43.19 11.33 43.19 13.57C43.19 13.98 43.25 14.39 43.38 14.78C43.53 15.21 43.73 15.63 44 16.04ZM88.1 94.46C87.71 93.42 88.23 92.26 89.26 91.87C90.3 91.48 91.46 92 91.85 93.03C92.62 95.04 93.77 96.64 95.28 97.86C96.84 99.11 98.8 99.99 101.14 100.51C102.22 100.75 102.9 101.82 102.66 102.9C102.42 103.98 101.35 104.66 100.27 104.42C97.31 103.76 94.79 102.62 92.76 100.98C90.69 99.31 89.13 97.15 88.1 94.46ZM33.9 93.03C34.29 91.99 35.46 91.47 36.49 91.87C37.53 92.27 38.05 93.43 37.65 94.46C36.62 97.15 35.06 99.32 32.98 100.99C30.94 102.63 28.43 103.77 25.47 104.43C24.39 104.67 23.32 103.99 23.08 102.91C22.84 101.83 23.52 100.76 24.6 100.52C26.94 100 28.91 99.12 30.46 97.87C31.98 96.64 33.13 95.04 33.9 93.03ZM78.8 47.26C77.99 48.02 76.72 47.98 75.96 47.17C75.2 46.36 75.24 45.09 76.05 44.33C79.61 40.98 83.44 39.09 87.13 38.51C91.17 37.88 95.02 38.81 98.2 41.1C104.33 45.51 105.84 53.56 107.13 60.43C107.22 60.92 107.32 61.43 107.51 62.41L107.92 64.55C110.47 77.69 113.24 91.98 122.63 96.54C123.63 97.02 124.05 98.22 123.57 99.22C123.43 99.5 123.24 99.74 123 99.93C121.96 100.86 120.83 101.58 119.64 102.12C116.48 103.54 112.92 103.61 109.43 102.51C106.07 101.45 102.76 99.28 99.95 96.17C98.03 94.05 96.34 91.5 95.02 88.56C94.57 87.55 95.02 86.36 96.03 85.91C97.04 85.46 98.23 85.91 98.68 86.92C99.82 89.47 101.28 91.67 102.92 93.48C105.24 96.04 107.93 97.81 110.64 98.67C113.21 99.48 115.78 99.45 118.01 98.45L118.04 98.44C109.15 91.94 106.47 78.12 103.98 65.31L103.57 63.19L103.19 61.18C102.04 55.03 100.69 47.83 95.87 44.36C93.55 42.69 90.73 42.02 87.75 42.48C84.83 42.94 81.75 44.49 78.8 47.26Z" fill="#EC4899"/>
</svg>
